<mxfile host="app.diagrams.net" modified="2024-01-02T13:45:01.270Z" agent="Mozilla/5.0 (Macintosh; Intel Mac OS X 10_15_7) AppleWebKit/605.1.15 (KHTML, like Gecko) Version/17.1 Safari/605.1.15" etag="WcD7bs3MHQmQ4WK4VfGf" version="22.1.16" type="device" pages="7">
  <diagram name="base page" id="03018318-947c-dd8e-b7a3-06fadd420f32">
    <mxGraphModel dx="832" dy="559" grid="1" gridSize="10" guides="1" tooltips="1" connect="1" arrows="1" fold="1" page="1" pageScale="1" pageWidth="1100" pageHeight="850" background="none" math="0" shadow="0">
      <root>
        <mxCell id="0" />
        <mxCell id="1" parent="0" />
        <mxCell id="d1L7X4KJ8Gx29XFFIUGS-1" value="" style="rounded=0;whiteSpace=wrap;html=1;fontSize=16;" vertex="1" parent="1">
          <mxGeometry x="30" y="30" width="1050" height="110" as="geometry" />
        </mxCell>
        <mxCell id="677b7b8949515195-2" value="&lt;font&gt;QuizMaster&lt;br&gt;&lt;/font&gt;&lt;font style=&quot;font-size: 9px;&quot;&gt;(take to home)&lt;/font&gt;" style="whiteSpace=wrap;html=1;rounded=0;shadow=0;labelBackgroundColor=none;strokeWidth=1;fontFamily=Verdana;fontSize=28;align=center;comic=1;" parent="1" vertex="1">
          <mxGeometry x="40" y="45" width="190" height="80" as="geometry" />
        </mxCell>
        <mxCell id="A5otdbUWvQEg4DYQGA6c-1" value="Music quiz" style="rounded=0;whiteSpace=wrap;html=1;" parent="1" vertex="1">
          <mxGeometry x="270" y="55" width="120" height="60" as="geometry" />
        </mxCell>
        <mxCell id="A5otdbUWvQEg4DYQGA6c-2" value="location quiz" style="rounded=0;whiteSpace=wrap;html=1;" parent="1" vertex="1">
          <mxGeometry x="430" y="55" width="120" height="60" as="geometry" />
        </mxCell>
        <mxCell id="A5otdbUWvQEg4DYQGA6c-3" value="remove ads" style="rounded=0;whiteSpace=wrap;html=1;" parent="1" vertex="1">
          <mxGeometry x="940" y="55" width="120" height="60" as="geometry" />
        </mxCell>
        <mxCell id="A5otdbUWvQEg4DYQGA6c-4" value="trolley problem" style="rounded=0;whiteSpace=wrap;html=1;" parent="1" vertex="1">
          <mxGeometry x="760" y="55" width="120" height="60" as="geometry" />
        </mxCell>
        <mxCell id="A5otdbUWvQEg4DYQGA6c-5" value="&lt;b&gt;About the website&lt;/b&gt;" style="rounded=0;whiteSpace=wrap;html=1;" parent="1" vertex="1">
          <mxGeometry x="130" y="160" width="625" height="50" as="geometry" />
        </mxCell>
        <mxCell id="A5otdbUWvQEg4DYQGA6c-6" value="TV show quiz" style="rounded=0;whiteSpace=wrap;html=1;" parent="1" vertex="1">
          <mxGeometry x="590" y="55" width="120" height="60" as="geometry" />
        </mxCell>
        <mxCell id="A5otdbUWvQEg4DYQGA6c-8" value="" style="endArrow=classic;html=1;rounded=0;" parent="1" target="A5otdbUWvQEg4DYQGA6c-3" edge="1">
          <mxGeometry width="50" height="50" relative="1" as="geometry">
            <mxPoint x="1260" y="190" as="sourcePoint" />
            <mxPoint x="1140" y="170" as="targetPoint" />
          </mxGeometry>
        </mxCell>
        <mxCell id="A5otdbUWvQEg4DYQGA6c-9" value="signing up removes ads" style="text;html=1;align=center;verticalAlign=middle;resizable=0;points=[];autosize=1;strokeColor=none;fillColor=none;" parent="1" vertex="1">
          <mxGeometry x="1185" y="188" width="150" height="30" as="geometry" />
        </mxCell>
        <mxCell id="A5otdbUWvQEg4DYQGA6c-11" value="" style="shape=image;html=1;verticalLabelPosition=bottom;verticalAlign=top;imageAspect=0;image=img/clipart/Gear_128x128.png" parent="1" vertex="1">
          <mxGeometry x="830" y="170" width="190" height="190" as="geometry" />
        </mxCell>
        <mxCell id="A5otdbUWvQEg4DYQGA6c-12" value="" style="shape=image;html=1;verticalLabelPosition=bottom;verticalAlign=top;imageAspect=0;image=img/clipart/Gear_128x128.png" parent="1" vertex="1">
          <mxGeometry x="830" y="390" width="190" height="190" as="geometry" />
        </mxCell>
        <mxCell id="A5otdbUWvQEg4DYQGA6c-13" value="click here to remove ads" style="text;html=1;align=center;verticalAlign=middle;resizable=0;points=[];autosize=1;strokeColor=none;fillColor=none;" parent="1" vertex="1">
          <mxGeometry x="690" y="670" width="150" height="30" as="geometry" />
        </mxCell>
        <mxCell id="A5otdbUWvQEg4DYQGA6c-14" value="Ad 2" style="text;html=1;align=center;verticalAlign=middle;resizable=0;points=[];autosize=1;strokeColor=none;fillColor=none;" parent="1" vertex="1">
          <mxGeometry x="840" y="380" width="50" height="30" as="geometry" />
        </mxCell>
        <mxCell id="A5otdbUWvQEg4DYQGA6c-15" value="Ad 1" style="text;html=1;align=center;verticalAlign=middle;resizable=0;points=[];autosize=1;strokeColor=none;fillColor=none;" parent="1" vertex="1">
          <mxGeometry x="840" y="160" width="50" height="30" as="geometry" />
        </mxCell>
        <mxCell id="A5otdbUWvQEg4DYQGA6c-17" value="" style="shape=image;html=1;verticalLabelPosition=bottom;verticalAlign=top;imageAspect=0;image=img/clipart/Gear_128x128.png" parent="1" vertex="1">
          <mxGeometry x="840" y="590" width="180" height="180" as="geometry" />
        </mxCell>
        <mxCell id="A5otdbUWvQEg4DYQGA6c-18" value="Ad 3" style="text;html=1;align=center;verticalAlign=middle;resizable=0;points=[];autosize=1;strokeColor=none;fillColor=none;" parent="1" vertex="1">
          <mxGeometry x="840" y="580" width="50" height="30" as="geometry" />
        </mxCell>
        <mxCell id="A5otdbUWvQEg4DYQGA6c-19" value="video here of me explaining it" style="shape=ext;double=1;whiteSpace=wrap;html=1;aspect=fixed;" parent="1" vertex="1">
          <mxGeometry x="60" y="260" width="230" height="230" as="geometry" />
        </mxCell>
        <mxCell id="T0Yty4Hrwosv56b3I0WY-1" value="&lt;font style=&quot;font-size: 32px;&quot;&gt;HAPPY QUIZZING!!!&lt;/font&gt;" style="text;strokeColor=none;fillColor=none;html=1;align=center;verticalAlign=middle;whiteSpace=wrap;rounded=0;fontSize=16;" vertex="1" parent="1">
          <mxGeometry x="50" y="580" width="310" height="50" as="geometry" />
        </mxCell>
        <mxCell id="CmVdQJwslvC-fQa8x60w-1" value="&lt;font style=&quot;font-size: 13px;&quot;&gt;(text flashing site colours)&lt;/font&gt;" style="text;strokeColor=none;fillColor=none;html=1;align=center;verticalAlign=middle;whiteSpace=wrap;rounded=0;fontSize=16;" vertex="1" parent="1">
          <mxGeometry x="110" y="620" width="190" height="20" as="geometry" />
        </mxCell>
      </root>
    </mxGraphModel>
  </diagram>
  <diagram name="Music Quiz" id="dv1cBEr1QzFGe1fkmhJb">
    <mxGraphModel dx="832" dy="559" grid="1" gridSize="10" guides="1" tooltips="1" connect="1" arrows="1" fold="1" page="1" pageScale="1" pageWidth="1100" pageHeight="850" background="none" math="0" shadow="0">
      <root>
        <mxCell id="g_UH4R2nsFCkR0BCganD-0" />
        <mxCell id="g_UH4R2nsFCkR0BCganD-1" parent="g_UH4R2nsFCkR0BCganD-0" />
        <mxCell id="4pbOTyRcawZPrNXxyi4A-0" value="" style="rounded=0;whiteSpace=wrap;html=1;fontSize=16;" vertex="1" parent="g_UH4R2nsFCkR0BCganD-1">
          <mxGeometry x="30" y="30" width="1050" height="110" as="geometry" />
        </mxCell>
        <mxCell id="g_UH4R2nsFCkR0BCganD-3" value="&lt;font&gt;QuizMaster&lt;br&gt;&lt;/font&gt;&lt;font style=&quot;font-size: 9px;&quot;&gt;(take to home)&lt;/font&gt;" style="whiteSpace=wrap;html=1;rounded=0;shadow=0;labelBackgroundColor=none;strokeWidth=1;fontFamily=Verdana;fontSize=28;align=center;comic=1;" vertex="1" parent="g_UH4R2nsFCkR0BCganD-1">
          <mxGeometry x="40" y="45" width="190" height="80" as="geometry" />
        </mxCell>
        <mxCell id="g_UH4R2nsFCkR0BCganD-5" value="Music quiz&lt;br&gt;(disabled)" style="rounded=0;whiteSpace=wrap;html=1;" vertex="1" parent="g_UH4R2nsFCkR0BCganD-1">
          <mxGeometry x="270" y="55" width="120" height="60" as="geometry" />
        </mxCell>
        <mxCell id="g_UH4R2nsFCkR0BCganD-6" value="location quiz" style="rounded=0;whiteSpace=wrap;html=1;" vertex="1" parent="g_UH4R2nsFCkR0BCganD-1">
          <mxGeometry x="430" y="55" width="120" height="60" as="geometry" />
        </mxCell>
        <mxCell id="g_UH4R2nsFCkR0BCganD-7" value="remove ads" style="rounded=0;whiteSpace=wrap;html=1;" vertex="1" parent="g_UH4R2nsFCkR0BCganD-1">
          <mxGeometry x="940" y="55" width="120" height="60" as="geometry" />
        </mxCell>
        <mxCell id="g_UH4R2nsFCkR0BCganD-8" value="trolley problem" style="rounded=0;whiteSpace=wrap;html=1;" vertex="1" parent="g_UH4R2nsFCkR0BCganD-1">
          <mxGeometry x="760" y="55" width="120" height="60" as="geometry" />
        </mxCell>
        <mxCell id="g_UH4R2nsFCkR0BCganD-10" value="TV show quiz" style="rounded=0;whiteSpace=wrap;html=1;" vertex="1" parent="g_UH4R2nsFCkR0BCganD-1">
          <mxGeometry x="590" y="55" width="120" height="60" as="geometry" />
        </mxCell>
        <mxCell id="_v0wlvCPucwJ0G3vMVsv-0" value="&lt;b&gt;About this page&lt;/b&gt;" style="rounded=0;whiteSpace=wrap;html=1;" vertex="1" parent="g_UH4R2nsFCkR0BCganD-1">
          <mxGeometry x="130" y="200" width="625" height="50" as="geometry" />
        </mxCell>
        <mxCell id="wR23DULMvl6Wury1VvuS-0" value="" style="group" vertex="1" connectable="0" parent="g_UH4R2nsFCkR0BCganD-1">
          <mxGeometry x="60" y="280" width="590" height="575" as="geometry" />
        </mxCell>
        <mxCell id="_v0wlvCPucwJ0G3vMVsv-2" value="" style="shape=table;startSize=0;container=1;collapsible=0;childLayout=tableLayout;fontSize=16;" vertex="1" parent="wR23DULMvl6Wury1VvuS-0">
          <mxGeometry width="590" height="575" as="geometry" />
        </mxCell>
        <mxCell id="_v0wlvCPucwJ0G3vMVsv-3" value="" style="shape=tableRow;horizontal=0;startSize=0;swimlaneHead=0;swimlaneBody=0;strokeColor=inherit;top=0;left=0;bottom=0;right=0;collapsible=0;dropTarget=0;fillColor=none;points=[[0,0.5],[1,0.5]];portConstraint=eastwest;fontSize=16;" vertex="1" parent="_v0wlvCPucwJ0G3vMVsv-2">
          <mxGeometry width="590" height="72" as="geometry" />
        </mxCell>
        <mxCell id="_v0wlvCPucwJ0G3vMVsv-4" value="" style="shape=partialRectangle;html=1;whiteSpace=wrap;connectable=0;strokeColor=inherit;overflow=hidden;fillColor=none;top=0;left=0;bottom=0;right=0;pointerEvents=1;fontSize=16;" vertex="1" parent="_v0wlvCPucwJ0G3vMVsv-3">
          <mxGeometry width="310" height="72" as="geometry">
            <mxRectangle width="310" height="72" as="alternateBounds" />
          </mxGeometry>
        </mxCell>
        <mxCell id="_v0wlvCPucwJ0G3vMVsv-5" value="" style="shape=partialRectangle;html=1;whiteSpace=wrap;connectable=0;strokeColor=inherit;overflow=hidden;fillColor=none;top=0;left=0;bottom=0;right=0;pointerEvents=1;fontSize=16;" vertex="1" parent="_v0wlvCPucwJ0G3vMVsv-3">
          <mxGeometry x="310" width="280" height="72" as="geometry">
            <mxRectangle width="280" height="72" as="alternateBounds" />
          </mxGeometry>
        </mxCell>
        <mxCell id="_v0wlvCPucwJ0G3vMVsv-6" value="" style="shape=tableRow;horizontal=0;startSize=0;swimlaneHead=0;swimlaneBody=0;strokeColor=inherit;top=0;left=0;bottom=0;right=0;collapsible=0;dropTarget=0;fillColor=none;points=[[0,0.5],[1,0.5]];portConstraint=eastwest;fontSize=16;" vertex="1" parent="_v0wlvCPucwJ0G3vMVsv-2">
          <mxGeometry y="72" width="590" height="72" as="geometry" />
        </mxCell>
        <mxCell id="_v0wlvCPucwJ0G3vMVsv-7" value="" style="shape=partialRectangle;html=1;whiteSpace=wrap;connectable=0;strokeColor=inherit;overflow=hidden;fillColor=none;top=0;left=0;bottom=0;right=0;pointerEvents=1;fontSize=16;" vertex="1" parent="_v0wlvCPucwJ0G3vMVsv-6">
          <mxGeometry width="310" height="72" as="geometry">
            <mxRectangle width="310" height="72" as="alternateBounds" />
          </mxGeometry>
        </mxCell>
        <mxCell id="_v0wlvCPucwJ0G3vMVsv-8" value="" style="shape=partialRectangle;html=1;whiteSpace=wrap;connectable=0;strokeColor=inherit;overflow=hidden;fillColor=none;top=0;left=0;bottom=0;right=0;pointerEvents=1;fontSize=16;" vertex="1" parent="_v0wlvCPucwJ0G3vMVsv-6">
          <mxGeometry x="310" width="280" height="72" as="geometry">
            <mxRectangle width="280" height="72" as="alternateBounds" />
          </mxGeometry>
        </mxCell>
        <mxCell id="_v0wlvCPucwJ0G3vMVsv-9" value="" style="shape=tableRow;horizontal=0;startSize=0;swimlaneHead=0;swimlaneBody=0;strokeColor=inherit;top=0;left=0;bottom=0;right=0;collapsible=0;dropTarget=0;fillColor=none;points=[[0,0.5],[1,0.5]];portConstraint=eastwest;fontSize=16;" vertex="1" parent="_v0wlvCPucwJ0G3vMVsv-2">
          <mxGeometry y="144" width="590" height="72" as="geometry" />
        </mxCell>
        <mxCell id="_v0wlvCPucwJ0G3vMVsv-10" value="" style="shape=partialRectangle;html=1;whiteSpace=wrap;connectable=0;strokeColor=inherit;overflow=hidden;fillColor=none;top=0;left=0;bottom=0;right=0;pointerEvents=1;fontSize=16;" vertex="1" parent="_v0wlvCPucwJ0G3vMVsv-9">
          <mxGeometry width="310" height="72" as="geometry">
            <mxRectangle width="310" height="72" as="alternateBounds" />
          </mxGeometry>
        </mxCell>
        <mxCell id="_v0wlvCPucwJ0G3vMVsv-11" value="" style="shape=partialRectangle;html=1;whiteSpace=wrap;connectable=0;strokeColor=inherit;overflow=hidden;fillColor=none;top=0;left=0;bottom=0;right=0;pointerEvents=1;fontSize=16;" vertex="1" parent="_v0wlvCPucwJ0G3vMVsv-9">
          <mxGeometry x="310" width="280" height="72" as="geometry">
            <mxRectangle width="280" height="72" as="alternateBounds" />
          </mxGeometry>
        </mxCell>
        <mxCell id="_v0wlvCPucwJ0G3vMVsv-12" value="" style="shape=tableRow;horizontal=0;startSize=0;swimlaneHead=0;swimlaneBody=0;strokeColor=inherit;top=0;left=0;bottom=0;right=0;collapsible=0;dropTarget=0;fillColor=none;points=[[0,0.5],[1,0.5]];portConstraint=eastwest;fontSize=16;" vertex="1" parent="_v0wlvCPucwJ0G3vMVsv-2">
          <mxGeometry y="216" width="590" height="72" as="geometry" />
        </mxCell>
        <mxCell id="_v0wlvCPucwJ0G3vMVsv-13" value="" style="shape=partialRectangle;html=1;whiteSpace=wrap;connectable=0;strokeColor=inherit;overflow=hidden;fillColor=none;top=0;left=0;bottom=0;right=0;pointerEvents=1;fontSize=16;" vertex="1" parent="_v0wlvCPucwJ0G3vMVsv-12">
          <mxGeometry width="310" height="72" as="geometry">
            <mxRectangle width="310" height="72" as="alternateBounds" />
          </mxGeometry>
        </mxCell>
        <mxCell id="_v0wlvCPucwJ0G3vMVsv-14" value="" style="shape=partialRectangle;html=1;whiteSpace=wrap;connectable=0;strokeColor=inherit;overflow=hidden;fillColor=none;top=0;left=0;bottom=0;right=0;pointerEvents=1;fontSize=16;" vertex="1" parent="_v0wlvCPucwJ0G3vMVsv-12">
          <mxGeometry x="310" width="280" height="72" as="geometry">
            <mxRectangle width="280" height="72" as="alternateBounds" />
          </mxGeometry>
        </mxCell>
        <mxCell id="_v0wlvCPucwJ0G3vMVsv-15" value="" style="shape=tableRow;horizontal=0;startSize=0;swimlaneHead=0;swimlaneBody=0;strokeColor=inherit;top=0;left=0;bottom=0;right=0;collapsible=0;dropTarget=0;fillColor=none;points=[[0,0.5],[1,0.5]];portConstraint=eastwest;fontSize=16;" vertex="1" parent="_v0wlvCPucwJ0G3vMVsv-2">
          <mxGeometry y="288" width="590" height="71" as="geometry" />
        </mxCell>
        <mxCell id="_v0wlvCPucwJ0G3vMVsv-16" value="" style="shape=partialRectangle;html=1;whiteSpace=wrap;connectable=0;strokeColor=inherit;overflow=hidden;fillColor=none;top=0;left=0;bottom=0;right=0;pointerEvents=1;fontSize=16;" vertex="1" parent="_v0wlvCPucwJ0G3vMVsv-15">
          <mxGeometry width="310" height="71" as="geometry">
            <mxRectangle width="310" height="71" as="alternateBounds" />
          </mxGeometry>
        </mxCell>
        <mxCell id="_v0wlvCPucwJ0G3vMVsv-17" value="" style="shape=partialRectangle;html=1;whiteSpace=wrap;connectable=0;strokeColor=inherit;overflow=hidden;fillColor=none;top=0;left=0;bottom=0;right=0;pointerEvents=1;fontSize=16;" vertex="1" parent="_v0wlvCPucwJ0G3vMVsv-15">
          <mxGeometry x="310" width="280" height="71" as="geometry">
            <mxRectangle width="280" height="71" as="alternateBounds" />
          </mxGeometry>
        </mxCell>
        <mxCell id="_v0wlvCPucwJ0G3vMVsv-18" value="" style="shape=tableRow;horizontal=0;startSize=0;swimlaneHead=0;swimlaneBody=0;strokeColor=inherit;top=0;left=0;bottom=0;right=0;collapsible=0;dropTarget=0;fillColor=none;points=[[0,0.5],[1,0.5]];portConstraint=eastwest;fontSize=16;" vertex="1" parent="_v0wlvCPucwJ0G3vMVsv-2">
          <mxGeometry y="359" width="590" height="72" as="geometry" />
        </mxCell>
        <mxCell id="_v0wlvCPucwJ0G3vMVsv-19" value="" style="shape=partialRectangle;html=1;whiteSpace=wrap;connectable=0;strokeColor=inherit;overflow=hidden;fillColor=none;top=0;left=0;bottom=0;right=0;pointerEvents=1;fontSize=16;" vertex="1" parent="_v0wlvCPucwJ0G3vMVsv-18">
          <mxGeometry width="310" height="72" as="geometry">
            <mxRectangle width="310" height="72" as="alternateBounds" />
          </mxGeometry>
        </mxCell>
        <mxCell id="_v0wlvCPucwJ0G3vMVsv-20" value="" style="shape=partialRectangle;html=1;whiteSpace=wrap;connectable=0;strokeColor=inherit;overflow=hidden;fillColor=none;top=0;left=0;bottom=0;right=0;pointerEvents=1;fontSize=16;" vertex="1" parent="_v0wlvCPucwJ0G3vMVsv-18">
          <mxGeometry x="310" width="280" height="72" as="geometry">
            <mxRectangle width="280" height="72" as="alternateBounds" />
          </mxGeometry>
        </mxCell>
        <mxCell id="_v0wlvCPucwJ0G3vMVsv-21" value="" style="shape=tableRow;horizontal=0;startSize=0;swimlaneHead=0;swimlaneBody=0;strokeColor=inherit;top=0;left=0;bottom=0;right=0;collapsible=0;dropTarget=0;fillColor=none;points=[[0,0.5],[1,0.5]];portConstraint=eastwest;fontSize=16;" vertex="1" parent="_v0wlvCPucwJ0G3vMVsv-2">
          <mxGeometry y="431" width="590" height="72" as="geometry" />
        </mxCell>
        <mxCell id="_v0wlvCPucwJ0G3vMVsv-22" value="" style="shape=partialRectangle;html=1;whiteSpace=wrap;connectable=0;strokeColor=inherit;overflow=hidden;fillColor=none;top=0;left=0;bottom=0;right=0;pointerEvents=1;fontSize=16;" vertex="1" parent="_v0wlvCPucwJ0G3vMVsv-21">
          <mxGeometry width="310" height="72" as="geometry">
            <mxRectangle width="310" height="72" as="alternateBounds" />
          </mxGeometry>
        </mxCell>
        <mxCell id="_v0wlvCPucwJ0G3vMVsv-23" value="" style="shape=partialRectangle;html=1;whiteSpace=wrap;connectable=0;strokeColor=inherit;overflow=hidden;fillColor=none;top=0;left=0;bottom=0;right=0;pointerEvents=1;fontSize=16;" vertex="1" parent="_v0wlvCPucwJ0G3vMVsv-21">
          <mxGeometry x="310" width="280" height="72" as="geometry">
            <mxRectangle width="280" height="72" as="alternateBounds" />
          </mxGeometry>
        </mxCell>
        <mxCell id="_v0wlvCPucwJ0G3vMVsv-24" value="" style="shape=tableRow;horizontal=0;startSize=0;swimlaneHead=0;swimlaneBody=0;strokeColor=inherit;top=0;left=0;bottom=0;right=0;collapsible=0;dropTarget=0;fillColor=none;points=[[0,0.5],[1,0.5]];portConstraint=eastwest;fontSize=16;" vertex="1" parent="_v0wlvCPucwJ0G3vMVsv-2">
          <mxGeometry y="503" width="590" height="72" as="geometry" />
        </mxCell>
        <mxCell id="_v0wlvCPucwJ0G3vMVsv-25" value="" style="shape=partialRectangle;html=1;whiteSpace=wrap;connectable=0;strokeColor=inherit;overflow=hidden;fillColor=none;top=0;left=0;bottom=0;right=0;pointerEvents=1;fontSize=16;" vertex="1" parent="_v0wlvCPucwJ0G3vMVsv-24">
          <mxGeometry width="310" height="72" as="geometry">
            <mxRectangle width="310" height="72" as="alternateBounds" />
          </mxGeometry>
        </mxCell>
        <mxCell id="_v0wlvCPucwJ0G3vMVsv-26" value="" style="shape=partialRectangle;html=1;whiteSpace=wrap;connectable=0;strokeColor=inherit;overflow=hidden;fillColor=none;top=0;left=0;bottom=0;right=0;pointerEvents=1;fontSize=16;" vertex="1" parent="_v0wlvCPucwJ0G3vMVsv-24">
          <mxGeometry x="310" width="280" height="72" as="geometry">
            <mxRectangle width="280" height="72" as="alternateBounds" />
          </mxGeometry>
        </mxCell>
        <mxCell id="g_UH4R2nsFCkR0BCganD-13" value="" style="shape=image;html=1;verticalLabelPosition=bottom;verticalAlign=top;imageAspect=0;image=img/clipart/Gear_128x128.png" vertex="1" parent="wR23DULMvl6Wury1VvuS-0">
          <mxGeometry x="40" y="75" width="65" height="60" as="geometry" />
        </mxCell>
        <mxCell id="g_UH4R2nsFCkR0BCganD-17" value="Ad 1" style="text;html=1;align=center;verticalAlign=middle;resizable=0;points=[];autosize=1;strokeColor=none;fillColor=none;" vertex="1" parent="wR23DULMvl6Wury1VvuS-0">
          <mxGeometry x="110" y="90" width="50" height="30" as="geometry" />
        </mxCell>
        <mxCell id="_v0wlvCPucwJ0G3vMVsv-27" value="" style="shape=image;html=1;verticalLabelPosition=bottom;verticalAlign=top;imageAspect=0;image=img/clipart/Gear_128x128.png" vertex="1" parent="wR23DULMvl6Wury1VvuS-0">
          <mxGeometry x="40" y="295" width="65" height="60" as="geometry" />
        </mxCell>
        <mxCell id="_v0wlvCPucwJ0G3vMVsv-28" value="" style="shape=image;html=1;verticalLabelPosition=bottom;verticalAlign=top;imageAspect=0;image=img/clipart/Gear_128x128.png" vertex="1" parent="wR23DULMvl6Wury1VvuS-0">
          <mxGeometry x="52.5" y="505" width="65" height="60" as="geometry" />
        </mxCell>
        <mxCell id="g_UH4R2nsFCkR0BCganD-15" value="click here to remove ads" style="text;html=1;align=center;verticalAlign=middle;resizable=0;points=[];autosize=1;strokeColor=none;fillColor=none;" vertex="1" parent="wR23DULMvl6Wury1VvuS-0">
          <mxGeometry x="10" y="545" width="150" height="30" as="geometry" />
        </mxCell>
        <mxCell id="g_UH4R2nsFCkR0BCganD-19" value="Ad 3" style="text;html=1;align=center;verticalAlign=middle;resizable=0;points=[];autosize=1;strokeColor=none;fillColor=none;" vertex="1" parent="wR23DULMvl6Wury1VvuS-0">
          <mxGeometry x="130" y="515" width="50" height="30" as="geometry" />
        </mxCell>
        <mxCell id="g_UH4R2nsFCkR0BCganD-16" value="Ad 2" style="text;html=1;align=center;verticalAlign=middle;resizable=0;points=[];autosize=1;strokeColor=none;fillColor=none;" vertex="1" parent="wR23DULMvl6Wury1VvuS-0">
          <mxGeometry x="130" y="310" width="50" height="30" as="geometry" />
        </mxCell>
        <mxCell id="4pbOTyRcawZPrNXxyi4A-2" value="Select Game" style="swimlane;fontSize=16;startSize=30;" vertex="1" collapsed="1" parent="wR23DULMvl6Wury1VvuS-0">
          <mxGeometry x="390" y="15" width="120" height="30" as="geometry">
            <mxRectangle x="580" y="270" width="120" height="200" as="alternateBounds" />
          </mxGeometry>
        </mxCell>
        <mxCell id="_v0wlvCPucwJ0G3vMVsv-32" value="" style="dashed=0;align=center;fontSize=12;shape=rect;fillColor=#ffffff;strokeColor=#cccccc;shadow=1;" vertex="1" parent="4pbOTyRcawZPrNXxyi4A-2">
          <mxGeometry x="10" y="35" width="100" height="150" as="geometry" />
        </mxCell>
        <mxCell id="_v0wlvCPucwJ0G3vMVsv-33" value="" style="shape=rect;fontColor=#000000;verticalAlign=middle;spacingLeft=13;fontSize=14;strokeColor=#cccccc;align=left;resizeWidth=1;whiteSpace=wrap;html=1;" vertex="1" parent="_v0wlvCPucwJ0G3vMVsv-32">
          <mxGeometry width="100" height="40" relative="1" as="geometry" />
        </mxCell>
        <mxCell id="_v0wlvCPucwJ0G3vMVsv-34" value="" style="dashed=0;html=1;shape=mxgraph.gmdl.triangle;fillColor=#cccccc;strokeColor=none;fontSize=16;" vertex="1" parent="_v0wlvCPucwJ0G3vMVsv-33">
          <mxGeometry x="1" y="0.5" width="10" height="5" relative="1" as="geometry">
            <mxPoint x="-25" y="-2.5" as="offset" />
          </mxGeometry>
        </mxCell>
        <mxCell id="_v0wlvCPucwJ0G3vMVsv-35" value="Game 1" style="shape=rect;align=left;fontColor=#000000;verticalAlign=middle;spacingLeft=13;fontSize=14;fillColor=#eeeeee;strokeColor=none;resizeWidth=1;whiteSpace=wrap;html=1;" vertex="1" parent="_v0wlvCPucwJ0G3vMVsv-32">
          <mxGeometry width="100" height="30" relative="1" as="geometry">
            <mxPoint y="50" as="offset" />
          </mxGeometry>
        </mxCell>
        <mxCell id="_v0wlvCPucwJ0G3vMVsv-36" value="Game 2" style="text;fontColor=#000000;verticalAlign=middle;spacingLeft=13;fontSize=16;resizeWidth=1;whiteSpace=wrap;html=1;" vertex="1" parent="_v0wlvCPucwJ0G3vMVsv-32">
          <mxGeometry width="100" height="30" relative="1" as="geometry">
            <mxPoint y="80" as="offset" />
          </mxGeometry>
        </mxCell>
        <mxCell id="_v0wlvCPucwJ0G3vMVsv-37" value="Game 3" style="text;fontColor=#000000;verticalAlign=middle;spacingLeft=13;fontSize=16;resizeWidth=1;whiteSpace=wrap;html=1;" vertex="1" parent="_v0wlvCPucwJ0G3vMVsv-32">
          <mxGeometry width="100" height="30" relative="1" as="geometry">
            <mxPoint y="110" as="offset" />
          </mxGeometry>
        </mxCell>
        <mxCell id="4pbOTyRcawZPrNXxyi4A-5" value="Select Game" style="swimlane;fontSize=16;startSize=30;" vertex="1" collapsed="1" parent="wR23DULMvl6Wury1VvuS-0">
          <mxGeometry x="390" y="375" width="120" height="30" as="geometry">
            <mxRectangle x="590" y="280" width="120" height="200" as="alternateBounds" />
          </mxGeometry>
        </mxCell>
        <mxCell id="4pbOTyRcawZPrNXxyi4A-6" value="" style="dashed=0;align=center;fontSize=12;shape=rect;fillColor=#ffffff;strokeColor=#cccccc;shadow=1;" vertex="1" parent="4pbOTyRcawZPrNXxyi4A-5">
          <mxGeometry x="10" y="35" width="100" height="150" as="geometry" />
        </mxCell>
        <mxCell id="4pbOTyRcawZPrNXxyi4A-7" value="" style="shape=rect;fontColor=#000000;verticalAlign=middle;spacingLeft=13;fontSize=14;strokeColor=#cccccc;align=left;resizeWidth=1;whiteSpace=wrap;html=1;" vertex="1" parent="4pbOTyRcawZPrNXxyi4A-6">
          <mxGeometry width="100" height="40" relative="1" as="geometry" />
        </mxCell>
        <mxCell id="4pbOTyRcawZPrNXxyi4A-8" value="" style="dashed=0;html=1;shape=mxgraph.gmdl.triangle;fillColor=#cccccc;strokeColor=none;fontSize=16;" vertex="1" parent="4pbOTyRcawZPrNXxyi4A-7">
          <mxGeometry x="1" y="0.5" width="10" height="5" relative="1" as="geometry">
            <mxPoint x="-25" y="-2.5" as="offset" />
          </mxGeometry>
        </mxCell>
        <mxCell id="4pbOTyRcawZPrNXxyi4A-9" value="Game 1" style="shape=rect;align=left;fontColor=#000000;verticalAlign=middle;spacingLeft=13;fontSize=14;fillColor=#eeeeee;strokeColor=none;resizeWidth=1;whiteSpace=wrap;html=1;" vertex="1" parent="4pbOTyRcawZPrNXxyi4A-6">
          <mxGeometry width="100" height="30" relative="1" as="geometry">
            <mxPoint y="50" as="offset" />
          </mxGeometry>
        </mxCell>
        <mxCell id="4pbOTyRcawZPrNXxyi4A-10" value="Game 2" style="text;fontColor=#000000;verticalAlign=middle;spacingLeft=13;fontSize=16;resizeWidth=1;whiteSpace=wrap;html=1;" vertex="1" parent="4pbOTyRcawZPrNXxyi4A-6">
          <mxGeometry width="100" height="30" relative="1" as="geometry">
            <mxPoint y="80" as="offset" />
          </mxGeometry>
        </mxCell>
        <mxCell id="4pbOTyRcawZPrNXxyi4A-11" value="Game 3" style="text;fontColor=#000000;verticalAlign=middle;spacingLeft=13;fontSize=16;resizeWidth=1;whiteSpace=wrap;html=1;" vertex="1" parent="4pbOTyRcawZPrNXxyi4A-6">
          <mxGeometry width="100" height="30" relative="1" as="geometry">
            <mxPoint y="110" as="offset" />
          </mxGeometry>
        </mxCell>
        <mxCell id="4pbOTyRcawZPrNXxyi4A-12" value="Select Game" style="swimlane;fontSize=16;startSize=30;" vertex="1" collapsed="1" parent="wR23DULMvl6Wury1VvuS-0">
          <mxGeometry x="390" y="165" width="120" height="30" as="geometry">
            <mxRectangle x="600" y="290" width="120" height="200" as="alternateBounds" />
          </mxGeometry>
        </mxCell>
        <mxCell id="4pbOTyRcawZPrNXxyi4A-13" value="" style="dashed=0;align=center;fontSize=12;shape=rect;fillColor=#ffffff;strokeColor=#cccccc;shadow=1;" vertex="1" parent="4pbOTyRcawZPrNXxyi4A-12">
          <mxGeometry x="10" y="35" width="100" height="150" as="geometry" />
        </mxCell>
        <mxCell id="4pbOTyRcawZPrNXxyi4A-14" value="" style="shape=rect;fontColor=#000000;verticalAlign=middle;spacingLeft=13;fontSize=14;strokeColor=#cccccc;align=left;resizeWidth=1;whiteSpace=wrap;html=1;" vertex="1" parent="4pbOTyRcawZPrNXxyi4A-13">
          <mxGeometry width="100" height="40" relative="1" as="geometry" />
        </mxCell>
        <mxCell id="4pbOTyRcawZPrNXxyi4A-15" value="" style="dashed=0;html=1;shape=mxgraph.gmdl.triangle;fillColor=#cccccc;strokeColor=none;fontSize=16;" vertex="1" parent="4pbOTyRcawZPrNXxyi4A-14">
          <mxGeometry x="1" y="0.5" width="10" height="5" relative="1" as="geometry">
            <mxPoint x="-25" y="-2.5" as="offset" />
          </mxGeometry>
        </mxCell>
        <mxCell id="4pbOTyRcawZPrNXxyi4A-16" value="Game 1" style="shape=rect;align=left;fontColor=#000000;verticalAlign=middle;spacingLeft=13;fontSize=14;fillColor=#eeeeee;strokeColor=none;resizeWidth=1;whiteSpace=wrap;html=1;" vertex="1" parent="4pbOTyRcawZPrNXxyi4A-13">
          <mxGeometry width="100" height="30" relative="1" as="geometry">
            <mxPoint y="50" as="offset" />
          </mxGeometry>
        </mxCell>
        <mxCell id="4pbOTyRcawZPrNXxyi4A-17" value="Game 2" style="text;fontColor=#000000;verticalAlign=middle;spacingLeft=13;fontSize=16;resizeWidth=1;whiteSpace=wrap;html=1;" vertex="1" parent="4pbOTyRcawZPrNXxyi4A-13">
          <mxGeometry width="100" height="30" relative="1" as="geometry">
            <mxPoint y="80" as="offset" />
          </mxGeometry>
        </mxCell>
        <mxCell id="4pbOTyRcawZPrNXxyi4A-18" value="Game 3" style="text;fontColor=#000000;verticalAlign=middle;spacingLeft=13;fontSize=16;resizeWidth=1;whiteSpace=wrap;html=1;" vertex="1" parent="4pbOTyRcawZPrNXxyi4A-13">
          <mxGeometry width="100" height="30" relative="1" as="geometry">
            <mxPoint y="110" as="offset" />
          </mxGeometry>
        </mxCell>
        <mxCell id="4pbOTyRcawZPrNXxyi4A-19" value="Select Game" style="swimlane;fontSize=16;startSize=30;" vertex="1" collapsed="1" parent="wR23DULMvl6Wury1VvuS-0">
          <mxGeometry x="390" y="235" width="120" height="30" as="geometry">
            <mxRectangle x="610" y="300" width="120" height="200" as="alternateBounds" />
          </mxGeometry>
        </mxCell>
        <mxCell id="4pbOTyRcawZPrNXxyi4A-20" value="" style="dashed=0;align=center;fontSize=12;shape=rect;fillColor=#ffffff;strokeColor=#cccccc;shadow=1;" vertex="1" parent="4pbOTyRcawZPrNXxyi4A-19">
          <mxGeometry x="10" y="35" width="100" height="150" as="geometry" />
        </mxCell>
        <mxCell id="4pbOTyRcawZPrNXxyi4A-21" value="" style="shape=rect;fontColor=#000000;verticalAlign=middle;spacingLeft=13;fontSize=14;strokeColor=#cccccc;align=left;resizeWidth=1;whiteSpace=wrap;html=1;" vertex="1" parent="4pbOTyRcawZPrNXxyi4A-20">
          <mxGeometry width="100" height="40" relative="1" as="geometry" />
        </mxCell>
        <mxCell id="4pbOTyRcawZPrNXxyi4A-22" value="" style="dashed=0;html=1;shape=mxgraph.gmdl.triangle;fillColor=#cccccc;strokeColor=none;fontSize=16;" vertex="1" parent="4pbOTyRcawZPrNXxyi4A-21">
          <mxGeometry x="1" y="0.5" width="10" height="5" relative="1" as="geometry">
            <mxPoint x="-25" y="-2.5" as="offset" />
          </mxGeometry>
        </mxCell>
        <mxCell id="4pbOTyRcawZPrNXxyi4A-23" value="Game 1" style="shape=rect;align=left;fontColor=#000000;verticalAlign=middle;spacingLeft=13;fontSize=14;fillColor=#eeeeee;strokeColor=none;resizeWidth=1;whiteSpace=wrap;html=1;" vertex="1" parent="4pbOTyRcawZPrNXxyi4A-20">
          <mxGeometry width="100" height="30" relative="1" as="geometry">
            <mxPoint y="50" as="offset" />
          </mxGeometry>
        </mxCell>
        <mxCell id="4pbOTyRcawZPrNXxyi4A-24" value="Game 2" style="text;fontColor=#000000;verticalAlign=middle;spacingLeft=13;fontSize=16;resizeWidth=1;whiteSpace=wrap;html=1;" vertex="1" parent="4pbOTyRcawZPrNXxyi4A-20">
          <mxGeometry width="100" height="30" relative="1" as="geometry">
            <mxPoint y="80" as="offset" />
          </mxGeometry>
        </mxCell>
        <mxCell id="4pbOTyRcawZPrNXxyi4A-25" value="Game 3" style="text;fontColor=#000000;verticalAlign=middle;spacingLeft=13;fontSize=16;resizeWidth=1;whiteSpace=wrap;html=1;" vertex="1" parent="4pbOTyRcawZPrNXxyi4A-20">
          <mxGeometry width="100" height="30" relative="1" as="geometry">
            <mxPoint y="110" as="offset" />
          </mxGeometry>
        </mxCell>
        <mxCell id="4pbOTyRcawZPrNXxyi4A-26" value="Select Game" style="swimlane;fontSize=16;startSize=30;" vertex="1" collapsed="1" parent="wR23DULMvl6Wury1VvuS-0">
          <mxGeometry x="390" y="455" width="120" height="30" as="geometry">
            <mxRectangle x="270" y="690" width="120" height="200" as="alternateBounds" />
          </mxGeometry>
        </mxCell>
        <mxCell id="4pbOTyRcawZPrNXxyi4A-27" value="" style="dashed=0;align=center;fontSize=12;shape=rect;fillColor=#ffffff;strokeColor=#cccccc;shadow=1;" vertex="1" parent="4pbOTyRcawZPrNXxyi4A-26">
          <mxGeometry x="10" y="35" width="100" height="150" as="geometry" />
        </mxCell>
        <mxCell id="4pbOTyRcawZPrNXxyi4A-28" value="" style="shape=rect;fontColor=#000000;verticalAlign=middle;spacingLeft=13;fontSize=14;strokeColor=#cccccc;align=left;resizeWidth=1;whiteSpace=wrap;html=1;" vertex="1" parent="4pbOTyRcawZPrNXxyi4A-27">
          <mxGeometry width="100" height="40" relative="1" as="geometry" />
        </mxCell>
        <mxCell id="4pbOTyRcawZPrNXxyi4A-29" value="" style="dashed=0;html=1;shape=mxgraph.gmdl.triangle;fillColor=#cccccc;strokeColor=none;fontSize=16;" vertex="1" parent="4pbOTyRcawZPrNXxyi4A-28">
          <mxGeometry x="1" y="0.5" width="10" height="5" relative="1" as="geometry">
            <mxPoint x="-25" y="-2.5" as="offset" />
          </mxGeometry>
        </mxCell>
        <mxCell id="4pbOTyRcawZPrNXxyi4A-30" value="Game 1" style="shape=rect;align=left;fontColor=#000000;verticalAlign=middle;spacingLeft=13;fontSize=14;fillColor=#eeeeee;strokeColor=none;resizeWidth=1;whiteSpace=wrap;html=1;" vertex="1" parent="4pbOTyRcawZPrNXxyi4A-27">
          <mxGeometry width="100" height="30" relative="1" as="geometry">
            <mxPoint y="50" as="offset" />
          </mxGeometry>
        </mxCell>
        <mxCell id="4pbOTyRcawZPrNXxyi4A-31" value="Game 2" style="text;fontColor=#000000;verticalAlign=middle;spacingLeft=13;fontSize=16;resizeWidth=1;whiteSpace=wrap;html=1;" vertex="1" parent="4pbOTyRcawZPrNXxyi4A-27">
          <mxGeometry width="100" height="30" relative="1" as="geometry">
            <mxPoint y="80" as="offset" />
          </mxGeometry>
        </mxCell>
        <mxCell id="4pbOTyRcawZPrNXxyi4A-32" value="Game 3" style="text;fontColor=#000000;verticalAlign=middle;spacingLeft=13;fontSize=16;resizeWidth=1;whiteSpace=wrap;html=1;" vertex="1" parent="4pbOTyRcawZPrNXxyi4A-27">
          <mxGeometry width="100" height="30" relative="1" as="geometry">
            <mxPoint y="110" as="offset" />
          </mxGeometry>
        </mxCell>
        <mxCell id="4pbOTyRcawZPrNXxyi4A-35" value="" style="group" vertex="1" connectable="0" parent="wR23DULMvl6Wury1VvuS-0">
          <mxGeometry x="20" y="5" width="150" height="65" as="geometry" />
        </mxCell>
        <mxCell id="4pbOTyRcawZPrNXxyi4A-33" value="Audio Question" style="text;strokeColor=none;fillColor=none;html=1;align=center;verticalAlign=middle;whiteSpace=wrap;rounded=0;fontSize=16;" vertex="1" parent="4pbOTyRcawZPrNXxyi4A-35">
          <mxGeometry width="140" height="30" as="geometry" />
        </mxCell>
        <mxCell id="4pbOTyRcawZPrNXxyi4A-34" value="" style="html=1;whiteSpace=wrap;strokeColor=none;fillColor=#0079D6;labelPosition=center;verticalLabelPosition=middle;verticalAlign=top;align=center;fontSize=12;outlineConnect=0;spacingTop=-6;fontColor=#FFFFFF;sketch=0;shape=mxgraph.sitemap.audio;" vertex="1" parent="4pbOTyRcawZPrNXxyi4A-35">
          <mxGeometry y="30" width="150" height="35" as="geometry" />
        </mxCell>
        <mxCell id="4pbOTyRcawZPrNXxyi4A-43" value="" style="group" vertex="1" connectable="0" parent="wR23DULMvl6Wury1VvuS-0">
          <mxGeometry x="20" y="147.5" width="150" height="65" as="geometry" />
        </mxCell>
        <mxCell id="4pbOTyRcawZPrNXxyi4A-44" value="Audio Question" style="text;strokeColor=none;fillColor=none;html=1;align=center;verticalAlign=middle;whiteSpace=wrap;rounded=0;fontSize=16;" vertex="1" parent="4pbOTyRcawZPrNXxyi4A-43">
          <mxGeometry width="140" height="30" as="geometry" />
        </mxCell>
        <mxCell id="4pbOTyRcawZPrNXxyi4A-45" value="" style="html=1;whiteSpace=wrap;strokeColor=none;fillColor=#0079D6;labelPosition=center;verticalLabelPosition=middle;verticalAlign=top;align=center;fontSize=12;outlineConnect=0;spacingTop=-6;fontColor=#FFFFFF;sketch=0;shape=mxgraph.sitemap.audio;" vertex="1" parent="4pbOTyRcawZPrNXxyi4A-43">
          <mxGeometry y="30" width="150" height="35" as="geometry" />
        </mxCell>
        <mxCell id="4pbOTyRcawZPrNXxyi4A-46" value="" style="group" vertex="1" connectable="0" parent="wR23DULMvl6Wury1VvuS-0">
          <mxGeometry x="20" y="215" width="150" height="65" as="geometry" />
        </mxCell>
        <mxCell id="4pbOTyRcawZPrNXxyi4A-47" value="Audio Question" style="text;strokeColor=none;fillColor=none;html=1;align=center;verticalAlign=middle;whiteSpace=wrap;rounded=0;fontSize=16;" vertex="1" parent="4pbOTyRcawZPrNXxyi4A-46">
          <mxGeometry width="140" height="30" as="geometry" />
        </mxCell>
        <mxCell id="4pbOTyRcawZPrNXxyi4A-48" value="" style="html=1;whiteSpace=wrap;strokeColor=none;fillColor=#0079D6;labelPosition=center;verticalLabelPosition=middle;verticalAlign=top;align=center;fontSize=12;outlineConnect=0;spacingTop=-6;fontColor=#FFFFFF;sketch=0;shape=mxgraph.sitemap.audio;" vertex="1" parent="4pbOTyRcawZPrNXxyi4A-46">
          <mxGeometry y="30" width="150" height="35" as="geometry" />
        </mxCell>
        <mxCell id="4pbOTyRcawZPrNXxyi4A-49" value="" style="group" vertex="1" connectable="0" parent="wR23DULMvl6Wury1VvuS-0">
          <mxGeometry x="20" y="365" width="150" height="65" as="geometry" />
        </mxCell>
        <mxCell id="4pbOTyRcawZPrNXxyi4A-50" value="Audio Question" style="text;strokeColor=none;fillColor=none;html=1;align=center;verticalAlign=middle;whiteSpace=wrap;rounded=0;fontSize=16;" vertex="1" parent="4pbOTyRcawZPrNXxyi4A-49">
          <mxGeometry width="140" height="30" as="geometry" />
        </mxCell>
        <mxCell id="4pbOTyRcawZPrNXxyi4A-51" value="" style="html=1;whiteSpace=wrap;strokeColor=none;fillColor=#0079D6;labelPosition=center;verticalLabelPosition=middle;verticalAlign=top;align=center;fontSize=12;outlineConnect=0;spacingTop=-6;fontColor=#FFFFFF;sketch=0;shape=mxgraph.sitemap.audio;" vertex="1" parent="4pbOTyRcawZPrNXxyi4A-49">
          <mxGeometry y="30" width="150" height="35" as="geometry" />
        </mxCell>
        <mxCell id="4pbOTyRcawZPrNXxyi4A-53" value="" style="group" vertex="1" connectable="0" parent="wR23DULMvl6Wury1VvuS-0">
          <mxGeometry x="20" y="435" width="150" height="65" as="geometry" />
        </mxCell>
        <mxCell id="4pbOTyRcawZPrNXxyi4A-54" value="Audio Question" style="text;strokeColor=none;fillColor=none;html=1;align=center;verticalAlign=middle;whiteSpace=wrap;rounded=0;fontSize=16;" vertex="1" parent="4pbOTyRcawZPrNXxyi4A-53">
          <mxGeometry width="140" height="30" as="geometry" />
        </mxCell>
        <mxCell id="4pbOTyRcawZPrNXxyi4A-55" value="" style="html=1;whiteSpace=wrap;strokeColor=none;fillColor=#0079D6;labelPosition=center;verticalLabelPosition=middle;verticalAlign=top;align=center;fontSize=12;outlineConnect=0;spacingTop=-6;fontColor=#FFFFFF;sketch=0;shape=mxgraph.sitemap.audio;" vertex="1" parent="4pbOTyRcawZPrNXxyi4A-53">
          <mxGeometry y="30" width="150" height="35" as="geometry" />
        </mxCell>
        <mxCell id="wR23DULMvl6Wury1VvuS-1" value="Submit Answers" style="labelPosition=center;verticalLabelPosition=middle;align=center;html=1;shape=mxgraph.basic.shaded_button;dx=10;fillColor=#E6E6E6;strokeColor=none;whiteSpace=wrap;fontSize=16;" vertex="1" parent="g_UH4R2nsFCkR0BCganD-1">
          <mxGeometry x="60" y="870" width="190" height="60" as="geometry" />
        </mxCell>
        <mxCell id="wR23DULMvl6Wury1VvuS-2" value="an alert telling the user how many where correct that changes colours" style="html=1;shadow=0;dashed=0;shape=mxgraph.bootstrap.rrect;rSize=5;strokeColor=#FDFDFE;strokeWidth=1;fillColor=#FEFEFE;fontColor=#818182;whiteSpace=wrap;align=left;verticalAlign=middle;spacingLeft=10;fontSize=16;" vertex="1" parent="g_UH4R2nsFCkR0BCganD-1">
          <mxGeometry x="40" y="150" width="800" height="40" as="geometry" />
        </mxCell>
        <mxCell id="wR23DULMvl6Wury1VvuS-3" value="either red Fail or green Success as the message" style="rounded=0;whiteSpace=wrap;html=1;fontSize=16;" vertex="1" parent="g_UH4R2nsFCkR0BCganD-1">
          <mxGeometry x="130" y="970" width="160" height="80" as="geometry" />
        </mxCell>
      </root>
    </mxGraphModel>
  </diagram>
  <diagram name="Location Quiz" id="2YKN2S3CJO18Mvzjc60x">
    <mxGraphModel dx="832" dy="559" grid="1" gridSize="10" guides="1" tooltips="1" connect="1" arrows="1" fold="1" page="1" pageScale="1" pageWidth="1100" pageHeight="850" background="none" math="0" shadow="0">
      <root>
        <mxCell id="73-TFVr9mzpakRHUqfSb-0" />
        <mxCell id="73-TFVr9mzpakRHUqfSb-1" parent="73-TFVr9mzpakRHUqfSb-0" />
        <mxCell id="73-TFVr9mzpakRHUqfSb-11" value="" style="shape=table;startSize=0;container=1;collapsible=0;childLayout=tableLayout;fontSize=16;" vertex="1" parent="73-TFVr9mzpakRHUqfSb-1">
          <mxGeometry x="60" y="280" width="870" height="719" as="geometry" />
        </mxCell>
        <mxCell id="73-TFVr9mzpakRHUqfSb-12" value="" style="shape=tableRow;horizontal=0;startSize=0;swimlaneHead=0;swimlaneBody=0;strokeColor=inherit;top=0;left=0;bottom=0;right=0;collapsible=0;dropTarget=0;fillColor=none;points=[[0,0.5],[1,0.5]];portConstraint=eastwest;fontSize=16;" vertex="1" parent="73-TFVr9mzpakRHUqfSb-11">
          <mxGeometry width="870" height="72" as="geometry" />
        </mxCell>
        <mxCell id="73-TFVr9mzpakRHUqfSb-13" value="" style="shape=partialRectangle;html=1;whiteSpace=wrap;connectable=0;strokeColor=inherit;overflow=hidden;fillColor=none;top=0;left=0;bottom=0;right=0;pointerEvents=1;fontSize=16;" vertex="1" parent="73-TFVr9mzpakRHUqfSb-12">
          <mxGeometry width="310" height="72" as="geometry">
            <mxRectangle width="310" height="72" as="alternateBounds" />
          </mxGeometry>
        </mxCell>
        <mxCell id="73-TFVr9mzpakRHUqfSb-14" value="" style="shape=partialRectangle;html=1;whiteSpace=wrap;connectable=0;strokeColor=inherit;overflow=hidden;fillColor=none;top=0;left=0;bottom=0;right=0;pointerEvents=1;fontSize=16;" vertex="1" parent="73-TFVr9mzpakRHUqfSb-12">
          <mxGeometry x="310" width="280" height="72" as="geometry">
            <mxRectangle width="280" height="72" as="alternateBounds" />
          </mxGeometry>
        </mxCell>
        <mxCell id="zkQPDdFKEto7Fyoru9cs-3" style="shape=partialRectangle;html=1;whiteSpace=wrap;connectable=0;strokeColor=inherit;overflow=hidden;fillColor=none;top=0;left=0;bottom=0;right=0;pointerEvents=1;fontSize=16;" vertex="1" parent="73-TFVr9mzpakRHUqfSb-12">
          <mxGeometry x="590" width="280" height="72" as="geometry">
            <mxRectangle width="280" height="72" as="alternateBounds" />
          </mxGeometry>
        </mxCell>
        <mxCell id="73-TFVr9mzpakRHUqfSb-15" value="" style="shape=tableRow;horizontal=0;startSize=0;swimlaneHead=0;swimlaneBody=0;strokeColor=inherit;top=0;left=0;bottom=0;right=0;collapsible=0;dropTarget=0;fillColor=none;points=[[0,0.5],[1,0.5]];portConstraint=eastwest;fontSize=16;" vertex="1" parent="73-TFVr9mzpakRHUqfSb-11">
          <mxGeometry y="72" width="870" height="72" as="geometry" />
        </mxCell>
        <mxCell id="73-TFVr9mzpakRHUqfSb-16" value="" style="shape=partialRectangle;html=1;whiteSpace=wrap;connectable=0;strokeColor=inherit;overflow=hidden;fillColor=none;top=0;left=0;bottom=0;right=0;pointerEvents=1;fontSize=16;" vertex="1" parent="73-TFVr9mzpakRHUqfSb-15">
          <mxGeometry width="310" height="72" as="geometry">
            <mxRectangle width="310" height="72" as="alternateBounds" />
          </mxGeometry>
        </mxCell>
        <mxCell id="73-TFVr9mzpakRHUqfSb-17" value="" style="shape=partialRectangle;html=1;whiteSpace=wrap;connectable=0;strokeColor=inherit;overflow=hidden;fillColor=none;top=0;left=0;bottom=0;right=0;pointerEvents=1;fontSize=16;" vertex="1" parent="73-TFVr9mzpakRHUqfSb-15">
          <mxGeometry x="310" width="280" height="72" as="geometry">
            <mxRectangle width="280" height="72" as="alternateBounds" />
          </mxGeometry>
        </mxCell>
        <mxCell id="zkQPDdFKEto7Fyoru9cs-4" style="shape=partialRectangle;html=1;whiteSpace=wrap;connectable=0;strokeColor=inherit;overflow=hidden;fillColor=none;top=0;left=0;bottom=0;right=0;pointerEvents=1;fontSize=16;" vertex="1" parent="73-TFVr9mzpakRHUqfSb-15">
          <mxGeometry x="590" width="280" height="72" as="geometry">
            <mxRectangle width="280" height="72" as="alternateBounds" />
          </mxGeometry>
        </mxCell>
        <mxCell id="73-TFVr9mzpakRHUqfSb-18" value="" style="shape=tableRow;horizontal=0;startSize=0;swimlaneHead=0;swimlaneBody=0;strokeColor=inherit;top=0;left=0;bottom=0;right=0;collapsible=0;dropTarget=0;fillColor=none;points=[[0,0.5],[1,0.5]];portConstraint=eastwest;fontSize=16;" vertex="1" parent="73-TFVr9mzpakRHUqfSb-11">
          <mxGeometry y="144" width="870" height="72" as="geometry" />
        </mxCell>
        <mxCell id="73-TFVr9mzpakRHUqfSb-19" value="" style="shape=partialRectangle;html=1;whiteSpace=wrap;connectable=0;strokeColor=inherit;overflow=hidden;fillColor=none;top=0;left=0;bottom=0;right=0;pointerEvents=1;fontSize=16;" vertex="1" parent="73-TFVr9mzpakRHUqfSb-18">
          <mxGeometry width="310" height="72" as="geometry">
            <mxRectangle width="310" height="72" as="alternateBounds" />
          </mxGeometry>
        </mxCell>
        <mxCell id="73-TFVr9mzpakRHUqfSb-20" value="" style="shape=partialRectangle;html=1;whiteSpace=wrap;connectable=0;strokeColor=inherit;overflow=hidden;fillColor=none;top=0;left=0;bottom=0;right=0;pointerEvents=1;fontSize=16;" vertex="1" parent="73-TFVr9mzpakRHUqfSb-18">
          <mxGeometry x="310" width="280" height="72" as="geometry">
            <mxRectangle width="280" height="72" as="alternateBounds" />
          </mxGeometry>
        </mxCell>
        <mxCell id="zkQPDdFKEto7Fyoru9cs-5" style="shape=partialRectangle;html=1;whiteSpace=wrap;connectable=0;strokeColor=inherit;overflow=hidden;fillColor=none;top=0;left=0;bottom=0;right=0;pointerEvents=1;fontSize=16;" vertex="1" parent="73-TFVr9mzpakRHUqfSb-18">
          <mxGeometry x="590" width="280" height="72" as="geometry">
            <mxRectangle width="280" height="72" as="alternateBounds" />
          </mxGeometry>
        </mxCell>
        <mxCell id="73-TFVr9mzpakRHUqfSb-21" value="" style="shape=tableRow;horizontal=0;startSize=0;swimlaneHead=0;swimlaneBody=0;strokeColor=inherit;top=0;left=0;bottom=0;right=0;collapsible=0;dropTarget=0;fillColor=none;points=[[0,0.5],[1,0.5]];portConstraint=eastwest;fontSize=16;" vertex="1" parent="73-TFVr9mzpakRHUqfSb-11">
          <mxGeometry y="216" width="870" height="72" as="geometry" />
        </mxCell>
        <mxCell id="73-TFVr9mzpakRHUqfSb-22" value="" style="shape=partialRectangle;html=1;whiteSpace=wrap;connectable=0;strokeColor=inherit;overflow=hidden;fillColor=none;top=0;left=0;bottom=0;right=0;pointerEvents=1;fontSize=16;" vertex="1" parent="73-TFVr9mzpakRHUqfSb-21">
          <mxGeometry width="310" height="72" as="geometry">
            <mxRectangle width="310" height="72" as="alternateBounds" />
          </mxGeometry>
        </mxCell>
        <mxCell id="73-TFVr9mzpakRHUqfSb-23" value="" style="shape=partialRectangle;html=1;whiteSpace=wrap;connectable=0;strokeColor=inherit;overflow=hidden;fillColor=none;top=0;left=0;bottom=0;right=0;pointerEvents=1;fontSize=16;" vertex="1" parent="73-TFVr9mzpakRHUqfSb-21">
          <mxGeometry x="310" width="280" height="72" as="geometry">
            <mxRectangle width="280" height="72" as="alternateBounds" />
          </mxGeometry>
        </mxCell>
        <mxCell id="zkQPDdFKEto7Fyoru9cs-6" style="shape=partialRectangle;html=1;whiteSpace=wrap;connectable=0;strokeColor=inherit;overflow=hidden;fillColor=none;top=0;left=0;bottom=0;right=0;pointerEvents=1;fontSize=16;" vertex="1" parent="73-TFVr9mzpakRHUqfSb-21">
          <mxGeometry x="590" width="280" height="72" as="geometry">
            <mxRectangle width="280" height="72" as="alternateBounds" />
          </mxGeometry>
        </mxCell>
        <mxCell id="73-TFVr9mzpakRHUqfSb-24" value="" style="shape=tableRow;horizontal=0;startSize=0;swimlaneHead=0;swimlaneBody=0;strokeColor=inherit;top=0;left=0;bottom=0;right=0;collapsible=0;dropTarget=0;fillColor=none;points=[[0,0.5],[1,0.5]];portConstraint=eastwest;fontSize=16;" vertex="1" parent="73-TFVr9mzpakRHUqfSb-11">
          <mxGeometry y="288" width="870" height="71" as="geometry" />
        </mxCell>
        <mxCell id="73-TFVr9mzpakRHUqfSb-25" value="" style="shape=partialRectangle;html=1;whiteSpace=wrap;connectable=0;strokeColor=inherit;overflow=hidden;fillColor=none;top=0;left=0;bottom=0;right=0;pointerEvents=1;fontSize=16;" vertex="1" parent="73-TFVr9mzpakRHUqfSb-24">
          <mxGeometry width="310" height="71" as="geometry">
            <mxRectangle width="310" height="71" as="alternateBounds" />
          </mxGeometry>
        </mxCell>
        <mxCell id="73-TFVr9mzpakRHUqfSb-26" value="" style="shape=partialRectangle;html=1;whiteSpace=wrap;connectable=0;strokeColor=inherit;overflow=hidden;fillColor=none;top=0;left=0;bottom=0;right=0;pointerEvents=1;fontSize=16;" vertex="1" parent="73-TFVr9mzpakRHUqfSb-24">
          <mxGeometry x="310" width="280" height="71" as="geometry">
            <mxRectangle width="280" height="71" as="alternateBounds" />
          </mxGeometry>
        </mxCell>
        <mxCell id="zkQPDdFKEto7Fyoru9cs-7" style="shape=partialRectangle;html=1;whiteSpace=wrap;connectable=0;strokeColor=inherit;overflow=hidden;fillColor=none;top=0;left=0;bottom=0;right=0;pointerEvents=1;fontSize=16;" vertex="1" parent="73-TFVr9mzpakRHUqfSb-24">
          <mxGeometry x="590" width="280" height="71" as="geometry">
            <mxRectangle width="280" height="71" as="alternateBounds" />
          </mxGeometry>
        </mxCell>
        <mxCell id="73-TFVr9mzpakRHUqfSb-27" value="" style="shape=tableRow;horizontal=0;startSize=0;swimlaneHead=0;swimlaneBody=0;strokeColor=inherit;top=0;left=0;bottom=0;right=0;collapsible=0;dropTarget=0;fillColor=none;points=[[0,0.5],[1,0.5]];portConstraint=eastwest;fontSize=16;" vertex="1" parent="73-TFVr9mzpakRHUqfSb-11">
          <mxGeometry y="359" width="870" height="72" as="geometry" />
        </mxCell>
        <mxCell id="73-TFVr9mzpakRHUqfSb-28" value="" style="shape=partialRectangle;html=1;whiteSpace=wrap;connectable=0;strokeColor=inherit;overflow=hidden;fillColor=none;top=0;left=0;bottom=0;right=0;pointerEvents=1;fontSize=16;" vertex="1" parent="73-TFVr9mzpakRHUqfSb-27">
          <mxGeometry width="310" height="72" as="geometry">
            <mxRectangle width="310" height="72" as="alternateBounds" />
          </mxGeometry>
        </mxCell>
        <mxCell id="73-TFVr9mzpakRHUqfSb-29" value="" style="shape=partialRectangle;html=1;whiteSpace=wrap;connectable=0;strokeColor=inherit;overflow=hidden;fillColor=none;top=0;left=0;bottom=0;right=0;pointerEvents=1;fontSize=16;" vertex="1" parent="73-TFVr9mzpakRHUqfSb-27">
          <mxGeometry x="310" width="280" height="72" as="geometry">
            <mxRectangle width="280" height="72" as="alternateBounds" />
          </mxGeometry>
        </mxCell>
        <mxCell id="zkQPDdFKEto7Fyoru9cs-8" style="shape=partialRectangle;html=1;whiteSpace=wrap;connectable=0;strokeColor=inherit;overflow=hidden;fillColor=none;top=0;left=0;bottom=0;right=0;pointerEvents=1;fontSize=16;" vertex="1" parent="73-TFVr9mzpakRHUqfSb-27">
          <mxGeometry x="590" width="280" height="72" as="geometry">
            <mxRectangle width="280" height="72" as="alternateBounds" />
          </mxGeometry>
        </mxCell>
        <mxCell id="73-TFVr9mzpakRHUqfSb-30" value="" style="shape=tableRow;horizontal=0;startSize=0;swimlaneHead=0;swimlaneBody=0;strokeColor=inherit;top=0;left=0;bottom=0;right=0;collapsible=0;dropTarget=0;fillColor=none;points=[[0,0.5],[1,0.5]];portConstraint=eastwest;fontSize=16;" vertex="1" parent="73-TFVr9mzpakRHUqfSb-11">
          <mxGeometry y="431" width="870" height="72" as="geometry" />
        </mxCell>
        <mxCell id="73-TFVr9mzpakRHUqfSb-31" value="" style="shape=partialRectangle;html=1;whiteSpace=wrap;connectable=0;strokeColor=inherit;overflow=hidden;fillColor=none;top=0;left=0;bottom=0;right=0;pointerEvents=1;fontSize=16;" vertex="1" parent="73-TFVr9mzpakRHUqfSb-30">
          <mxGeometry width="310" height="72" as="geometry">
            <mxRectangle width="310" height="72" as="alternateBounds" />
          </mxGeometry>
        </mxCell>
        <mxCell id="73-TFVr9mzpakRHUqfSb-32" value="" style="shape=partialRectangle;html=1;whiteSpace=wrap;connectable=0;strokeColor=inherit;overflow=hidden;fillColor=none;top=0;left=0;bottom=0;right=0;pointerEvents=1;fontSize=16;" vertex="1" parent="73-TFVr9mzpakRHUqfSb-30">
          <mxGeometry x="310" width="280" height="72" as="geometry">
            <mxRectangle width="280" height="72" as="alternateBounds" />
          </mxGeometry>
        </mxCell>
        <mxCell id="zkQPDdFKEto7Fyoru9cs-9" style="shape=partialRectangle;html=1;whiteSpace=wrap;connectable=0;strokeColor=inherit;overflow=hidden;fillColor=none;top=0;left=0;bottom=0;right=0;pointerEvents=1;fontSize=16;" vertex="1" parent="73-TFVr9mzpakRHUqfSb-30">
          <mxGeometry x="590" width="280" height="72" as="geometry">
            <mxRectangle width="280" height="72" as="alternateBounds" />
          </mxGeometry>
        </mxCell>
        <mxCell id="73-TFVr9mzpakRHUqfSb-33" value="" style="shape=tableRow;horizontal=0;startSize=0;swimlaneHead=0;swimlaneBody=0;strokeColor=inherit;top=0;left=0;bottom=0;right=0;collapsible=0;dropTarget=0;fillColor=none;points=[[0,0.5],[1,0.5]];portConstraint=eastwest;fontSize=16;" vertex="1" parent="73-TFVr9mzpakRHUqfSb-11">
          <mxGeometry y="503" width="870" height="72" as="geometry" />
        </mxCell>
        <mxCell id="73-TFVr9mzpakRHUqfSb-34" value="" style="shape=partialRectangle;html=1;whiteSpace=wrap;connectable=0;strokeColor=inherit;overflow=hidden;fillColor=none;top=0;left=0;bottom=0;right=0;pointerEvents=1;fontSize=16;" vertex="1" parent="73-TFVr9mzpakRHUqfSb-33">
          <mxGeometry width="310" height="72" as="geometry">
            <mxRectangle width="310" height="72" as="alternateBounds" />
          </mxGeometry>
        </mxCell>
        <mxCell id="73-TFVr9mzpakRHUqfSb-35" value="" style="shape=partialRectangle;html=1;whiteSpace=wrap;connectable=0;strokeColor=inherit;overflow=hidden;fillColor=none;top=0;left=0;bottom=0;right=0;pointerEvents=1;fontSize=16;" vertex="1" parent="73-TFVr9mzpakRHUqfSb-33">
          <mxGeometry x="310" width="280" height="72" as="geometry">
            <mxRectangle width="280" height="72" as="alternateBounds" />
          </mxGeometry>
        </mxCell>
        <mxCell id="zkQPDdFKEto7Fyoru9cs-10" style="shape=partialRectangle;html=1;whiteSpace=wrap;connectable=0;strokeColor=inherit;overflow=hidden;fillColor=none;top=0;left=0;bottom=0;right=0;pointerEvents=1;fontSize=16;" vertex="1" parent="73-TFVr9mzpakRHUqfSb-33">
          <mxGeometry x="590" width="280" height="72" as="geometry">
            <mxRectangle width="280" height="72" as="alternateBounds" />
          </mxGeometry>
        </mxCell>
        <mxCell id="zkQPDdFKEto7Fyoru9cs-11" style="shape=tableRow;horizontal=0;startSize=0;swimlaneHead=0;swimlaneBody=0;strokeColor=inherit;top=0;left=0;bottom=0;right=0;collapsible=0;dropTarget=0;fillColor=none;points=[[0,0.5],[1,0.5]];portConstraint=eastwest;fontSize=16;" vertex="1" parent="73-TFVr9mzpakRHUqfSb-11">
          <mxGeometry y="575" width="870" height="72" as="geometry" />
        </mxCell>
        <mxCell id="zkQPDdFKEto7Fyoru9cs-12" style="shape=partialRectangle;html=1;whiteSpace=wrap;connectable=0;strokeColor=inherit;overflow=hidden;fillColor=none;top=0;left=0;bottom=0;right=0;pointerEvents=1;fontSize=16;" vertex="1" parent="zkQPDdFKEto7Fyoru9cs-11">
          <mxGeometry width="310" height="72" as="geometry">
            <mxRectangle width="310" height="72" as="alternateBounds" />
          </mxGeometry>
        </mxCell>
        <mxCell id="zkQPDdFKEto7Fyoru9cs-13" style="shape=partialRectangle;html=1;whiteSpace=wrap;connectable=0;strokeColor=inherit;overflow=hidden;fillColor=none;top=0;left=0;bottom=0;right=0;pointerEvents=1;fontSize=16;" vertex="1" parent="zkQPDdFKEto7Fyoru9cs-11">
          <mxGeometry x="310" width="280" height="72" as="geometry">
            <mxRectangle width="280" height="72" as="alternateBounds" />
          </mxGeometry>
        </mxCell>
        <mxCell id="zkQPDdFKEto7Fyoru9cs-14" style="shape=partialRectangle;html=1;whiteSpace=wrap;connectable=0;strokeColor=inherit;overflow=hidden;fillColor=none;top=0;left=0;bottom=0;right=0;pointerEvents=1;fontSize=16;" vertex="1" parent="zkQPDdFKEto7Fyoru9cs-11">
          <mxGeometry x="590" width="280" height="72" as="geometry">
            <mxRectangle width="280" height="72" as="alternateBounds" />
          </mxGeometry>
        </mxCell>
        <mxCell id="zkQPDdFKEto7Fyoru9cs-15" style="shape=tableRow;horizontal=0;startSize=0;swimlaneHead=0;swimlaneBody=0;strokeColor=inherit;top=0;left=0;bottom=0;right=0;collapsible=0;dropTarget=0;fillColor=none;points=[[0,0.5],[1,0.5]];portConstraint=eastwest;fontSize=16;" vertex="1" parent="73-TFVr9mzpakRHUqfSb-11">
          <mxGeometry y="647" width="870" height="72" as="geometry" />
        </mxCell>
        <mxCell id="zkQPDdFKEto7Fyoru9cs-16" style="shape=partialRectangle;html=1;whiteSpace=wrap;connectable=0;strokeColor=inherit;overflow=hidden;fillColor=none;top=0;left=0;bottom=0;right=0;pointerEvents=1;fontSize=16;" vertex="1" parent="zkQPDdFKEto7Fyoru9cs-15">
          <mxGeometry width="310" height="72" as="geometry">
            <mxRectangle width="310" height="72" as="alternateBounds" />
          </mxGeometry>
        </mxCell>
        <mxCell id="zkQPDdFKEto7Fyoru9cs-17" style="shape=partialRectangle;html=1;whiteSpace=wrap;connectable=0;strokeColor=inherit;overflow=hidden;fillColor=none;top=0;left=0;bottom=0;right=0;pointerEvents=1;fontSize=16;" vertex="1" parent="zkQPDdFKEto7Fyoru9cs-15">
          <mxGeometry x="310" width="280" height="72" as="geometry">
            <mxRectangle width="280" height="72" as="alternateBounds" />
          </mxGeometry>
        </mxCell>
        <mxCell id="zkQPDdFKEto7Fyoru9cs-18" style="shape=partialRectangle;html=1;whiteSpace=wrap;connectable=0;strokeColor=inherit;overflow=hidden;fillColor=none;top=0;left=0;bottom=0;right=0;pointerEvents=1;fontSize=16;" vertex="1" parent="zkQPDdFKEto7Fyoru9cs-15">
          <mxGeometry x="590" width="280" height="72" as="geometry">
            <mxRectangle width="280" height="72" as="alternateBounds" />
          </mxGeometry>
        </mxCell>
        <mxCell id="73-TFVr9mzpakRHUqfSb-2" value="" style="rounded=0;whiteSpace=wrap;html=1;fontSize=16;" vertex="1" parent="73-TFVr9mzpakRHUqfSb-1">
          <mxGeometry x="30" y="30" width="1050" height="110" as="geometry" />
        </mxCell>
        <mxCell id="73-TFVr9mzpakRHUqfSb-3" value="&lt;font&gt;QuizMaster&lt;br&gt;&lt;/font&gt;&lt;font style=&quot;font-size: 9px;&quot;&gt;(take to home)&lt;/font&gt;" style="whiteSpace=wrap;html=1;rounded=0;shadow=0;labelBackgroundColor=none;strokeWidth=1;fontFamily=Verdana;fontSize=28;align=center;comic=1;" vertex="1" parent="73-TFVr9mzpakRHUqfSb-1">
          <mxGeometry x="40" y="45" width="190" height="80" as="geometry" />
        </mxCell>
        <mxCell id="73-TFVr9mzpakRHUqfSb-4" value="Music quiz" style="rounded=0;whiteSpace=wrap;html=1;" vertex="1" parent="73-TFVr9mzpakRHUqfSb-1">
          <mxGeometry x="270" y="55" width="120" height="60" as="geometry" />
        </mxCell>
        <mxCell id="73-TFVr9mzpakRHUqfSb-5" value="location quiz&lt;br&gt;(disabled)" style="rounded=0;whiteSpace=wrap;html=1;" vertex="1" parent="73-TFVr9mzpakRHUqfSb-1">
          <mxGeometry x="430" y="55" width="120" height="60" as="geometry" />
        </mxCell>
        <mxCell id="73-TFVr9mzpakRHUqfSb-6" value="remove ads" style="rounded=0;whiteSpace=wrap;html=1;" vertex="1" parent="73-TFVr9mzpakRHUqfSb-1">
          <mxGeometry x="940" y="55" width="120" height="60" as="geometry" />
        </mxCell>
        <mxCell id="73-TFVr9mzpakRHUqfSb-7" value="trolley problem" style="rounded=0;whiteSpace=wrap;html=1;" vertex="1" parent="73-TFVr9mzpakRHUqfSb-1">
          <mxGeometry x="760" y="55" width="120" height="60" as="geometry" />
        </mxCell>
        <mxCell id="73-TFVr9mzpakRHUqfSb-8" value="TV show quiz" style="rounded=0;whiteSpace=wrap;html=1;" vertex="1" parent="73-TFVr9mzpakRHUqfSb-1">
          <mxGeometry x="590" y="55" width="120" height="60" as="geometry" />
        </mxCell>
        <mxCell id="73-TFVr9mzpakRHUqfSb-9" value="&lt;b&gt;About this page&lt;/b&gt;" style="rounded=0;whiteSpace=wrap;html=1;" vertex="1" parent="73-TFVr9mzpakRHUqfSb-1">
          <mxGeometry x="130" y="200" width="625" height="50" as="geometry" />
        </mxCell>
        <mxCell id="zkQPDdFKEto7Fyoru9cs-1" value="" style="edgeStyle=none;curved=1;rounded=0;orthogonalLoop=1;jettySize=auto;html=1;fontSize=12;startSize=8;endSize=8;" edge="1" parent="73-TFVr9mzpakRHUqfSb-1" source="73-TFVr9mzpakRHUqfSb-93" target="zkQPDdFKEto7Fyoru9cs-0">
          <mxGeometry relative="1" as="geometry" />
        </mxCell>
        <mxCell id="73-TFVr9mzpakRHUqfSb-93" value="Submit Answers&lt;br&gt;(first row)" style="labelPosition=center;verticalLabelPosition=middle;align=center;html=1;shape=mxgraph.basic.shaded_button;dx=10;fillColor=#E6E6E6;strokeColor=none;whiteSpace=wrap;fontSize=16;" vertex="1" parent="73-TFVr9mzpakRHUqfSb-1">
          <mxGeometry x="60" y="1030" width="190" height="60" as="geometry" />
        </mxCell>
        <mxCell id="73-TFVr9mzpakRHUqfSb-94" value="an alert telling the user how many where correct that changes colours" style="html=1;shadow=0;dashed=0;shape=mxgraph.bootstrap.rrect;rSize=5;strokeColor=#FDFDFE;strokeWidth=1;fillColor=#FEFEFE;fontColor=#818182;whiteSpace=wrap;align=left;verticalAlign=middle;spacingLeft=10;fontSize=16;" vertex="1" parent="73-TFVr9mzpakRHUqfSb-1">
          <mxGeometry x="40" y="150" width="800" height="40" as="geometry" />
        </mxCell>
        <mxCell id="73-TFVr9mzpakRHUqfSb-95" value="either red Fail or green Success as the message" style="rounded=0;whiteSpace=wrap;html=1;fontSize=16;" vertex="1" parent="73-TFVr9mzpakRHUqfSb-1">
          <mxGeometry x="90" y="1120" width="160" height="80" as="geometry" />
        </mxCell>
        <mxCell id="zkQPDdFKEto7Fyoru9cs-0" value="Submit Answers&lt;br&gt;(second row)" style="labelPosition=center;verticalLabelPosition=middle;align=center;html=1;shape=mxgraph.basic.shaded_button;dx=10;fillColor=#E6E6E6;strokeColor=none;whiteSpace=wrap;fontSize=16;" vertex="1" parent="73-TFVr9mzpakRHUqfSb-1">
          <mxGeometry x="370" y="1030" width="190" height="60" as="geometry" />
        </mxCell>
        <mxCell id="73-TFVr9mzpakRHUqfSb-36" value="" style="shape=image;html=1;verticalLabelPosition=bottom;verticalAlign=top;imageAspect=0;image=img/clipart/Gear_128x128.png" vertex="1" parent="73-TFVr9mzpakRHUqfSb-1">
          <mxGeometry x="100" y="355" width="65" height="60" as="geometry" />
        </mxCell>
        <mxCell id="73-TFVr9mzpakRHUqfSb-37" value="Ad 1" style="text;html=1;align=center;verticalAlign=middle;resizable=0;points=[];autosize=1;strokeColor=none;fillColor=none;" vertex="1" parent="73-TFVr9mzpakRHUqfSb-1">
          <mxGeometry x="170" y="370" width="50" height="30" as="geometry" />
        </mxCell>
        <mxCell id="73-TFVr9mzpakRHUqfSb-38" value="" style="shape=image;html=1;verticalLabelPosition=bottom;verticalAlign=top;imageAspect=0;image=img/clipart/Gear_128x128.png" vertex="1" parent="73-TFVr9mzpakRHUqfSb-1">
          <mxGeometry x="100" y="575" width="65" height="60" as="geometry" />
        </mxCell>
        <mxCell id="73-TFVr9mzpakRHUqfSb-39" value="" style="shape=image;html=1;verticalLabelPosition=bottom;verticalAlign=top;imageAspect=0;image=img/clipart/Gear_128x128.png" vertex="1" parent="73-TFVr9mzpakRHUqfSb-1">
          <mxGeometry x="112.5" y="785" width="65" height="60" as="geometry" />
        </mxCell>
        <mxCell id="73-TFVr9mzpakRHUqfSb-40" value="click here to remove ads" style="text;html=1;align=center;verticalAlign=middle;resizable=0;points=[];autosize=1;strokeColor=none;fillColor=none;" vertex="1" parent="73-TFVr9mzpakRHUqfSb-1">
          <mxGeometry x="70" y="825" width="150" height="30" as="geometry" />
        </mxCell>
        <mxCell id="73-TFVr9mzpakRHUqfSb-41" value="Ad 3" style="text;html=1;align=center;verticalAlign=middle;resizable=0;points=[];autosize=1;strokeColor=none;fillColor=none;" vertex="1" parent="73-TFVr9mzpakRHUqfSb-1">
          <mxGeometry x="190" y="795" width="50" height="30" as="geometry" />
        </mxCell>
        <mxCell id="73-TFVr9mzpakRHUqfSb-42" value="Ad 2" style="text;html=1;align=center;verticalAlign=middle;resizable=0;points=[];autosize=1;strokeColor=none;fillColor=none;" vertex="1" parent="73-TFVr9mzpakRHUqfSb-1">
          <mxGeometry x="190" y="590" width="50" height="30" as="geometry" />
        </mxCell>
        <mxCell id="zkQPDdFKEto7Fyoru9cs-21" value="" style="group" vertex="1" connectable="0" parent="73-TFVr9mzpakRHUqfSb-1">
          <mxGeometry x="100" y="280" width="140" height="70" as="geometry" />
        </mxCell>
        <mxCell id="73-TFVr9mzpakRHUqfSb-79" value="Location Question" style="text;strokeColor=none;fillColor=none;html=1;align=center;verticalAlign=middle;whiteSpace=wrap;rounded=0;fontSize=16;" vertex="1" parent="zkQPDdFKEto7Fyoru9cs-21">
          <mxGeometry width="140" height="30" as="geometry" />
        </mxCell>
        <mxCell id="zkQPDdFKEto7Fyoru9cs-19" value="" style="shape=image;html=1;verticalLabelPosition=bottom;verticalAlign=top;imageAspect=0;image=img/clipart/Gear_128x128.png" vertex="1" parent="zkQPDdFKEto7Fyoru9cs-21">
          <mxGeometry x="10" y="25" width="52.5" height="45" as="geometry" />
        </mxCell>
        <mxCell id="zkQPDdFKEto7Fyoru9cs-20" value="&lt;font size=&quot;1&quot;&gt;(clickable)&lt;/font&gt;" style="text;html=1;strokeColor=none;fillColor=none;align=center;verticalAlign=middle;whiteSpace=wrap;rounded=0;fontSize=16;" vertex="1" parent="zkQPDdFKEto7Fyoru9cs-21">
          <mxGeometry x="80" y="32.5" width="60" height="30" as="geometry" />
        </mxCell>
        <mxCell id="zkQPDdFKEto7Fyoru9cs-22" value="" style="group" vertex="1" connectable="0" parent="73-TFVr9mzpakRHUqfSb-1">
          <mxGeometry x="100" y="425" width="140" height="70" as="geometry" />
        </mxCell>
        <mxCell id="zkQPDdFKEto7Fyoru9cs-23" value="Location Question" style="text;strokeColor=none;fillColor=none;html=1;align=center;verticalAlign=middle;whiteSpace=wrap;rounded=0;fontSize=16;" vertex="1" parent="zkQPDdFKEto7Fyoru9cs-22">
          <mxGeometry width="140" height="30" as="geometry" />
        </mxCell>
        <mxCell id="zkQPDdFKEto7Fyoru9cs-24" value="" style="shape=image;html=1;verticalLabelPosition=bottom;verticalAlign=top;imageAspect=0;image=img/clipart/Gear_128x128.png" vertex="1" parent="zkQPDdFKEto7Fyoru9cs-22">
          <mxGeometry x="10" y="25" width="52.5" height="45" as="geometry" />
        </mxCell>
        <mxCell id="zkQPDdFKEto7Fyoru9cs-25" value="&lt;font size=&quot;1&quot;&gt;(clickable)&lt;/font&gt;" style="text;html=1;strokeColor=none;fillColor=none;align=center;verticalAlign=middle;whiteSpace=wrap;rounded=0;fontSize=16;" vertex="1" parent="zkQPDdFKEto7Fyoru9cs-22">
          <mxGeometry x="80" y="32.5" width="60" height="30" as="geometry" />
        </mxCell>
        <mxCell id="zkQPDdFKEto7Fyoru9cs-26" value="" style="group" vertex="1" connectable="0" parent="73-TFVr9mzpakRHUqfSb-1">
          <mxGeometry x="100" y="500" width="140" height="70" as="geometry" />
        </mxCell>
        <mxCell id="zkQPDdFKEto7Fyoru9cs-27" value="Location Question" style="text;strokeColor=none;fillColor=none;html=1;align=center;verticalAlign=middle;whiteSpace=wrap;rounded=0;fontSize=16;" vertex="1" parent="zkQPDdFKEto7Fyoru9cs-26">
          <mxGeometry width="140" height="30" as="geometry" />
        </mxCell>
        <mxCell id="zkQPDdFKEto7Fyoru9cs-28" value="" style="shape=image;html=1;verticalLabelPosition=bottom;verticalAlign=top;imageAspect=0;image=img/clipart/Gear_128x128.png" vertex="1" parent="zkQPDdFKEto7Fyoru9cs-26">
          <mxGeometry x="10" y="25" width="52.5" height="45" as="geometry" />
        </mxCell>
        <mxCell id="zkQPDdFKEto7Fyoru9cs-29" value="&lt;font size=&quot;1&quot;&gt;(clickable)&lt;/font&gt;" style="text;html=1;strokeColor=none;fillColor=none;align=center;verticalAlign=middle;whiteSpace=wrap;rounded=0;fontSize=16;" vertex="1" parent="zkQPDdFKEto7Fyoru9cs-26">
          <mxGeometry x="80" y="32.5" width="60" height="30" as="geometry" />
        </mxCell>
        <mxCell id="zkQPDdFKEto7Fyoru9cs-31" value="" style="group" vertex="1" connectable="0" parent="73-TFVr9mzpakRHUqfSb-1">
          <mxGeometry x="100" y="640" width="140" height="70" as="geometry" />
        </mxCell>
        <mxCell id="zkQPDdFKEto7Fyoru9cs-32" value="Location Question" style="text;strokeColor=none;fillColor=none;html=1;align=center;verticalAlign=middle;whiteSpace=wrap;rounded=0;fontSize=16;" vertex="1" parent="zkQPDdFKEto7Fyoru9cs-31">
          <mxGeometry width="140" height="30" as="geometry" />
        </mxCell>
        <mxCell id="zkQPDdFKEto7Fyoru9cs-33" value="" style="shape=image;html=1;verticalLabelPosition=bottom;verticalAlign=top;imageAspect=0;image=img/clipart/Gear_128x128.png" vertex="1" parent="zkQPDdFKEto7Fyoru9cs-31">
          <mxGeometry x="10" y="25" width="52.5" height="45" as="geometry" />
        </mxCell>
        <mxCell id="zkQPDdFKEto7Fyoru9cs-34" value="&lt;font size=&quot;1&quot;&gt;(clickable)&lt;/font&gt;" style="text;html=1;strokeColor=none;fillColor=none;align=center;verticalAlign=middle;whiteSpace=wrap;rounded=0;fontSize=16;" vertex="1" parent="zkQPDdFKEto7Fyoru9cs-31">
          <mxGeometry x="80" y="32.5" width="60" height="30" as="geometry" />
        </mxCell>
        <mxCell id="zkQPDdFKEto7Fyoru9cs-35" value="" style="group" vertex="1" connectable="0" parent="73-TFVr9mzpakRHUqfSb-1">
          <mxGeometry x="100" y="710" width="140" height="70" as="geometry" />
        </mxCell>
        <mxCell id="zkQPDdFKEto7Fyoru9cs-36" value="Location Question" style="text;strokeColor=none;fillColor=none;html=1;align=center;verticalAlign=middle;whiteSpace=wrap;rounded=0;fontSize=16;" vertex="1" parent="zkQPDdFKEto7Fyoru9cs-35">
          <mxGeometry width="140" height="30" as="geometry" />
        </mxCell>
        <mxCell id="zkQPDdFKEto7Fyoru9cs-37" value="" style="shape=image;html=1;verticalLabelPosition=bottom;verticalAlign=top;imageAspect=0;image=img/clipart/Gear_128x128.png" vertex="1" parent="zkQPDdFKEto7Fyoru9cs-35">
          <mxGeometry x="10" y="25" width="52.5" height="45" as="geometry" />
        </mxCell>
        <mxCell id="zkQPDdFKEto7Fyoru9cs-38" value="&lt;font size=&quot;1&quot;&gt;(clickable)&lt;/font&gt;" style="text;html=1;strokeColor=none;fillColor=none;align=center;verticalAlign=middle;whiteSpace=wrap;rounded=0;fontSize=16;" vertex="1" parent="zkQPDdFKEto7Fyoru9cs-35">
          <mxGeometry x="80" y="32.5" width="60" height="30" as="geometry" />
        </mxCell>
        <mxCell id="zkQPDdFKEto7Fyoru9cs-39" value="" style="group" vertex="1" connectable="0" parent="73-TFVr9mzpakRHUqfSb-1">
          <mxGeometry x="100" y="860" width="140" height="140" as="geometry" />
        </mxCell>
        <mxCell id="zkQPDdFKEto7Fyoru9cs-40" value="Location Question" style="text;strokeColor=none;fillColor=none;html=1;align=center;verticalAlign=middle;whiteSpace=wrap;rounded=0;fontSize=16;" vertex="1" parent="zkQPDdFKEto7Fyoru9cs-39">
          <mxGeometry width="140" height="30" as="geometry" />
        </mxCell>
        <mxCell id="zkQPDdFKEto7Fyoru9cs-41" value="" style="shape=image;html=1;verticalLabelPosition=bottom;verticalAlign=top;imageAspect=0;image=img/clipart/Gear_128x128.png" vertex="1" parent="zkQPDdFKEto7Fyoru9cs-39">
          <mxGeometry x="10" y="25" width="52.5" height="45" as="geometry" />
        </mxCell>
        <mxCell id="zkQPDdFKEto7Fyoru9cs-42" value="&lt;font size=&quot;1&quot;&gt;(clickable)&lt;/font&gt;" style="text;html=1;strokeColor=none;fillColor=none;align=center;verticalAlign=middle;whiteSpace=wrap;rounded=0;fontSize=16;" vertex="1" parent="zkQPDdFKEto7Fyoru9cs-39">
          <mxGeometry x="80" y="32.5" width="60" height="30" as="geometry" />
        </mxCell>
        <mxCell id="zkQPDdFKEto7Fyoru9cs-43" value="" style="group" vertex="1" connectable="0" parent="zkQPDdFKEto7Fyoru9cs-39">
          <mxGeometry y="70" width="140" height="70" as="geometry" />
        </mxCell>
        <mxCell id="zkQPDdFKEto7Fyoru9cs-44" value="Location Question" style="text;strokeColor=none;fillColor=none;html=1;align=center;verticalAlign=middle;whiteSpace=wrap;rounded=0;fontSize=16;" vertex="1" parent="zkQPDdFKEto7Fyoru9cs-43">
          <mxGeometry width="140" height="30" as="geometry" />
        </mxCell>
        <mxCell id="zkQPDdFKEto7Fyoru9cs-45" value="" style="shape=image;html=1;verticalLabelPosition=bottom;verticalAlign=top;imageAspect=0;image=img/clipart/Gear_128x128.png" vertex="1" parent="zkQPDdFKEto7Fyoru9cs-43">
          <mxGeometry x="10" y="25" width="52.5" height="45" as="geometry" />
        </mxCell>
        <mxCell id="zkQPDdFKEto7Fyoru9cs-46" value="&lt;font size=&quot;1&quot;&gt;(clickable)&lt;/font&gt;" style="text;html=1;strokeColor=none;fillColor=none;align=center;verticalAlign=middle;whiteSpace=wrap;rounded=0;fontSize=16;" vertex="1" parent="zkQPDdFKEto7Fyoru9cs-43">
          <mxGeometry x="80" y="32.5" width="60" height="30" as="geometry" />
        </mxCell>
        <mxCell id="zkQPDdFKEto7Fyoru9cs-58" value="" style="endArrow=classic;html=1;rounded=0;fontSize=12;startSize=8;endSize=8;curved=1;entryX=0.879;entryY=-0.028;entryDx=0;entryDy=0;entryPerimeter=0;" edge="1" parent="73-TFVr9mzpakRHUqfSb-1" target="73-TFVr9mzpakRHUqfSb-12">
          <mxGeometry width="50" height="50" relative="1" as="geometry">
            <mxPoint x="860" y="230" as="sourcePoint" />
            <mxPoint x="840" y="230" as="targetPoint" />
          </mxGeometry>
        </mxCell>
        <mxCell id="zkQPDdFKEto7Fyoru9cs-59" value="Initialy&lt;br&gt;hidden column" style="text;strokeColor=none;fillColor=none;html=1;align=center;verticalAlign=middle;whiteSpace=wrap;rounded=0;fontSize=16;" vertex="1" parent="73-TFVr9mzpakRHUqfSb-1">
          <mxGeometry x="840" y="210" width="100" height="50" as="geometry" />
        </mxCell>
        <mxCell id="zkQPDdFKEto7Fyoru9cs-66" value="" style="group" vertex="1" connectable="0" parent="73-TFVr9mzpakRHUqfSb-1">
          <mxGeometry x="740" y="280" width="80" height="70" as="geometry" />
        </mxCell>
        <mxCell id="zkQPDdFKEto7Fyoru9cs-60" value="" style="html=1;shadow=0;dashed=0;shape=mxgraph.ios.rrect;rSize=3;strokeColor=#666666;fillColor=#ffffff;gradientColor=none;recursiveResize=0;fontSize=16;" vertex="1" parent="zkQPDdFKEto7Fyoru9cs-66">
          <mxGeometry x="4.444444444444445" y="21.875" width="71.11111111111111" height="48.125" as="geometry" />
        </mxCell>
        <mxCell id="zkQPDdFKEto7Fyoru9cs-61" value="Option 1" style="shape=ellipse;resizable=0;fillColor=#dddddd;align=left;spacingLeft=2;fontSize=8;fontColor=#666666;labelPosition=right;verticalLabelPosition=middle;verticalAlign=middle;spacingTop=3;html=1;" vertex="1" parent="zkQPDdFKEto7Fyoru9cs-60">
          <mxGeometry x="2.2222222222222223" y="3.0625" width="5" height="5" as="geometry" />
        </mxCell>
        <mxCell id="zkQPDdFKEto7Fyoru9cs-62" value="Option 2" style="shape=ellipse;resizable=0;fillColor=#dddddd;align=left;spacingLeft=2;fontSize=8;fontColor=#666666;labelPosition=right;verticalLabelPosition=middle;verticalAlign=middle;spacingTop=3;html=1;" vertex="1" parent="zkQPDdFKEto7Fyoru9cs-60">
          <mxGeometry x="2.2222222222222223" y="14" width="5" height="5" as="geometry" />
        </mxCell>
        <mxCell id="zkQPDdFKEto7Fyoru9cs-63" value="Option 3" style="shape=ellipse;resizable=0;fillColor=#444444;align=left;spacingLeft=2;fontSize=8;fontColor=#666666;labelPosition=right;verticalLabelPosition=middle;verticalAlign=middle;spacingTop=3;html=1;" vertex="1" parent="zkQPDdFKEto7Fyoru9cs-60">
          <mxGeometry x="2.2222222222222223" y="24.9375" width="5" height="5" as="geometry" />
        </mxCell>
        <mxCell id="zkQPDdFKEto7Fyoru9cs-64" value="Option 4" style="shape=ellipse;resizable=0;fillColor=#dddddd;align=left;spacingLeft=2;fontSize=8;fontColor=#666666;labelPosition=right;verticalLabelPosition=middle;verticalAlign=middle;spacingTop=3;html=1;" vertex="1" parent="zkQPDdFKEto7Fyoru9cs-60">
          <mxGeometry x="2.2222222222222223" y="35.875" width="5" height="5" as="geometry" />
        </mxCell>
        <mxCell id="zkQPDdFKEto7Fyoru9cs-65" value="Select City" style="text;html=1;strokeColor=none;fillColor=none;align=center;verticalAlign=middle;whiteSpace=wrap;rounded=0;fontSize=16;" vertex="1" parent="zkQPDdFKEto7Fyoru9cs-66">
          <mxGeometry width="80" height="26.25" as="geometry" />
        </mxCell>
        <mxCell id="zkQPDdFKEto7Fyoru9cs-69" value="" style="group" vertex="1" connectable="0" parent="73-TFVr9mzpakRHUqfSb-1">
          <mxGeometry x="440" y="290" width="105" height="55" as="geometry" />
        </mxCell>
        <mxCell id="zkQPDdFKEto7Fyoru9cs-67" value="" style="rounded=0;whiteSpace=wrap;html=1;fontSize=16;" vertex="1" parent="zkQPDdFKEto7Fyoru9cs-69">
          <mxGeometry y="30" width="105" height="25" as="geometry" />
        </mxCell>
        <mxCell id="zkQPDdFKEto7Fyoru9cs-68" value="Enter Country" style="text;html=1;strokeColor=none;fillColor=none;align=center;verticalAlign=middle;whiteSpace=wrap;rounded=0;fontSize=16;" vertex="1" parent="zkQPDdFKEto7Fyoru9cs-69">
          <mxGeometry width="105" height="30" as="geometry" />
        </mxCell>
        <mxCell id="zkQPDdFKEto7Fyoru9cs-77" value="" style="group" vertex="1" connectable="0" parent="73-TFVr9mzpakRHUqfSb-1">
          <mxGeometry x="740" y="425" width="80" height="70" as="geometry" />
        </mxCell>
        <mxCell id="zkQPDdFKEto7Fyoru9cs-78" value="" style="html=1;shadow=0;dashed=0;shape=mxgraph.ios.rrect;rSize=3;strokeColor=#666666;fillColor=#ffffff;gradientColor=none;recursiveResize=0;fontSize=16;" vertex="1" parent="zkQPDdFKEto7Fyoru9cs-77">
          <mxGeometry x="4.444444444444445" y="21.875" width="71.11111111111111" height="48.125" as="geometry" />
        </mxCell>
        <mxCell id="zkQPDdFKEto7Fyoru9cs-79" value="Option 1" style="shape=ellipse;resizable=0;fillColor=#dddddd;align=left;spacingLeft=2;fontSize=8;fontColor=#666666;labelPosition=right;verticalLabelPosition=middle;verticalAlign=middle;spacingTop=3;html=1;" vertex="1" parent="zkQPDdFKEto7Fyoru9cs-78">
          <mxGeometry x="2.2222222222222223" y="3.0625" width="5" height="5" as="geometry" />
        </mxCell>
        <mxCell id="zkQPDdFKEto7Fyoru9cs-80" value="Option 2" style="shape=ellipse;resizable=0;fillColor=#dddddd;align=left;spacingLeft=2;fontSize=8;fontColor=#666666;labelPosition=right;verticalLabelPosition=middle;verticalAlign=middle;spacingTop=3;html=1;" vertex="1" parent="zkQPDdFKEto7Fyoru9cs-78">
          <mxGeometry x="2.2222222222222223" y="14" width="5" height="5" as="geometry" />
        </mxCell>
        <mxCell id="zkQPDdFKEto7Fyoru9cs-81" value="Option 3" style="shape=ellipse;resizable=0;fillColor=#444444;align=left;spacingLeft=2;fontSize=8;fontColor=#666666;labelPosition=right;verticalLabelPosition=middle;verticalAlign=middle;spacingTop=3;html=1;" vertex="1" parent="zkQPDdFKEto7Fyoru9cs-78">
          <mxGeometry x="2.2222222222222223" y="24.9375" width="5" height="5" as="geometry" />
        </mxCell>
        <mxCell id="zkQPDdFKEto7Fyoru9cs-82" value="Option 4" style="shape=ellipse;resizable=0;fillColor=#dddddd;align=left;spacingLeft=2;fontSize=8;fontColor=#666666;labelPosition=right;verticalLabelPosition=middle;verticalAlign=middle;spacingTop=3;html=1;" vertex="1" parent="zkQPDdFKEto7Fyoru9cs-78">
          <mxGeometry x="2.2222222222222223" y="35.875" width="5" height="5" as="geometry" />
        </mxCell>
        <mxCell id="zkQPDdFKEto7Fyoru9cs-83" value="Select City" style="text;html=1;strokeColor=none;fillColor=none;align=center;verticalAlign=middle;whiteSpace=wrap;rounded=0;fontSize=16;" vertex="1" parent="zkQPDdFKEto7Fyoru9cs-77">
          <mxGeometry width="80" height="26.25" as="geometry" />
        </mxCell>
        <mxCell id="zkQPDdFKEto7Fyoru9cs-84" value="" style="group" vertex="1" connectable="0" parent="73-TFVr9mzpakRHUqfSb-1">
          <mxGeometry x="740" y="490" width="80" height="70" as="geometry" />
        </mxCell>
        <mxCell id="zkQPDdFKEto7Fyoru9cs-85" value="" style="html=1;shadow=0;dashed=0;shape=mxgraph.ios.rrect;rSize=3;strokeColor=#666666;fillColor=#ffffff;gradientColor=none;recursiveResize=0;fontSize=16;" vertex="1" parent="zkQPDdFKEto7Fyoru9cs-84">
          <mxGeometry x="4.444444444444445" y="21.875" width="71.11111111111111" height="48.125" as="geometry" />
        </mxCell>
        <mxCell id="zkQPDdFKEto7Fyoru9cs-86" value="Option 1" style="shape=ellipse;resizable=0;fillColor=#dddddd;align=left;spacingLeft=2;fontSize=8;fontColor=#666666;labelPosition=right;verticalLabelPosition=middle;verticalAlign=middle;spacingTop=3;html=1;" vertex="1" parent="zkQPDdFKEto7Fyoru9cs-85">
          <mxGeometry x="2.2222222222222223" y="3.0625" width="5" height="5" as="geometry" />
        </mxCell>
        <mxCell id="zkQPDdFKEto7Fyoru9cs-87" value="Option 2" style="shape=ellipse;resizable=0;fillColor=#dddddd;align=left;spacingLeft=2;fontSize=8;fontColor=#666666;labelPosition=right;verticalLabelPosition=middle;verticalAlign=middle;spacingTop=3;html=1;" vertex="1" parent="zkQPDdFKEto7Fyoru9cs-85">
          <mxGeometry x="2.2222222222222223" y="14" width="5" height="5" as="geometry" />
        </mxCell>
        <mxCell id="zkQPDdFKEto7Fyoru9cs-88" value="Option 3" style="shape=ellipse;resizable=0;fillColor=#444444;align=left;spacingLeft=2;fontSize=8;fontColor=#666666;labelPosition=right;verticalLabelPosition=middle;verticalAlign=middle;spacingTop=3;html=1;" vertex="1" parent="zkQPDdFKEto7Fyoru9cs-85">
          <mxGeometry x="2.2222222222222223" y="24.9375" width="5" height="5" as="geometry" />
        </mxCell>
        <mxCell id="zkQPDdFKEto7Fyoru9cs-89" value="Option 4" style="shape=ellipse;resizable=0;fillColor=#dddddd;align=left;spacingLeft=2;fontSize=8;fontColor=#666666;labelPosition=right;verticalLabelPosition=middle;verticalAlign=middle;spacingTop=3;html=1;" vertex="1" parent="zkQPDdFKEto7Fyoru9cs-85">
          <mxGeometry x="2.2222222222222223" y="35.875" width="5" height="5" as="geometry" />
        </mxCell>
        <mxCell id="zkQPDdFKEto7Fyoru9cs-90" value="Select City" style="text;html=1;strokeColor=none;fillColor=none;align=center;verticalAlign=middle;whiteSpace=wrap;rounded=0;fontSize=16;" vertex="1" parent="zkQPDdFKEto7Fyoru9cs-84">
          <mxGeometry width="80" height="26.25" as="geometry" />
        </mxCell>
        <mxCell id="zkQPDdFKEto7Fyoru9cs-98" value="" style="group" vertex="1" connectable="0" parent="73-TFVr9mzpakRHUqfSb-1">
          <mxGeometry x="740" y="640" width="80" height="70" as="geometry" />
        </mxCell>
        <mxCell id="zkQPDdFKEto7Fyoru9cs-99" value="" style="html=1;shadow=0;dashed=0;shape=mxgraph.ios.rrect;rSize=3;strokeColor=#666666;fillColor=#ffffff;gradientColor=none;recursiveResize=0;fontSize=16;" vertex="1" parent="zkQPDdFKEto7Fyoru9cs-98">
          <mxGeometry x="4.444444444444445" y="21.875" width="71.11111111111111" height="48.125" as="geometry" />
        </mxCell>
        <mxCell id="zkQPDdFKEto7Fyoru9cs-100" value="Option 1" style="shape=ellipse;resizable=0;fillColor=#dddddd;align=left;spacingLeft=2;fontSize=8;fontColor=#666666;labelPosition=right;verticalLabelPosition=middle;verticalAlign=middle;spacingTop=3;html=1;" vertex="1" parent="zkQPDdFKEto7Fyoru9cs-99">
          <mxGeometry x="2.2222222222222223" y="3.0625" width="5" height="5" as="geometry" />
        </mxCell>
        <mxCell id="zkQPDdFKEto7Fyoru9cs-101" value="Option 2" style="shape=ellipse;resizable=0;fillColor=#dddddd;align=left;spacingLeft=2;fontSize=8;fontColor=#666666;labelPosition=right;verticalLabelPosition=middle;verticalAlign=middle;spacingTop=3;html=1;" vertex="1" parent="zkQPDdFKEto7Fyoru9cs-99">
          <mxGeometry x="2.2222222222222223" y="14" width="5" height="5" as="geometry" />
        </mxCell>
        <mxCell id="zkQPDdFKEto7Fyoru9cs-102" value="Option 3" style="shape=ellipse;resizable=0;fillColor=#444444;align=left;spacingLeft=2;fontSize=8;fontColor=#666666;labelPosition=right;verticalLabelPosition=middle;verticalAlign=middle;spacingTop=3;html=1;" vertex="1" parent="zkQPDdFKEto7Fyoru9cs-99">
          <mxGeometry x="2.2222222222222223" y="24.9375" width="5" height="5" as="geometry" />
        </mxCell>
        <mxCell id="zkQPDdFKEto7Fyoru9cs-103" value="Option 4" style="shape=ellipse;resizable=0;fillColor=#dddddd;align=left;spacingLeft=2;fontSize=8;fontColor=#666666;labelPosition=right;verticalLabelPosition=middle;verticalAlign=middle;spacingTop=3;html=1;" vertex="1" parent="zkQPDdFKEto7Fyoru9cs-99">
          <mxGeometry x="2.2222222222222223" y="35.875" width="5" height="5" as="geometry" />
        </mxCell>
        <mxCell id="zkQPDdFKEto7Fyoru9cs-104" value="Select City" style="text;html=1;strokeColor=none;fillColor=none;align=center;verticalAlign=middle;whiteSpace=wrap;rounded=0;fontSize=16;" vertex="1" parent="zkQPDdFKEto7Fyoru9cs-98">
          <mxGeometry width="80" height="26.25" as="geometry" />
        </mxCell>
        <mxCell id="zkQPDdFKEto7Fyoru9cs-105" value="" style="group" vertex="1" connectable="0" parent="73-TFVr9mzpakRHUqfSb-1">
          <mxGeometry x="740" y="710" width="80" height="70" as="geometry" />
        </mxCell>
        <mxCell id="zkQPDdFKEto7Fyoru9cs-106" value="" style="html=1;shadow=0;dashed=0;shape=mxgraph.ios.rrect;rSize=3;strokeColor=#666666;fillColor=#ffffff;gradientColor=none;recursiveResize=0;fontSize=16;" vertex="1" parent="zkQPDdFKEto7Fyoru9cs-105">
          <mxGeometry x="4.444444444444445" y="21.875" width="71.11111111111111" height="48.125" as="geometry" />
        </mxCell>
        <mxCell id="zkQPDdFKEto7Fyoru9cs-107" value="Option 1" style="shape=ellipse;resizable=0;fillColor=#dddddd;align=left;spacingLeft=2;fontSize=8;fontColor=#666666;labelPosition=right;verticalLabelPosition=middle;verticalAlign=middle;spacingTop=3;html=1;" vertex="1" parent="zkQPDdFKEto7Fyoru9cs-106">
          <mxGeometry x="2.2222222222222223" y="3.0625" width="5" height="5" as="geometry" />
        </mxCell>
        <mxCell id="zkQPDdFKEto7Fyoru9cs-108" value="Option 2" style="shape=ellipse;resizable=0;fillColor=#dddddd;align=left;spacingLeft=2;fontSize=8;fontColor=#666666;labelPosition=right;verticalLabelPosition=middle;verticalAlign=middle;spacingTop=3;html=1;" vertex="1" parent="zkQPDdFKEto7Fyoru9cs-106">
          <mxGeometry x="2.2222222222222223" y="14" width="5" height="5" as="geometry" />
        </mxCell>
        <mxCell id="zkQPDdFKEto7Fyoru9cs-109" value="Option 3" style="shape=ellipse;resizable=0;fillColor=#444444;align=left;spacingLeft=2;fontSize=8;fontColor=#666666;labelPosition=right;verticalLabelPosition=middle;verticalAlign=middle;spacingTop=3;html=1;" vertex="1" parent="zkQPDdFKEto7Fyoru9cs-106">
          <mxGeometry x="2.2222222222222223" y="24.9375" width="5" height="5" as="geometry" />
        </mxCell>
        <mxCell id="zkQPDdFKEto7Fyoru9cs-110" value="Option 4" style="shape=ellipse;resizable=0;fillColor=#dddddd;align=left;spacingLeft=2;fontSize=8;fontColor=#666666;labelPosition=right;verticalLabelPosition=middle;verticalAlign=middle;spacingTop=3;html=1;" vertex="1" parent="zkQPDdFKEto7Fyoru9cs-106">
          <mxGeometry x="2.2222222222222223" y="35.875" width="5" height="5" as="geometry" />
        </mxCell>
        <mxCell id="zkQPDdFKEto7Fyoru9cs-111" value="Select City" style="text;html=1;strokeColor=none;fillColor=none;align=center;verticalAlign=middle;whiteSpace=wrap;rounded=0;fontSize=16;" vertex="1" parent="zkQPDdFKEto7Fyoru9cs-105">
          <mxGeometry width="80" height="26.25" as="geometry" />
        </mxCell>
        <mxCell id="zkQPDdFKEto7Fyoru9cs-119" value="" style="group" vertex="1" connectable="0" parent="73-TFVr9mzpakRHUqfSb-1">
          <mxGeometry x="740" y="850" width="80" height="150" as="geometry" />
        </mxCell>
        <mxCell id="zkQPDdFKEto7Fyoru9cs-120" value="" style="html=1;shadow=0;dashed=0;shape=mxgraph.ios.rrect;rSize=3;strokeColor=#666666;fillColor=#ffffff;gradientColor=none;recursiveResize=0;fontSize=16;" vertex="1" parent="zkQPDdFKEto7Fyoru9cs-119">
          <mxGeometry x="4.444444444444445" y="21.875" width="71.11111111111111" height="48.125" as="geometry" />
        </mxCell>
        <mxCell id="zkQPDdFKEto7Fyoru9cs-121" value="Option 1" style="shape=ellipse;resizable=0;fillColor=#dddddd;align=left;spacingLeft=2;fontSize=8;fontColor=#666666;labelPosition=right;verticalLabelPosition=middle;verticalAlign=middle;spacingTop=3;html=1;" vertex="1" parent="zkQPDdFKEto7Fyoru9cs-120">
          <mxGeometry x="2.2222222222222223" y="3.0625" width="5" height="5" as="geometry" />
        </mxCell>
        <mxCell id="zkQPDdFKEto7Fyoru9cs-122" value="Option 2" style="shape=ellipse;resizable=0;fillColor=#dddddd;align=left;spacingLeft=2;fontSize=8;fontColor=#666666;labelPosition=right;verticalLabelPosition=middle;verticalAlign=middle;spacingTop=3;html=1;" vertex="1" parent="zkQPDdFKEto7Fyoru9cs-120">
          <mxGeometry x="2.2222222222222223" y="14" width="5" height="5" as="geometry" />
        </mxCell>
        <mxCell id="zkQPDdFKEto7Fyoru9cs-123" value="Option 3" style="shape=ellipse;resizable=0;fillColor=#444444;align=left;spacingLeft=2;fontSize=8;fontColor=#666666;labelPosition=right;verticalLabelPosition=middle;verticalAlign=middle;spacingTop=3;html=1;" vertex="1" parent="zkQPDdFKEto7Fyoru9cs-120">
          <mxGeometry x="2.2222222222222223" y="24.9375" width="5" height="5" as="geometry" />
        </mxCell>
        <mxCell id="zkQPDdFKEto7Fyoru9cs-124" value="Option 4" style="shape=ellipse;resizable=0;fillColor=#dddddd;align=left;spacingLeft=2;fontSize=8;fontColor=#666666;labelPosition=right;verticalLabelPosition=middle;verticalAlign=middle;spacingTop=3;html=1;" vertex="1" parent="zkQPDdFKEto7Fyoru9cs-120">
          <mxGeometry x="2.2222222222222223" y="35.875" width="5" height="5" as="geometry" />
        </mxCell>
        <mxCell id="zkQPDdFKEto7Fyoru9cs-125" value="Select City" style="text;html=1;strokeColor=none;fillColor=none;align=center;verticalAlign=middle;whiteSpace=wrap;rounded=0;fontSize=16;" vertex="1" parent="zkQPDdFKEto7Fyoru9cs-119">
          <mxGeometry width="80" height="26.25" as="geometry" />
        </mxCell>
        <mxCell id="zkQPDdFKEto7Fyoru9cs-126" value="" style="group" vertex="1" connectable="0" parent="zkQPDdFKEto7Fyoru9cs-119">
          <mxGeometry y="80" width="80" height="70" as="geometry" />
        </mxCell>
        <mxCell id="zkQPDdFKEto7Fyoru9cs-127" value="" style="html=1;shadow=0;dashed=0;shape=mxgraph.ios.rrect;rSize=3;strokeColor=#666666;fillColor=#ffffff;gradientColor=none;recursiveResize=0;fontSize=16;" vertex="1" parent="zkQPDdFKEto7Fyoru9cs-126">
          <mxGeometry x="4.444444444444445" y="21.875" width="71.11111111111111" height="48.125" as="geometry" />
        </mxCell>
        <mxCell id="zkQPDdFKEto7Fyoru9cs-128" value="Option 1" style="shape=ellipse;resizable=0;fillColor=#dddddd;align=left;spacingLeft=2;fontSize=8;fontColor=#666666;labelPosition=right;verticalLabelPosition=middle;verticalAlign=middle;spacingTop=3;html=1;" vertex="1" parent="zkQPDdFKEto7Fyoru9cs-127">
          <mxGeometry x="2.2222222222222223" y="3.0625" width="5" height="5" as="geometry" />
        </mxCell>
        <mxCell id="zkQPDdFKEto7Fyoru9cs-129" value="Option 2" style="shape=ellipse;resizable=0;fillColor=#dddddd;align=left;spacingLeft=2;fontSize=8;fontColor=#666666;labelPosition=right;verticalLabelPosition=middle;verticalAlign=middle;spacingTop=3;html=1;" vertex="1" parent="zkQPDdFKEto7Fyoru9cs-127">
          <mxGeometry x="2.2222222222222223" y="14" width="5" height="5" as="geometry" />
        </mxCell>
        <mxCell id="zkQPDdFKEto7Fyoru9cs-130" value="Option 3" style="shape=ellipse;resizable=0;fillColor=#444444;align=left;spacingLeft=2;fontSize=8;fontColor=#666666;labelPosition=right;verticalLabelPosition=middle;verticalAlign=middle;spacingTop=3;html=1;" vertex="1" parent="zkQPDdFKEto7Fyoru9cs-127">
          <mxGeometry x="2.2222222222222223" y="24.9375" width="5" height="5" as="geometry" />
        </mxCell>
        <mxCell id="zkQPDdFKEto7Fyoru9cs-131" value="Option 4" style="shape=ellipse;resizable=0;fillColor=#dddddd;align=left;spacingLeft=2;fontSize=8;fontColor=#666666;labelPosition=right;verticalLabelPosition=middle;verticalAlign=middle;spacingTop=3;html=1;" vertex="1" parent="zkQPDdFKEto7Fyoru9cs-127">
          <mxGeometry x="2.2222222222222223" y="35.875" width="5" height="5" as="geometry" />
        </mxCell>
        <mxCell id="zkQPDdFKEto7Fyoru9cs-132" value="Select City" style="text;html=1;strokeColor=none;fillColor=none;align=center;verticalAlign=middle;whiteSpace=wrap;rounded=0;fontSize=16;" vertex="1" parent="zkQPDdFKEto7Fyoru9cs-126">
          <mxGeometry width="80" height="26.25" as="geometry" />
        </mxCell>
        <mxCell id="zkQPDdFKEto7Fyoru9cs-138" value="" style="group" vertex="1" connectable="0" parent="73-TFVr9mzpakRHUqfSb-1">
          <mxGeometry x="440" y="430" width="105" height="55" as="geometry" />
        </mxCell>
        <mxCell id="zkQPDdFKEto7Fyoru9cs-139" value="" style="rounded=0;whiteSpace=wrap;html=1;fontSize=16;" vertex="1" parent="zkQPDdFKEto7Fyoru9cs-138">
          <mxGeometry y="30" width="105" height="25" as="geometry" />
        </mxCell>
        <mxCell id="zkQPDdFKEto7Fyoru9cs-140" value="Enter Country" style="text;html=1;strokeColor=none;fillColor=none;align=center;verticalAlign=middle;whiteSpace=wrap;rounded=0;fontSize=16;" vertex="1" parent="zkQPDdFKEto7Fyoru9cs-138">
          <mxGeometry width="105" height="30" as="geometry" />
        </mxCell>
        <mxCell id="zkQPDdFKEto7Fyoru9cs-141" value="" style="group" vertex="1" connectable="0" parent="73-TFVr9mzpakRHUqfSb-1">
          <mxGeometry x="440" y="510" width="105" height="55" as="geometry" />
        </mxCell>
        <mxCell id="zkQPDdFKEto7Fyoru9cs-142" value="" style="rounded=0;whiteSpace=wrap;html=1;fontSize=16;" vertex="1" parent="zkQPDdFKEto7Fyoru9cs-141">
          <mxGeometry y="30" width="105" height="25" as="geometry" />
        </mxCell>
        <mxCell id="zkQPDdFKEto7Fyoru9cs-143" value="Enter Country" style="text;html=1;strokeColor=none;fillColor=none;align=center;verticalAlign=middle;whiteSpace=wrap;rounded=0;fontSize=16;" vertex="1" parent="zkQPDdFKEto7Fyoru9cs-141">
          <mxGeometry width="105" height="30" as="geometry" />
        </mxCell>
        <mxCell id="zkQPDdFKEto7Fyoru9cs-147" value="" style="group" vertex="1" connectable="0" parent="73-TFVr9mzpakRHUqfSb-1">
          <mxGeometry x="440" y="640" width="105" height="55" as="geometry" />
        </mxCell>
        <mxCell id="zkQPDdFKEto7Fyoru9cs-148" value="" style="rounded=0;whiteSpace=wrap;html=1;fontSize=16;" vertex="1" parent="zkQPDdFKEto7Fyoru9cs-147">
          <mxGeometry y="30" width="105" height="25" as="geometry" />
        </mxCell>
        <mxCell id="zkQPDdFKEto7Fyoru9cs-149" value="Enter Country" style="text;html=1;strokeColor=none;fillColor=none;align=center;verticalAlign=middle;whiteSpace=wrap;rounded=0;fontSize=16;" vertex="1" parent="zkQPDdFKEto7Fyoru9cs-147">
          <mxGeometry width="105" height="30" as="geometry" />
        </mxCell>
        <mxCell id="zkQPDdFKEto7Fyoru9cs-150" value="" style="group" vertex="1" connectable="0" parent="73-TFVr9mzpakRHUqfSb-1">
          <mxGeometry x="440" y="720" width="105" height="55" as="geometry" />
        </mxCell>
        <mxCell id="zkQPDdFKEto7Fyoru9cs-151" value="" style="rounded=0;whiteSpace=wrap;html=1;fontSize=16;" vertex="1" parent="zkQPDdFKEto7Fyoru9cs-150">
          <mxGeometry y="30" width="105" height="25" as="geometry" />
        </mxCell>
        <mxCell id="zkQPDdFKEto7Fyoru9cs-152" value="Enter Country" style="text;html=1;strokeColor=none;fillColor=none;align=center;verticalAlign=middle;whiteSpace=wrap;rounded=0;fontSize=16;" vertex="1" parent="zkQPDdFKEto7Fyoru9cs-150">
          <mxGeometry width="105" height="30" as="geometry" />
        </mxCell>
        <mxCell id="zkQPDdFKEto7Fyoru9cs-153" value="" style="group" vertex="1" connectable="0" parent="73-TFVr9mzpakRHUqfSb-1">
          <mxGeometry x="437.5" y="940" width="105" height="55" as="geometry" />
        </mxCell>
        <mxCell id="zkQPDdFKEto7Fyoru9cs-154" value="" style="rounded=0;whiteSpace=wrap;html=1;fontSize=16;" vertex="1" parent="zkQPDdFKEto7Fyoru9cs-153">
          <mxGeometry y="30" width="105" height="25" as="geometry" />
        </mxCell>
        <mxCell id="zkQPDdFKEto7Fyoru9cs-155" value="Enter Country" style="text;html=1;strokeColor=none;fillColor=none;align=center;verticalAlign=middle;whiteSpace=wrap;rounded=0;fontSize=16;" vertex="1" parent="zkQPDdFKEto7Fyoru9cs-153">
          <mxGeometry width="105" height="30" as="geometry" />
        </mxCell>
        <mxCell id="zkQPDdFKEto7Fyoru9cs-156" value="" style="group" vertex="1" connectable="0" parent="73-TFVr9mzpakRHUqfSb-1">
          <mxGeometry x="440" y="860" width="105" height="55" as="geometry" />
        </mxCell>
        <mxCell id="zkQPDdFKEto7Fyoru9cs-157" value="" style="rounded=0;whiteSpace=wrap;html=1;fontSize=16;" vertex="1" parent="zkQPDdFKEto7Fyoru9cs-156">
          <mxGeometry y="30" width="105" height="25" as="geometry" />
        </mxCell>
        <mxCell id="zkQPDdFKEto7Fyoru9cs-158" value="Enter Country" style="text;html=1;strokeColor=none;fillColor=none;align=center;verticalAlign=middle;whiteSpace=wrap;rounded=0;fontSize=16;" vertex="1" parent="zkQPDdFKEto7Fyoru9cs-156">
          <mxGeometry width="105" height="30" as="geometry" />
        </mxCell>
      </root>
    </mxGraphModel>
  </diagram>
  <diagram name="TV show Quiz" id="qthMoyWcWI23I_sj8DpD">
    <mxGraphModel dx="832" dy="559" grid="1" gridSize="10" guides="1" tooltips="1" connect="1" arrows="1" fold="1" page="1" pageScale="1" pageWidth="1100" pageHeight="850" background="none" math="0" shadow="0">
      <root>
        <mxCell id="2gALY0whGPebIWjqoKC3-0" />
        <mxCell id="2gALY0whGPebIWjqoKC3-1" parent="2gALY0whGPebIWjqoKC3-0" />
        <mxCell id="2gALY0whGPebIWjqoKC3-2" value="" style="rounded=0;whiteSpace=wrap;html=1;fontSize=16;" vertex="1" parent="2gALY0whGPebIWjqoKC3-1">
          <mxGeometry x="30" y="30" width="1050" height="110" as="geometry" />
        </mxCell>
        <mxCell id="2gALY0whGPebIWjqoKC3-3" value="&lt;font&gt;QuizMaster&lt;br&gt;&lt;/font&gt;&lt;font style=&quot;font-size: 9px;&quot;&gt;(take to home)&lt;/font&gt;" style="whiteSpace=wrap;html=1;rounded=0;shadow=0;labelBackgroundColor=none;strokeWidth=1;fontFamily=Verdana;fontSize=28;align=center;comic=1;" vertex="1" parent="2gALY0whGPebIWjqoKC3-1">
          <mxGeometry x="40" y="45" width="190" height="80" as="geometry" />
        </mxCell>
        <mxCell id="2gALY0whGPebIWjqoKC3-4" value="Music quiz" style="rounded=0;whiteSpace=wrap;html=1;" vertex="1" parent="2gALY0whGPebIWjqoKC3-1">
          <mxGeometry x="270" y="55" width="120" height="60" as="geometry" />
        </mxCell>
        <mxCell id="2gALY0whGPebIWjqoKC3-5" value="location quiz" style="rounded=0;whiteSpace=wrap;html=1;" vertex="1" parent="2gALY0whGPebIWjqoKC3-1">
          <mxGeometry x="430" y="55" width="120" height="60" as="geometry" />
        </mxCell>
        <mxCell id="2gALY0whGPebIWjqoKC3-6" value="remove ads" style="rounded=0;whiteSpace=wrap;html=1;" vertex="1" parent="2gALY0whGPebIWjqoKC3-1">
          <mxGeometry x="940" y="55" width="120" height="60" as="geometry" />
        </mxCell>
        <mxCell id="2gALY0whGPebIWjqoKC3-7" value="trolley problem" style="rounded=0;whiteSpace=wrap;html=1;" vertex="1" parent="2gALY0whGPebIWjqoKC3-1">
          <mxGeometry x="760" y="55" width="120" height="60" as="geometry" />
        </mxCell>
        <mxCell id="2gALY0whGPebIWjqoKC3-8" value="TV show quiz&lt;br&gt;(disabled)" style="rounded=0;whiteSpace=wrap;html=1;" vertex="1" parent="2gALY0whGPebIWjqoKC3-1">
          <mxGeometry x="590" y="55" width="120" height="60" as="geometry" />
        </mxCell>
        <mxCell id="2gALY0whGPebIWjqoKC3-9" value="&lt;b&gt;About this page&lt;/b&gt;" style="rounded=0;whiteSpace=wrap;html=1;" vertex="1" parent="2gALY0whGPebIWjqoKC3-1">
          <mxGeometry x="130" y="200" width="625" height="50" as="geometry" />
        </mxCell>
        <mxCell id="2gALY0whGPebIWjqoKC3-94" value="an alert telling the user how many where correct that changes colours" style="html=1;shadow=0;dashed=0;shape=mxgraph.bootstrap.rrect;rSize=5;strokeColor=#FDFDFE;strokeWidth=1;fillColor=#FEFEFE;fontColor=#818182;whiteSpace=wrap;align=left;verticalAlign=middle;spacingLeft=10;fontSize=16;" vertex="1" parent="2gALY0whGPebIWjqoKC3-1">
          <mxGeometry x="40" y="150" width="800" height="40" as="geometry" />
        </mxCell>
        <mxCell id="2gALY0whGPebIWjqoKC3-95" value="either red Fail or green Success as the message" style="rounded=0;whiteSpace=wrap;html=1;fontSize=16;" vertex="1" parent="2gALY0whGPebIWjqoKC3-1">
          <mxGeometry x="140" y="1170" width="160" height="80" as="geometry" />
        </mxCell>
        <mxCell id="2gALY0whGPebIWjqoKC3-93" value="Submit Answers" style="labelPosition=center;verticalLabelPosition=middle;align=center;html=1;shape=mxgraph.basic.shaded_button;dx=10;fillColor=#E6E6E6;strokeColor=none;whiteSpace=wrap;fontSize=16;" vertex="1" parent="2gALY0whGPebIWjqoKC3-1">
          <mxGeometry x="60" y="1080" width="190" height="60" as="geometry" />
        </mxCell>
        <mxCell id="fG2BbD17jibkWDMuTlRr-34" value="" style="group" vertex="1" connectable="0" parent="2gALY0whGPebIWjqoKC3-1">
          <mxGeometry x="60" y="280" width="600" height="788" as="geometry" />
        </mxCell>
        <mxCell id="2gALY0whGPebIWjqoKC3-11" value="" style="shape=table;startSize=0;container=1;collapsible=0;childLayout=tableLayout;fontSize=16;" vertex="1" parent="fG2BbD17jibkWDMuTlRr-34">
          <mxGeometry width="600" height="788" as="geometry" />
        </mxCell>
        <mxCell id="2gALY0whGPebIWjqoKC3-12" value="" style="shape=tableRow;horizontal=0;startSize=0;swimlaneHead=0;swimlaneBody=0;strokeColor=inherit;top=0;left=0;bottom=0;right=0;collapsible=0;dropTarget=0;fillColor=none;points=[[0,0.5],[1,0.5]];portConstraint=eastwest;fontSize=16;" vertex="1" parent="2gALY0whGPebIWjqoKC3-11">
          <mxGeometry width="600" height="88" as="geometry" />
        </mxCell>
        <mxCell id="2gALY0whGPebIWjqoKC3-13" value="" style="shape=partialRectangle;html=1;whiteSpace=wrap;connectable=0;strokeColor=inherit;overflow=hidden;fillColor=none;top=0;left=0;bottom=0;right=0;pointerEvents=1;fontSize=16;" vertex="1" parent="2gALY0whGPebIWjqoKC3-12">
          <mxGeometry width="315" height="88" as="geometry">
            <mxRectangle width="315" height="88" as="alternateBounds" />
          </mxGeometry>
        </mxCell>
        <mxCell id="2gALY0whGPebIWjqoKC3-14" value="" style="shape=partialRectangle;html=1;whiteSpace=wrap;connectable=0;strokeColor=inherit;overflow=hidden;fillColor=none;top=0;left=0;bottom=0;right=0;pointerEvents=1;fontSize=16;" vertex="1" parent="2gALY0whGPebIWjqoKC3-12">
          <mxGeometry x="315" width="285" height="88" as="geometry">
            <mxRectangle width="285" height="88" as="alternateBounds" />
          </mxGeometry>
        </mxCell>
        <mxCell id="2gALY0whGPebIWjqoKC3-15" value="" style="shape=tableRow;horizontal=0;startSize=0;swimlaneHead=0;swimlaneBody=0;strokeColor=inherit;top=0;left=0;bottom=0;right=0;collapsible=0;dropTarget=0;fillColor=none;points=[[0,0.5],[1,0.5]];portConstraint=eastwest;fontSize=16;" vertex="1" parent="2gALY0whGPebIWjqoKC3-11">
          <mxGeometry y="88" width="600" height="87" as="geometry" />
        </mxCell>
        <mxCell id="2gALY0whGPebIWjqoKC3-16" value="" style="shape=partialRectangle;html=1;whiteSpace=wrap;connectable=0;strokeColor=inherit;overflow=hidden;fillColor=none;top=0;left=0;bottom=0;right=0;pointerEvents=1;fontSize=16;" vertex="1" parent="2gALY0whGPebIWjqoKC3-15">
          <mxGeometry width="315" height="87" as="geometry">
            <mxRectangle width="315" height="87" as="alternateBounds" />
          </mxGeometry>
        </mxCell>
        <mxCell id="2gALY0whGPebIWjqoKC3-17" value="" style="shape=partialRectangle;html=1;whiteSpace=wrap;connectable=0;strokeColor=inherit;overflow=hidden;fillColor=none;top=0;left=0;bottom=0;right=0;pointerEvents=1;fontSize=16;" vertex="1" parent="2gALY0whGPebIWjqoKC3-15">
          <mxGeometry x="315" width="285" height="87" as="geometry">
            <mxRectangle width="285" height="87" as="alternateBounds" />
          </mxGeometry>
        </mxCell>
        <mxCell id="2gALY0whGPebIWjqoKC3-18" value="" style="shape=tableRow;horizontal=0;startSize=0;swimlaneHead=0;swimlaneBody=0;strokeColor=inherit;top=0;left=0;bottom=0;right=0;collapsible=0;dropTarget=0;fillColor=none;points=[[0,0.5],[1,0.5]];portConstraint=eastwest;fontSize=16;" vertex="1" parent="2gALY0whGPebIWjqoKC3-11">
          <mxGeometry y="175" width="600" height="88" as="geometry" />
        </mxCell>
        <mxCell id="2gALY0whGPebIWjqoKC3-19" value="" style="shape=partialRectangle;html=1;whiteSpace=wrap;connectable=0;strokeColor=inherit;overflow=hidden;fillColor=none;top=0;left=0;bottom=0;right=0;pointerEvents=1;fontSize=16;" vertex="1" parent="2gALY0whGPebIWjqoKC3-18">
          <mxGeometry width="315" height="88" as="geometry">
            <mxRectangle width="315" height="88" as="alternateBounds" />
          </mxGeometry>
        </mxCell>
        <mxCell id="2gALY0whGPebIWjqoKC3-20" value="" style="shape=partialRectangle;html=1;whiteSpace=wrap;connectable=0;strokeColor=inherit;overflow=hidden;fillColor=none;top=0;left=0;bottom=0;right=0;pointerEvents=1;fontSize=16;" vertex="1" parent="2gALY0whGPebIWjqoKC3-18">
          <mxGeometry x="315" width="285" height="88" as="geometry">
            <mxRectangle width="285" height="88" as="alternateBounds" />
          </mxGeometry>
        </mxCell>
        <mxCell id="2gALY0whGPebIWjqoKC3-21" value="" style="shape=tableRow;horizontal=0;startSize=0;swimlaneHead=0;swimlaneBody=0;strokeColor=inherit;top=0;left=0;bottom=0;right=0;collapsible=0;dropTarget=0;fillColor=none;points=[[0,0.5],[1,0.5]];portConstraint=eastwest;fontSize=16;" vertex="1" parent="2gALY0whGPebIWjqoKC3-11">
          <mxGeometry y="263" width="600" height="88" as="geometry" />
        </mxCell>
        <mxCell id="2gALY0whGPebIWjqoKC3-22" value="" style="shape=partialRectangle;html=1;whiteSpace=wrap;connectable=0;strokeColor=inherit;overflow=hidden;fillColor=none;top=0;left=0;bottom=0;right=0;pointerEvents=1;fontSize=16;" vertex="1" parent="2gALY0whGPebIWjqoKC3-21">
          <mxGeometry width="315" height="88" as="geometry">
            <mxRectangle width="315" height="88" as="alternateBounds" />
          </mxGeometry>
        </mxCell>
        <mxCell id="2gALY0whGPebIWjqoKC3-23" value="" style="shape=partialRectangle;html=1;whiteSpace=wrap;connectable=0;strokeColor=inherit;overflow=hidden;fillColor=none;top=0;left=0;bottom=0;right=0;pointerEvents=1;fontSize=16;" vertex="1" parent="2gALY0whGPebIWjqoKC3-21">
          <mxGeometry x="315" width="285" height="88" as="geometry">
            <mxRectangle width="285" height="88" as="alternateBounds" />
          </mxGeometry>
        </mxCell>
        <mxCell id="2gALY0whGPebIWjqoKC3-24" value="" style="shape=tableRow;horizontal=0;startSize=0;swimlaneHead=0;swimlaneBody=0;strokeColor=inherit;top=0;left=0;bottom=0;right=0;collapsible=0;dropTarget=0;fillColor=none;points=[[0,0.5],[1,0.5]];portConstraint=eastwest;fontSize=16;" vertex="1" parent="2gALY0whGPebIWjqoKC3-11">
          <mxGeometry y="351" width="600" height="86" as="geometry" />
        </mxCell>
        <mxCell id="2gALY0whGPebIWjqoKC3-25" value="" style="shape=partialRectangle;html=1;whiteSpace=wrap;connectable=0;strokeColor=inherit;overflow=hidden;fillColor=none;top=0;left=0;bottom=0;right=0;pointerEvents=1;fontSize=16;" vertex="1" parent="2gALY0whGPebIWjqoKC3-24">
          <mxGeometry width="315" height="86" as="geometry">
            <mxRectangle width="315" height="86" as="alternateBounds" />
          </mxGeometry>
        </mxCell>
        <mxCell id="2gALY0whGPebIWjqoKC3-26" value="" style="shape=partialRectangle;html=1;whiteSpace=wrap;connectable=0;strokeColor=inherit;overflow=hidden;fillColor=none;top=0;left=0;bottom=0;right=0;pointerEvents=1;fontSize=16;" vertex="1" parent="2gALY0whGPebIWjqoKC3-24">
          <mxGeometry x="315" width="285" height="86" as="geometry">
            <mxRectangle width="285" height="86" as="alternateBounds" />
          </mxGeometry>
        </mxCell>
        <mxCell id="2gALY0whGPebIWjqoKC3-27" value="" style="shape=tableRow;horizontal=0;startSize=0;swimlaneHead=0;swimlaneBody=0;strokeColor=inherit;top=0;left=0;bottom=0;right=0;collapsible=0;dropTarget=0;fillColor=none;points=[[0,0.5],[1,0.5]];portConstraint=eastwest;fontSize=16;" vertex="1" parent="2gALY0whGPebIWjqoKC3-11">
          <mxGeometry y="437" width="600" height="88" as="geometry" />
        </mxCell>
        <mxCell id="2gALY0whGPebIWjqoKC3-28" value="" style="shape=partialRectangle;html=1;whiteSpace=wrap;connectable=0;strokeColor=inherit;overflow=hidden;fillColor=none;top=0;left=0;bottom=0;right=0;pointerEvents=1;fontSize=16;" vertex="1" parent="2gALY0whGPebIWjqoKC3-27">
          <mxGeometry width="315" height="88" as="geometry">
            <mxRectangle width="315" height="88" as="alternateBounds" />
          </mxGeometry>
        </mxCell>
        <mxCell id="2gALY0whGPebIWjqoKC3-29" value="" style="shape=partialRectangle;html=1;whiteSpace=wrap;connectable=0;strokeColor=inherit;overflow=hidden;fillColor=none;top=0;left=0;bottom=0;right=0;pointerEvents=1;fontSize=16;" vertex="1" parent="2gALY0whGPebIWjqoKC3-27">
          <mxGeometry x="315" width="285" height="88" as="geometry">
            <mxRectangle width="285" height="88" as="alternateBounds" />
          </mxGeometry>
        </mxCell>
        <mxCell id="2gALY0whGPebIWjqoKC3-30" value="" style="shape=tableRow;horizontal=0;startSize=0;swimlaneHead=0;swimlaneBody=0;strokeColor=inherit;top=0;left=0;bottom=0;right=0;collapsible=0;dropTarget=0;fillColor=none;points=[[0,0.5],[1,0.5]];portConstraint=eastwest;fontSize=16;" vertex="1" parent="2gALY0whGPebIWjqoKC3-11">
          <mxGeometry y="525" width="600" height="87" as="geometry" />
        </mxCell>
        <mxCell id="2gALY0whGPebIWjqoKC3-31" value="" style="shape=partialRectangle;html=1;whiteSpace=wrap;connectable=0;strokeColor=inherit;overflow=hidden;fillColor=none;top=0;left=0;bottom=0;right=0;pointerEvents=1;fontSize=16;" vertex="1" parent="2gALY0whGPebIWjqoKC3-30">
          <mxGeometry width="315" height="87" as="geometry">
            <mxRectangle width="315" height="87" as="alternateBounds" />
          </mxGeometry>
        </mxCell>
        <mxCell id="2gALY0whGPebIWjqoKC3-32" value="" style="shape=partialRectangle;html=1;whiteSpace=wrap;connectable=0;strokeColor=inherit;overflow=hidden;fillColor=none;top=0;left=0;bottom=0;right=0;pointerEvents=1;fontSize=16;" vertex="1" parent="2gALY0whGPebIWjqoKC3-30">
          <mxGeometry x="315" width="285" height="87" as="geometry">
            <mxRectangle width="285" height="87" as="alternateBounds" />
          </mxGeometry>
        </mxCell>
        <mxCell id="2gALY0whGPebIWjqoKC3-33" value="" style="shape=tableRow;horizontal=0;startSize=0;swimlaneHead=0;swimlaneBody=0;strokeColor=inherit;top=0;left=0;bottom=0;right=0;collapsible=0;dropTarget=0;fillColor=none;points=[[0,0.5],[1,0.5]];portConstraint=eastwest;fontSize=16;" vertex="1" parent="2gALY0whGPebIWjqoKC3-11">
          <mxGeometry y="612" width="600" height="88" as="geometry" />
        </mxCell>
        <mxCell id="2gALY0whGPebIWjqoKC3-34" value="" style="shape=partialRectangle;html=1;whiteSpace=wrap;connectable=0;strokeColor=inherit;overflow=hidden;fillColor=none;top=0;left=0;bottom=0;right=0;pointerEvents=1;fontSize=16;" vertex="1" parent="2gALY0whGPebIWjqoKC3-33">
          <mxGeometry width="315" height="88" as="geometry">
            <mxRectangle width="315" height="88" as="alternateBounds" />
          </mxGeometry>
        </mxCell>
        <mxCell id="2gALY0whGPebIWjqoKC3-35" value="" style="shape=partialRectangle;html=1;whiteSpace=wrap;connectable=0;strokeColor=inherit;overflow=hidden;fillColor=none;top=0;left=0;bottom=0;right=0;pointerEvents=1;fontSize=16;" vertex="1" parent="2gALY0whGPebIWjqoKC3-33">
          <mxGeometry x="315" width="285" height="88" as="geometry">
            <mxRectangle width="285" height="88" as="alternateBounds" />
          </mxGeometry>
        </mxCell>
        <mxCell id="fG2BbD17jibkWDMuTlRr-31" style="shape=tableRow;horizontal=0;startSize=0;swimlaneHead=0;swimlaneBody=0;strokeColor=inherit;top=0;left=0;bottom=0;right=0;collapsible=0;dropTarget=0;fillColor=none;points=[[0,0.5],[1,0.5]];portConstraint=eastwest;fontSize=16;" vertex="1" parent="2gALY0whGPebIWjqoKC3-11">
          <mxGeometry y="700" width="600" height="88" as="geometry" />
        </mxCell>
        <mxCell id="fG2BbD17jibkWDMuTlRr-32" style="shape=partialRectangle;html=1;whiteSpace=wrap;connectable=0;strokeColor=inherit;overflow=hidden;fillColor=none;top=0;left=0;bottom=0;right=0;pointerEvents=1;fontSize=16;" vertex="1" parent="fG2BbD17jibkWDMuTlRr-31">
          <mxGeometry width="315" height="88" as="geometry">
            <mxRectangle width="315" height="88" as="alternateBounds" />
          </mxGeometry>
        </mxCell>
        <mxCell id="fG2BbD17jibkWDMuTlRr-33" style="shape=partialRectangle;html=1;whiteSpace=wrap;connectable=0;strokeColor=inherit;overflow=hidden;fillColor=none;top=0;left=0;bottom=0;right=0;pointerEvents=1;fontSize=16;" vertex="1" parent="fG2BbD17jibkWDMuTlRr-31">
          <mxGeometry x="315" width="285" height="88" as="geometry">
            <mxRectangle width="285" height="88" as="alternateBounds" />
          </mxGeometry>
        </mxCell>
        <mxCell id="2gALY0whGPebIWjqoKC3-36" value="" style="shape=image;html=1;verticalLabelPosition=bottom;verticalAlign=top;imageAspect=0;image=img/clipart/Gear_128x128.png" vertex="1" parent="fG2BbD17jibkWDMuTlRr-34">
          <mxGeometry x="40.67796610169492" y="91.304347826087" width="66.10169491525423" height="73.04347826086956" as="geometry" />
        </mxCell>
        <mxCell id="2gALY0whGPebIWjqoKC3-37" value="Ad 1" style="text;html=1;align=center;verticalAlign=middle;resizable=0;points=[];autosize=1;strokeColor=none;fillColor=none;" vertex="1" parent="fG2BbD17jibkWDMuTlRr-34">
          <mxGeometry x="111.86440677966101" y="109.56521739130437" width="50" height="30" as="geometry" />
        </mxCell>
        <mxCell id="2gALY0whGPebIWjqoKC3-38" value="" style="shape=image;html=1;verticalLabelPosition=bottom;verticalAlign=top;imageAspect=0;image=img/clipart/Gear_128x128.png" vertex="1" parent="fG2BbD17jibkWDMuTlRr-34">
          <mxGeometry x="40.67796610169492" y="359.13043478260875" width="66.10169491525423" height="73.04347826086956" as="geometry" />
        </mxCell>
        <mxCell id="2gALY0whGPebIWjqoKC3-42" value="Ad 2" style="text;html=1;align=center;verticalAlign=middle;resizable=0;points=[];autosize=1;strokeColor=none;fillColor=none;" vertex="1" parent="fG2BbD17jibkWDMuTlRr-34">
          <mxGeometry x="132.20338983050846" y="377.3913043478261" width="50" height="30" as="geometry" />
        </mxCell>
        <mxCell id="2gALY0whGPebIWjqoKC3-43" value="Trivia" style="swimlane;fontSize=16;startSize=30;" vertex="1" collapsed="1" parent="fG2BbD17jibkWDMuTlRr-34">
          <mxGeometry x="396.6101694915254" y="27.391304347826065" width="122.03389830508473" height="36.52173913043478" as="geometry">
            <mxRectangle x="396.6101694915254" y="27.391304347826065" width="120" height="200" as="alternateBounds" />
          </mxGeometry>
        </mxCell>
        <mxCell id="2gALY0whGPebIWjqoKC3-44" value="" style="dashed=0;align=center;fontSize=12;shape=rect;fillColor=#ffffff;strokeColor=#cccccc;shadow=1;" vertex="1" parent="2gALY0whGPebIWjqoKC3-43">
          <mxGeometry x="10.169491525423728" y="42.60869565217391" width="101.69491525423729" height="182.60869565217388" as="geometry" />
        </mxCell>
        <mxCell id="2gALY0whGPebIWjqoKC3-45" value="" style="shape=rect;fontColor=#000000;verticalAlign=middle;spacingLeft=13;fontSize=14;strokeColor=#cccccc;align=left;resizeWidth=1;whiteSpace=wrap;html=1;" vertex="1" parent="2gALY0whGPebIWjqoKC3-44">
          <mxGeometry width="101.69491525423729" height="40" relative="1" as="geometry" />
        </mxCell>
        <mxCell id="2gALY0whGPebIWjqoKC3-46" value="" style="dashed=0;html=1;shape=mxgraph.gmdl.triangle;fillColor=#cccccc;strokeColor=none;fontSize=16;" vertex="1" parent="2gALY0whGPebIWjqoKC3-45">
          <mxGeometry x="1" y="0.5" width="10" height="5" relative="1" as="geometry">
            <mxPoint x="-25" y="-2.5" as="offset" />
          </mxGeometry>
        </mxCell>
        <mxCell id="2gALY0whGPebIWjqoKC3-47" value="Answer 1" style="shape=rect;align=left;fontColor=#000000;verticalAlign=middle;spacingLeft=13;fontSize=14;fillColor=#eeeeee;strokeColor=none;resizeWidth=1;whiteSpace=wrap;html=1;" vertex="1" parent="2gALY0whGPebIWjqoKC3-44">
          <mxGeometry width="101.69491525423729" height="30" relative="1" as="geometry">
            <mxPoint y="50" as="offset" />
          </mxGeometry>
        </mxCell>
        <mxCell id="2gALY0whGPebIWjqoKC3-48" value="Answer 2" style="text;fontColor=#000000;verticalAlign=middle;spacingLeft=13;fontSize=16;resizeWidth=1;whiteSpace=wrap;html=1;" vertex="1" parent="2gALY0whGPebIWjqoKC3-44">
          <mxGeometry width="101.69491525423729" height="30" relative="1" as="geometry">
            <mxPoint y="80" as="offset" />
          </mxGeometry>
        </mxCell>
        <mxCell id="2gALY0whGPebIWjqoKC3-49" value="Answer 3" style="text;fontColor=#000000;verticalAlign=middle;spacingLeft=13;fontSize=16;resizeWidth=1;whiteSpace=wrap;html=1;" vertex="1" parent="2gALY0whGPebIWjqoKC3-44">
          <mxGeometry width="101.69491525423729" height="30" relative="1" as="geometry">
            <mxPoint y="110" as="offset" />
          </mxGeometry>
        </mxCell>
        <mxCell id="fG2BbD17jibkWDMuTlRr-0" value="Trivia" style="swimlane;fontSize=16;startSize=30;" vertex="1" collapsed="1" parent="fG2BbD17jibkWDMuTlRr-34">
          <mxGeometry x="396.6101694915254" y="200.8695652173913" width="122.03389830508473" height="36.52173913043478" as="geometry">
            <mxRectangle x="750" y="310" width="120" height="200" as="alternateBounds" />
          </mxGeometry>
        </mxCell>
        <mxCell id="fG2BbD17jibkWDMuTlRr-1" value="" style="dashed=0;align=center;fontSize=12;shape=rect;fillColor=#ffffff;strokeColor=#cccccc;shadow=1;" vertex="1" parent="fG2BbD17jibkWDMuTlRr-0">
          <mxGeometry x="10.169491525423728" y="42.60869565217391" width="101.69491525423729" height="182.60869565217388" as="geometry" />
        </mxCell>
        <mxCell id="fG2BbD17jibkWDMuTlRr-2" value="" style="shape=rect;fontColor=#000000;verticalAlign=middle;spacingLeft=13;fontSize=14;strokeColor=#cccccc;align=left;resizeWidth=1;whiteSpace=wrap;html=1;" vertex="1" parent="fG2BbD17jibkWDMuTlRr-1">
          <mxGeometry width="101.69491525423729" height="40" relative="1" as="geometry" />
        </mxCell>
        <mxCell id="fG2BbD17jibkWDMuTlRr-3" value="" style="dashed=0;html=1;shape=mxgraph.gmdl.triangle;fillColor=#cccccc;strokeColor=none;fontSize=16;" vertex="1" parent="fG2BbD17jibkWDMuTlRr-2">
          <mxGeometry x="1" y="0.5" width="10" height="5" relative="1" as="geometry">
            <mxPoint x="-25" y="-2.5" as="offset" />
          </mxGeometry>
        </mxCell>
        <mxCell id="fG2BbD17jibkWDMuTlRr-4" value="Answer 1" style="shape=rect;align=left;fontColor=#000000;verticalAlign=middle;spacingLeft=13;fontSize=14;fillColor=#eeeeee;strokeColor=none;resizeWidth=1;whiteSpace=wrap;html=1;" vertex="1" parent="fG2BbD17jibkWDMuTlRr-1">
          <mxGeometry width="101.69491525423729" height="30" relative="1" as="geometry">
            <mxPoint y="50" as="offset" />
          </mxGeometry>
        </mxCell>
        <mxCell id="fG2BbD17jibkWDMuTlRr-5" value="Answer 2" style="text;fontColor=#000000;verticalAlign=middle;spacingLeft=13;fontSize=16;resizeWidth=1;whiteSpace=wrap;html=1;" vertex="1" parent="fG2BbD17jibkWDMuTlRr-1">
          <mxGeometry width="101.69491525423729" height="30" relative="1" as="geometry">
            <mxPoint y="80" as="offset" />
          </mxGeometry>
        </mxCell>
        <mxCell id="fG2BbD17jibkWDMuTlRr-6" value="Answer 3" style="text;fontColor=#000000;verticalAlign=middle;spacingLeft=13;fontSize=16;resizeWidth=1;whiteSpace=wrap;html=1;" vertex="1" parent="fG2BbD17jibkWDMuTlRr-1">
          <mxGeometry width="101.69491525423729" height="30" relative="1" as="geometry">
            <mxPoint y="110" as="offset" />
          </mxGeometry>
        </mxCell>
        <mxCell id="fG2BbD17jibkWDMuTlRr-7" value="Trivia" style="swimlane;fontSize=16;startSize=30;" vertex="1" collapsed="1" parent="fG2BbD17jibkWDMuTlRr-34">
          <mxGeometry x="396.6101694915254" y="292.17391304347825" width="122.03389830508473" height="36.52173913043478" as="geometry">
            <mxRectangle x="750" y="310" width="120" height="200" as="alternateBounds" />
          </mxGeometry>
        </mxCell>
        <mxCell id="fG2BbD17jibkWDMuTlRr-8" value="" style="dashed=0;align=center;fontSize=12;shape=rect;fillColor=#ffffff;strokeColor=#cccccc;shadow=1;" vertex="1" parent="fG2BbD17jibkWDMuTlRr-7">
          <mxGeometry x="10.169491525423728" y="42.60869565217391" width="101.69491525423729" height="182.60869565217388" as="geometry" />
        </mxCell>
        <mxCell id="fG2BbD17jibkWDMuTlRr-9" value="" style="shape=rect;fontColor=#000000;verticalAlign=middle;spacingLeft=13;fontSize=14;strokeColor=#cccccc;align=left;resizeWidth=1;whiteSpace=wrap;html=1;" vertex="1" parent="fG2BbD17jibkWDMuTlRr-8">
          <mxGeometry width="101.69491525423729" height="40" relative="1" as="geometry" />
        </mxCell>
        <mxCell id="fG2BbD17jibkWDMuTlRr-10" value="" style="dashed=0;html=1;shape=mxgraph.gmdl.triangle;fillColor=#cccccc;strokeColor=none;fontSize=16;" vertex="1" parent="fG2BbD17jibkWDMuTlRr-9">
          <mxGeometry x="1" y="0.5" width="10" height="5" relative="1" as="geometry">
            <mxPoint x="-25" y="-2.5" as="offset" />
          </mxGeometry>
        </mxCell>
        <mxCell id="fG2BbD17jibkWDMuTlRr-11" value="Answer 1" style="shape=rect;align=left;fontColor=#000000;verticalAlign=middle;spacingLeft=13;fontSize=14;fillColor=#eeeeee;strokeColor=none;resizeWidth=1;whiteSpace=wrap;html=1;" vertex="1" parent="fG2BbD17jibkWDMuTlRr-8">
          <mxGeometry width="101.69491525423729" height="30" relative="1" as="geometry">
            <mxPoint y="50" as="offset" />
          </mxGeometry>
        </mxCell>
        <mxCell id="fG2BbD17jibkWDMuTlRr-12" value="Answer 2" style="text;fontColor=#000000;verticalAlign=middle;spacingLeft=13;fontSize=16;resizeWidth=1;whiteSpace=wrap;html=1;" vertex="1" parent="fG2BbD17jibkWDMuTlRr-8">
          <mxGeometry width="101.69491525423729" height="30" relative="1" as="geometry">
            <mxPoint y="80" as="offset" />
          </mxGeometry>
        </mxCell>
        <mxCell id="fG2BbD17jibkWDMuTlRr-13" value="Answer 3" style="text;fontColor=#000000;verticalAlign=middle;spacingLeft=13;fontSize=16;resizeWidth=1;whiteSpace=wrap;html=1;" vertex="1" parent="fG2BbD17jibkWDMuTlRr-8">
          <mxGeometry width="101.69491525423729" height="30" relative="1" as="geometry">
            <mxPoint y="110" as="offset" />
          </mxGeometry>
        </mxCell>
        <mxCell id="fG2BbD17jibkWDMuTlRr-14" value="Trivia" style="swimlane;fontSize=16;startSize=30;" vertex="1" collapsed="1" parent="fG2BbD17jibkWDMuTlRr-34">
          <mxGeometry x="396.6101694915254" y="465.6521739130435" width="122.03389830508473" height="36.52173913043478" as="geometry">
            <mxRectangle x="750" y="310" width="120" height="200" as="alternateBounds" />
          </mxGeometry>
        </mxCell>
        <mxCell id="fG2BbD17jibkWDMuTlRr-15" value="" style="dashed=0;align=center;fontSize=12;shape=rect;fillColor=#ffffff;strokeColor=#cccccc;shadow=1;" vertex="1" parent="fG2BbD17jibkWDMuTlRr-14">
          <mxGeometry x="10.169491525423728" y="42.60869565217391" width="101.69491525423729" height="182.60869565217388" as="geometry" />
        </mxCell>
        <mxCell id="fG2BbD17jibkWDMuTlRr-16" value="" style="shape=rect;fontColor=#000000;verticalAlign=middle;spacingLeft=13;fontSize=14;strokeColor=#cccccc;align=left;resizeWidth=1;whiteSpace=wrap;html=1;" vertex="1" parent="fG2BbD17jibkWDMuTlRr-15">
          <mxGeometry width="101.69491525423729" height="40" relative="1" as="geometry" />
        </mxCell>
        <mxCell id="fG2BbD17jibkWDMuTlRr-17" value="" style="dashed=0;html=1;shape=mxgraph.gmdl.triangle;fillColor=#cccccc;strokeColor=none;fontSize=16;" vertex="1" parent="fG2BbD17jibkWDMuTlRr-16">
          <mxGeometry x="1" y="0.5" width="10" height="5" relative="1" as="geometry">
            <mxPoint x="-25" y="-2.5" as="offset" />
          </mxGeometry>
        </mxCell>
        <mxCell id="fG2BbD17jibkWDMuTlRr-18" value="Answer 1" style="shape=rect;align=left;fontColor=#000000;verticalAlign=middle;spacingLeft=13;fontSize=14;fillColor=#eeeeee;strokeColor=none;resizeWidth=1;whiteSpace=wrap;html=1;" vertex="1" parent="fG2BbD17jibkWDMuTlRr-15">
          <mxGeometry width="101.69491525423729" height="30" relative="1" as="geometry">
            <mxPoint y="50" as="offset" />
          </mxGeometry>
        </mxCell>
        <mxCell id="fG2BbD17jibkWDMuTlRr-19" value="Answer 2" style="text;fontColor=#000000;verticalAlign=middle;spacingLeft=13;fontSize=16;resizeWidth=1;whiteSpace=wrap;html=1;" vertex="1" parent="fG2BbD17jibkWDMuTlRr-15">
          <mxGeometry width="101.69491525423729" height="30" relative="1" as="geometry">
            <mxPoint y="80" as="offset" />
          </mxGeometry>
        </mxCell>
        <mxCell id="fG2BbD17jibkWDMuTlRr-20" value="Answer 3" style="text;fontColor=#000000;verticalAlign=middle;spacingLeft=13;fontSize=16;resizeWidth=1;whiteSpace=wrap;html=1;" vertex="1" parent="fG2BbD17jibkWDMuTlRr-15">
          <mxGeometry width="101.69491525423729" height="30" relative="1" as="geometry">
            <mxPoint y="110" as="offset" />
          </mxGeometry>
        </mxCell>
        <mxCell id="fG2BbD17jibkWDMuTlRr-21" value="Trivia" style="swimlane;fontSize=16;startSize=30;" vertex="1" collapsed="1" parent="fG2BbD17jibkWDMuTlRr-34">
          <mxGeometry x="396.6101694915254" y="550.8695652173914" width="122.03389830508473" height="36.52173913043478" as="geometry">
            <mxRectangle x="750" y="310" width="120" height="200" as="alternateBounds" />
          </mxGeometry>
        </mxCell>
        <mxCell id="fG2BbD17jibkWDMuTlRr-22" value="" style="dashed=0;align=center;fontSize=12;shape=rect;fillColor=#ffffff;strokeColor=#cccccc;shadow=1;" vertex="1" parent="fG2BbD17jibkWDMuTlRr-21">
          <mxGeometry x="10.169491525423728" y="42.60869565217391" width="101.69491525423729" height="182.60869565217388" as="geometry" />
        </mxCell>
        <mxCell id="fG2BbD17jibkWDMuTlRr-23" value="" style="shape=rect;fontColor=#000000;verticalAlign=middle;spacingLeft=13;fontSize=14;strokeColor=#cccccc;align=left;resizeWidth=1;whiteSpace=wrap;html=1;" vertex="1" parent="fG2BbD17jibkWDMuTlRr-22">
          <mxGeometry width="101.69491525423729" height="40" relative="1" as="geometry" />
        </mxCell>
        <mxCell id="fG2BbD17jibkWDMuTlRr-24" value="" style="dashed=0;html=1;shape=mxgraph.gmdl.triangle;fillColor=#cccccc;strokeColor=none;fontSize=16;" vertex="1" parent="fG2BbD17jibkWDMuTlRr-23">
          <mxGeometry x="1" y="0.5" width="10" height="5" relative="1" as="geometry">
            <mxPoint x="-25" y="-2.5" as="offset" />
          </mxGeometry>
        </mxCell>
        <mxCell id="fG2BbD17jibkWDMuTlRr-25" value="Answer 1" style="shape=rect;align=left;fontColor=#000000;verticalAlign=middle;spacingLeft=13;fontSize=14;fillColor=#eeeeee;strokeColor=none;resizeWidth=1;whiteSpace=wrap;html=1;" vertex="1" parent="fG2BbD17jibkWDMuTlRr-22">
          <mxGeometry width="101.69491525423729" height="30" relative="1" as="geometry">
            <mxPoint y="50" as="offset" />
          </mxGeometry>
        </mxCell>
        <mxCell id="fG2BbD17jibkWDMuTlRr-26" value="Answer 2" style="text;fontColor=#000000;verticalAlign=middle;spacingLeft=13;fontSize=16;resizeWidth=1;whiteSpace=wrap;html=1;" vertex="1" parent="fG2BbD17jibkWDMuTlRr-22">
          <mxGeometry width="101.69491525423729" height="30" relative="1" as="geometry">
            <mxPoint y="80" as="offset" />
          </mxGeometry>
        </mxCell>
        <mxCell id="fG2BbD17jibkWDMuTlRr-27" value="Answer 3" style="text;fontColor=#000000;verticalAlign=middle;spacingLeft=13;fontSize=16;resizeWidth=1;whiteSpace=wrap;html=1;" vertex="1" parent="fG2BbD17jibkWDMuTlRr-22">
          <mxGeometry width="101.69491525423729" height="30" relative="1" as="geometry">
            <mxPoint y="110" as="offset" />
          </mxGeometry>
        </mxCell>
        <mxCell id="2gALY0whGPebIWjqoKC3-39" value="" style="shape=image;html=1;verticalLabelPosition=bottom;verticalAlign=top;imageAspect=0;image=img/clipart/Gear_128x128.png" vertex="1" parent="fG2BbD17jibkWDMuTlRr-34">
          <mxGeometry x="53.389830508474574" y="621.3026086956522" width="66.10169491525423" height="73.04347826086956" as="geometry" />
        </mxCell>
        <mxCell id="2gALY0whGPebIWjqoKC3-40" value="click here to remove ads" style="text;html=1;align=center;verticalAlign=middle;resizable=0;points=[];autosize=1;strokeColor=none;fillColor=none;" vertex="1" parent="fG2BbD17jibkWDMuTlRr-34">
          <mxGeometry x="10.169491525423723" y="669.9982608695652" width="150" height="30" as="geometry" />
        </mxCell>
        <mxCell id="2gALY0whGPebIWjqoKC3-41" value="Ad 3" style="text;html=1;align=center;verticalAlign=middle;resizable=0;points=[];autosize=1;strokeColor=none;fillColor=none;" vertex="1" parent="fG2BbD17jibkWDMuTlRr-34">
          <mxGeometry x="132.20338983050846" y="633.4765217391305" width="50" height="30" as="geometry" />
        </mxCell>
        <mxCell id="fG2BbD17jibkWDMuTlRr-38" value="" style="group" vertex="1" connectable="0" parent="fG2BbD17jibkWDMuTlRr-34">
          <mxGeometry x="27.200000000000003" y="270.43000000000006" width="155" height="80" as="geometry" />
        </mxCell>
        <mxCell id="fG2BbD17jibkWDMuTlRr-39" value="" style="verticalLabelPosition=bottom;shadow=0;dashed=0;align=center;html=1;verticalAlign=top;strokeWidth=1;shape=mxgraph.mockup.containers.videoPlayer;strokeColor=#666666;strokeColor2=#008cff;strokeColor3=#c4c4c4;textColor=#666666;fillColor2=#008cff;barHeight=30;barPos=20;fontSize=16;" vertex="1" parent="fG2BbD17jibkWDMuTlRr-38">
          <mxGeometry y="30" width="155" height="50" as="geometry" />
        </mxCell>
        <mxCell id="fG2BbD17jibkWDMuTlRr-40" value="Video Question" style="text;strokeColor=none;fillColor=none;html=1;align=center;verticalAlign=middle;whiteSpace=wrap;rounded=0;fontSize=16;" vertex="1" parent="fG2BbD17jibkWDMuTlRr-38">
          <mxGeometry x="7.5" width="140" height="30" as="geometry" />
        </mxCell>
        <mxCell id="fG2BbD17jibkWDMuTlRr-41" value="" style="group" vertex="1" connectable="0" parent="fG2BbD17jibkWDMuTlRr-34">
          <mxGeometry x="30" y="443.9100000000001" width="155" height="80" as="geometry" />
        </mxCell>
        <mxCell id="fG2BbD17jibkWDMuTlRr-42" value="" style="verticalLabelPosition=bottom;shadow=0;dashed=0;align=center;html=1;verticalAlign=top;strokeWidth=1;shape=mxgraph.mockup.containers.videoPlayer;strokeColor=#666666;strokeColor2=#008cff;strokeColor3=#c4c4c4;textColor=#666666;fillColor2=#008cff;barHeight=30;barPos=20;fontSize=16;" vertex="1" parent="fG2BbD17jibkWDMuTlRr-41">
          <mxGeometry y="30" width="155" height="50" as="geometry" />
        </mxCell>
        <mxCell id="fG2BbD17jibkWDMuTlRr-43" value="Video Question" style="text;strokeColor=none;fillColor=none;html=1;align=center;verticalAlign=middle;whiteSpace=wrap;rounded=0;fontSize=16;" vertex="1" parent="fG2BbD17jibkWDMuTlRr-41">
          <mxGeometry x="7.5" width="140" height="30" as="geometry" />
        </mxCell>
        <mxCell id="fG2BbD17jibkWDMuTlRr-44" value="" style="group" vertex="1" connectable="0" parent="fG2BbD17jibkWDMuTlRr-34">
          <mxGeometry x="30" y="529.13" width="155" height="80" as="geometry" />
        </mxCell>
        <mxCell id="fG2BbD17jibkWDMuTlRr-45" value="" style="verticalLabelPosition=bottom;shadow=0;dashed=0;align=center;html=1;verticalAlign=top;strokeWidth=1;shape=mxgraph.mockup.containers.videoPlayer;strokeColor=#666666;strokeColor2=#008cff;strokeColor3=#c4c4c4;textColor=#666666;fillColor2=#008cff;barHeight=30;barPos=20;fontSize=16;" vertex="1" parent="fG2BbD17jibkWDMuTlRr-44">
          <mxGeometry y="30" width="155" height="50" as="geometry" />
        </mxCell>
        <mxCell id="fG2BbD17jibkWDMuTlRr-46" value="Video Question" style="text;strokeColor=none;fillColor=none;html=1;align=center;verticalAlign=middle;whiteSpace=wrap;rounded=0;fontSize=16;" vertex="1" parent="fG2BbD17jibkWDMuTlRr-44">
          <mxGeometry x="7.5" width="140" height="30" as="geometry" />
        </mxCell>
        <mxCell id="fG2BbD17jibkWDMuTlRr-47" value="" style="group" vertex="1" connectable="0" parent="fG2BbD17jibkWDMuTlRr-34">
          <mxGeometry x="30" y="700" width="155" height="80" as="geometry" />
        </mxCell>
        <mxCell id="fG2BbD17jibkWDMuTlRr-48" value="" style="verticalLabelPosition=bottom;shadow=0;dashed=0;align=center;html=1;verticalAlign=top;strokeWidth=1;shape=mxgraph.mockup.containers.videoPlayer;strokeColor=#666666;strokeColor2=#008cff;strokeColor3=#c4c4c4;textColor=#666666;fillColor2=#008cff;barHeight=30;barPos=20;fontSize=16;" vertex="1" parent="fG2BbD17jibkWDMuTlRr-47">
          <mxGeometry y="30" width="155" height="50" as="geometry" />
        </mxCell>
        <mxCell id="fG2BbD17jibkWDMuTlRr-49" value="Video Question" style="text;strokeColor=none;fillColor=none;html=1;align=center;verticalAlign=middle;whiteSpace=wrap;rounded=0;fontSize=16;" vertex="1" parent="fG2BbD17jibkWDMuTlRr-47">
          <mxGeometry x="7.5" width="140" height="30" as="geometry" />
        </mxCell>
        <mxCell id="fG2BbD17jibkWDMuTlRr-50" value="Trivia" style="swimlane;fontSize=16;startSize=30;" vertex="1" collapsed="1" parent="fG2BbD17jibkWDMuTlRr-34">
          <mxGeometry x="396.6101694915254" y="721.7395652173914" width="122.03389830508473" height="36.52173913043478" as="geometry">
            <mxRectangle x="750" y="310" width="120" height="200" as="alternateBounds" />
          </mxGeometry>
        </mxCell>
        <mxCell id="fG2BbD17jibkWDMuTlRr-51" value="" style="dashed=0;align=center;fontSize=12;shape=rect;fillColor=#ffffff;strokeColor=#cccccc;shadow=1;" vertex="1" parent="fG2BbD17jibkWDMuTlRr-50">
          <mxGeometry x="10.169491525423728" y="42.60869565217391" width="101.69491525423729" height="182.60869565217388" as="geometry" />
        </mxCell>
        <mxCell id="fG2BbD17jibkWDMuTlRr-52" value="" style="shape=rect;fontColor=#000000;verticalAlign=middle;spacingLeft=13;fontSize=14;strokeColor=#cccccc;align=left;resizeWidth=1;whiteSpace=wrap;html=1;" vertex="1" parent="fG2BbD17jibkWDMuTlRr-51">
          <mxGeometry width="101.69491525423729" height="40" relative="1" as="geometry" />
        </mxCell>
        <mxCell id="fG2BbD17jibkWDMuTlRr-53" value="" style="dashed=0;html=1;shape=mxgraph.gmdl.triangle;fillColor=#cccccc;strokeColor=none;fontSize=16;" vertex="1" parent="fG2BbD17jibkWDMuTlRr-52">
          <mxGeometry x="1" y="0.5" width="10" height="5" relative="1" as="geometry">
            <mxPoint x="-25" y="-2.5" as="offset" />
          </mxGeometry>
        </mxCell>
        <mxCell id="fG2BbD17jibkWDMuTlRr-54" value="Answer 1" style="shape=rect;align=left;fontColor=#000000;verticalAlign=middle;spacingLeft=13;fontSize=14;fillColor=#eeeeee;strokeColor=none;resizeWidth=1;whiteSpace=wrap;html=1;" vertex="1" parent="fG2BbD17jibkWDMuTlRr-51">
          <mxGeometry width="101.69491525423729" height="30" relative="1" as="geometry">
            <mxPoint y="50" as="offset" />
          </mxGeometry>
        </mxCell>
        <mxCell id="fG2BbD17jibkWDMuTlRr-55" value="Answer 2" style="text;fontColor=#000000;verticalAlign=middle;spacingLeft=13;fontSize=16;resizeWidth=1;whiteSpace=wrap;html=1;" vertex="1" parent="fG2BbD17jibkWDMuTlRr-51">
          <mxGeometry width="101.69491525423729" height="30" relative="1" as="geometry">
            <mxPoint y="80" as="offset" />
          </mxGeometry>
        </mxCell>
        <mxCell id="fG2BbD17jibkWDMuTlRr-56" value="Answer 3" style="text;fontColor=#000000;verticalAlign=middle;spacingLeft=13;fontSize=16;resizeWidth=1;whiteSpace=wrap;html=1;" vertex="1" parent="fG2BbD17jibkWDMuTlRr-51">
          <mxGeometry width="101.69491525423729" height="30" relative="1" as="geometry">
            <mxPoint y="110" as="offset" />
          </mxGeometry>
        </mxCell>
        <mxCell id="fG2BbD17jibkWDMuTlRr-30" value="" style="group" vertex="1" connectable="0" parent="2gALY0whGPebIWjqoKC3-1">
          <mxGeometry x="95" y="280" width="155" height="80" as="geometry" />
        </mxCell>
        <mxCell id="fG2BbD17jibkWDMuTlRr-29" value="" style="verticalLabelPosition=bottom;shadow=0;dashed=0;align=center;html=1;verticalAlign=top;strokeWidth=1;shape=mxgraph.mockup.containers.videoPlayer;strokeColor=#666666;strokeColor2=#008cff;strokeColor3=#c4c4c4;textColor=#666666;fillColor2=#008cff;barHeight=30;barPos=20;fontSize=16;" vertex="1" parent="fG2BbD17jibkWDMuTlRr-30">
          <mxGeometry y="30" width="155" height="50" as="geometry" />
        </mxCell>
        <mxCell id="2gALY0whGPebIWjqoKC3-79" value="Video Question" style="text;strokeColor=none;fillColor=none;html=1;align=center;verticalAlign=middle;whiteSpace=wrap;rounded=0;fontSize=16;" vertex="1" parent="fG2BbD17jibkWDMuTlRr-30">
          <mxGeometry x="7.5" width="140" height="30" as="geometry" />
        </mxCell>
        <mxCell id="fG2BbD17jibkWDMuTlRr-35" value="" style="group" vertex="1" connectable="0" parent="2gALY0whGPebIWjqoKC3-1">
          <mxGeometry x="90" y="460" width="155" height="80" as="geometry" />
        </mxCell>
        <mxCell id="fG2BbD17jibkWDMuTlRr-36" value="" style="verticalLabelPosition=bottom;shadow=0;dashed=0;align=center;html=1;verticalAlign=top;strokeWidth=1;shape=mxgraph.mockup.containers.videoPlayer;strokeColor=#666666;strokeColor2=#008cff;strokeColor3=#c4c4c4;textColor=#666666;fillColor2=#008cff;barHeight=30;barPos=20;fontSize=16;" vertex="1" parent="fG2BbD17jibkWDMuTlRr-35">
          <mxGeometry y="30" width="155" height="50" as="geometry" />
        </mxCell>
        <mxCell id="fG2BbD17jibkWDMuTlRr-37" value="Video Question" style="text;strokeColor=none;fillColor=none;html=1;align=center;verticalAlign=middle;whiteSpace=wrap;rounded=0;fontSize=16;" vertex="1" parent="fG2BbD17jibkWDMuTlRr-35">
          <mxGeometry x="7.5" width="140" height="30" as="geometry" />
        </mxCell>
      </root>
    </mxGraphModel>
  </diagram>
  <diagram name="Trolley Problem" id="B0JZ6OZvydWJ35uW2BPM">
    <mxGraphModel dx="832" dy="559" grid="1" gridSize="10" guides="1" tooltips="1" connect="1" arrows="1" fold="1" page="1" pageScale="1" pageWidth="1100" pageHeight="850" background="none" math="0" shadow="0">
      <root>
        <mxCell id="xMfa5EShXoxrIrZniZ6w-0" />
        <mxCell id="xMfa5EShXoxrIrZniZ6w-1" parent="xMfa5EShXoxrIrZniZ6w-0" />
        <mxCell id="xMfa5EShXoxrIrZniZ6w-2" value="" style="rounded=0;whiteSpace=wrap;html=1;fontSize=16;" vertex="1" parent="xMfa5EShXoxrIrZniZ6w-1">
          <mxGeometry x="30" y="30" width="1050" height="110" as="geometry" />
        </mxCell>
        <mxCell id="xMfa5EShXoxrIrZniZ6w-3" value="&lt;font&gt;QuizMaster&lt;br&gt;&lt;/font&gt;&lt;font style=&quot;font-size: 9px;&quot;&gt;(take to home)&lt;/font&gt;" style="whiteSpace=wrap;html=1;rounded=0;shadow=0;labelBackgroundColor=none;strokeWidth=1;fontFamily=Verdana;fontSize=28;align=center;comic=1;" vertex="1" parent="xMfa5EShXoxrIrZniZ6w-1">
          <mxGeometry x="40" y="45" width="190" height="80" as="geometry" />
        </mxCell>
        <mxCell id="xMfa5EShXoxrIrZniZ6w-4" value="Music quiz" style="rounded=0;whiteSpace=wrap;html=1;" vertex="1" parent="xMfa5EShXoxrIrZniZ6w-1">
          <mxGeometry x="270" y="55" width="120" height="60" as="geometry" />
        </mxCell>
        <mxCell id="xMfa5EShXoxrIrZniZ6w-5" value="location quiz" style="rounded=0;whiteSpace=wrap;html=1;" vertex="1" parent="xMfa5EShXoxrIrZniZ6w-1">
          <mxGeometry x="430" y="55" width="120" height="60" as="geometry" />
        </mxCell>
        <mxCell id="xMfa5EShXoxrIrZniZ6w-6" value="remove ads" style="rounded=0;whiteSpace=wrap;html=1;" vertex="1" parent="xMfa5EShXoxrIrZniZ6w-1">
          <mxGeometry x="940" y="55" width="120" height="60" as="geometry" />
        </mxCell>
        <mxCell id="xMfa5EShXoxrIrZniZ6w-7" value="trolley problem&lt;br&gt;(disabled)" style="rounded=0;whiteSpace=wrap;html=1;" vertex="1" parent="xMfa5EShXoxrIrZniZ6w-1">
          <mxGeometry x="760" y="55" width="120" height="60" as="geometry" />
        </mxCell>
        <mxCell id="xMfa5EShXoxrIrZniZ6w-8" value="TV show quiz" style="rounded=0;whiteSpace=wrap;html=1;" vertex="1" parent="xMfa5EShXoxrIrZniZ6w-1">
          <mxGeometry x="590" y="55" width="120" height="60" as="geometry" />
        </mxCell>
        <mxCell id="xMfa5EShXoxrIrZniZ6w-9" value="&lt;b&gt;About this page&lt;/b&gt;" style="rounded=0;whiteSpace=wrap;html=1;" vertex="1" parent="xMfa5EShXoxrIrZniZ6w-1">
          <mxGeometry x="120" y="160" width="625" height="50" as="geometry" />
        </mxCell>
        <mxCell id="xMfa5EShXoxrIrZniZ6w-11" value="&lt;font style=&quot;font-size: 22px;&quot;&gt;Results:&lt;/font&gt;&lt;br&gt;&lt;br&gt;you&#39;re a... {option}&lt;br&gt;Total deaths = {num}" style="rounded=0;whiteSpace=wrap;html=1;fontSize=16;" vertex="1" parent="xMfa5EShXoxrIrZniZ6w-1">
          <mxGeometry x="240" y="2500" width="190" height="130" as="geometry" />
        </mxCell>
        <mxCell id="xMfa5EShXoxrIrZniZ6w-12" value="Get Results" style="labelPosition=center;verticalLabelPosition=middle;align=center;html=1;shape=mxgraph.basic.shaded_button;dx=10;fillColor=#E6E6E6;strokeColor=none;whiteSpace=wrap;fontSize=16;" vertex="1" parent="xMfa5EShXoxrIrZniZ6w-1">
          <mxGeometry x="60" y="2410" width="190" height="60" as="geometry" />
        </mxCell>
        <mxCell id="MuxbbdBOaCsSNWAlDvDl-0" value="Trolley Scenario" style="swimlane;fontSize=16;startSize=23;" vertex="1" parent="xMfa5EShXoxrIrZniZ6w-1">
          <mxGeometry x="50" y="270" width="400" height="370" as="geometry" />
        </mxCell>
        <mxCell id="MuxbbdBOaCsSNWAlDvDl-1" value="Description" style="text;html=1;align=center;verticalAlign=middle;resizable=0;points=[];autosize=1;strokeColor=none;fillColor=none;fontSize=16;" vertex="1" parent="MuxbbdBOaCsSNWAlDvDl-0">
          <mxGeometry x="20" y="40" width="100" height="30" as="geometry" />
        </mxCell>
        <mxCell id="MuxbbdBOaCsSNWAlDvDl-2" value="" style="verticalLabelPosition=bottom;verticalAlign=top;html=1;shape=mxgraph.basic.patternFillRect;fillStyle=diag;step=5;fillStrokeWidth=0.2;fillStrokeColor=#dddddd;fontSize=16;" vertex="1" parent="MuxbbdBOaCsSNWAlDvDl-0">
          <mxGeometry x="15" y="88" width="365" height="135" as="geometry" />
        </mxCell>
        <mxCell id="MuxbbdBOaCsSNWAlDvDl-5" value="Pull Lever" style="labelPosition=center;verticalLabelPosition=middle;align=center;html=1;shape=mxgraph.basic.shaded_button;dx=10;fillColor=#E6E6E6;strokeColor=none;whiteSpace=wrap;fontSize=16;" vertex="1" parent="MuxbbdBOaCsSNWAlDvDl-0">
          <mxGeometry x="15" y="240" width="85" height="40" as="geometry" />
        </mxCell>
        <mxCell id="MuxbbdBOaCsSNWAlDvDl-6" value="Start Simulation" style="labelPosition=center;verticalLabelPosition=middle;align=center;html=1;shape=mxgraph.basic.shaded_button;dx=10;fillColor=#E6E6E6;strokeColor=none;whiteSpace=wrap;fontSize=16;" vertex="1" parent="MuxbbdBOaCsSNWAlDvDl-0">
          <mxGeometry x="110" y="240" width="130" height="40" as="geometry" />
        </mxCell>
        <mxCell id="MuxbbdBOaCsSNWAlDvDl-7" value="Reset Simulation" style="labelPosition=center;verticalLabelPosition=middle;align=center;html=1;shape=mxgraph.basic.shaded_button;dx=10;fillColor=#E6E6E6;strokeColor=none;whiteSpace=wrap;fontSize=16;" vertex="1" parent="MuxbbdBOaCsSNWAlDvDl-0">
          <mxGeometry x="250" y="240" width="130" height="40" as="geometry" />
        </mxCell>
        <mxCell id="MuxbbdBOaCsSNWAlDvDl-9" value="Trolley Scenario" style="swimlane;fontSize=16;startSize=23;" vertex="1" parent="xMfa5EShXoxrIrZniZ6w-1">
          <mxGeometry x="50" y="860" width="400" height="370" as="geometry" />
        </mxCell>
        <mxCell id="MuxbbdBOaCsSNWAlDvDl-10" value="Description" style="text;html=1;align=center;verticalAlign=middle;resizable=0;points=[];autosize=1;strokeColor=none;fillColor=none;fontSize=16;" vertex="1" parent="MuxbbdBOaCsSNWAlDvDl-9">
          <mxGeometry x="20" y="40" width="100" height="30" as="geometry" />
        </mxCell>
        <mxCell id="MuxbbdBOaCsSNWAlDvDl-11" value="" style="verticalLabelPosition=bottom;verticalAlign=top;html=1;shape=mxgraph.basic.patternFillRect;fillStyle=diag;step=5;fillStrokeWidth=0.2;fillStrokeColor=#dddddd;fontSize=16;" vertex="1" parent="MuxbbdBOaCsSNWAlDvDl-9">
          <mxGeometry x="15" y="88" width="365" height="135" as="geometry" />
        </mxCell>
        <mxCell id="MuxbbdBOaCsSNWAlDvDl-12" value="Pull Lever" style="labelPosition=center;verticalLabelPosition=middle;align=center;html=1;shape=mxgraph.basic.shaded_button;dx=10;fillColor=#E6E6E6;strokeColor=none;whiteSpace=wrap;fontSize=16;" vertex="1" parent="MuxbbdBOaCsSNWAlDvDl-9">
          <mxGeometry x="15" y="240" width="85" height="40" as="geometry" />
        </mxCell>
        <mxCell id="MuxbbdBOaCsSNWAlDvDl-13" value="Start Simulation" style="labelPosition=center;verticalLabelPosition=middle;align=center;html=1;shape=mxgraph.basic.shaded_button;dx=10;fillColor=#E6E6E6;strokeColor=none;whiteSpace=wrap;fontSize=16;" vertex="1" parent="MuxbbdBOaCsSNWAlDvDl-9">
          <mxGeometry x="110" y="240" width="130" height="40" as="geometry" />
        </mxCell>
        <mxCell id="MuxbbdBOaCsSNWAlDvDl-14" value="Reset Simulation" style="labelPosition=center;verticalLabelPosition=middle;align=center;html=1;shape=mxgraph.basic.shaded_button;dx=10;fillColor=#E6E6E6;strokeColor=none;whiteSpace=wrap;fontSize=16;" vertex="1" parent="MuxbbdBOaCsSNWAlDvDl-9">
          <mxGeometry x="250" y="240" width="130" height="40" as="geometry" />
        </mxCell>
        <mxCell id="MuxbbdBOaCsSNWAlDvDl-15" value="Trolley Scenario" style="swimlane;fontSize=16;startSize=23;" vertex="1" parent="xMfa5EShXoxrIrZniZ6w-1">
          <mxGeometry x="50" y="1440" width="400" height="370" as="geometry" />
        </mxCell>
        <mxCell id="MuxbbdBOaCsSNWAlDvDl-16" value="Description" style="text;html=1;align=center;verticalAlign=middle;resizable=0;points=[];autosize=1;strokeColor=none;fillColor=none;fontSize=16;" vertex="1" parent="MuxbbdBOaCsSNWAlDvDl-15">
          <mxGeometry x="20" y="40" width="100" height="30" as="geometry" />
        </mxCell>
        <mxCell id="MuxbbdBOaCsSNWAlDvDl-17" value="" style="verticalLabelPosition=bottom;verticalAlign=top;html=1;shape=mxgraph.basic.patternFillRect;fillStyle=diag;step=5;fillStrokeWidth=0.2;fillStrokeColor=#dddddd;fontSize=16;" vertex="1" parent="MuxbbdBOaCsSNWAlDvDl-15">
          <mxGeometry x="15" y="88" width="365" height="135" as="geometry" />
        </mxCell>
        <mxCell id="MuxbbdBOaCsSNWAlDvDl-18" value="Pull Lever" style="labelPosition=center;verticalLabelPosition=middle;align=center;html=1;shape=mxgraph.basic.shaded_button;dx=10;fillColor=#E6E6E6;strokeColor=none;whiteSpace=wrap;fontSize=16;" vertex="1" parent="MuxbbdBOaCsSNWAlDvDl-15">
          <mxGeometry x="15" y="240" width="85" height="40" as="geometry" />
        </mxCell>
        <mxCell id="MuxbbdBOaCsSNWAlDvDl-19" value="Start Simulation" style="labelPosition=center;verticalLabelPosition=middle;align=center;html=1;shape=mxgraph.basic.shaded_button;dx=10;fillColor=#E6E6E6;strokeColor=none;whiteSpace=wrap;fontSize=16;" vertex="1" parent="MuxbbdBOaCsSNWAlDvDl-15">
          <mxGeometry x="110" y="240" width="130" height="40" as="geometry" />
        </mxCell>
        <mxCell id="MuxbbdBOaCsSNWAlDvDl-20" value="Reset Simulation" style="labelPosition=center;verticalLabelPosition=middle;align=center;html=1;shape=mxgraph.basic.shaded_button;dx=10;fillColor=#E6E6E6;strokeColor=none;whiteSpace=wrap;fontSize=16;" vertex="1" parent="MuxbbdBOaCsSNWAlDvDl-15">
          <mxGeometry x="250" y="240" width="130" height="40" as="geometry" />
        </mxCell>
        <mxCell id="MuxbbdBOaCsSNWAlDvDl-21" value="Trolley Scenario" style="swimlane;fontSize=16;startSize=23;" vertex="1" parent="xMfa5EShXoxrIrZniZ6w-1">
          <mxGeometry x="30" y="2020" width="400" height="370" as="geometry" />
        </mxCell>
        <mxCell id="MuxbbdBOaCsSNWAlDvDl-22" value="Description" style="text;html=1;align=center;verticalAlign=middle;resizable=0;points=[];autosize=1;strokeColor=none;fillColor=none;fontSize=16;" vertex="1" parent="MuxbbdBOaCsSNWAlDvDl-21">
          <mxGeometry x="20" y="40" width="100" height="30" as="geometry" />
        </mxCell>
        <mxCell id="MuxbbdBOaCsSNWAlDvDl-23" value="" style="verticalLabelPosition=bottom;verticalAlign=top;html=1;shape=mxgraph.basic.patternFillRect;fillStyle=diag;step=5;fillStrokeWidth=0.2;fillStrokeColor=#dddddd;fontSize=16;" vertex="1" parent="MuxbbdBOaCsSNWAlDvDl-21">
          <mxGeometry x="15" y="88" width="365" height="135" as="geometry" />
        </mxCell>
        <mxCell id="MuxbbdBOaCsSNWAlDvDl-24" value="Pull Lever" style="labelPosition=center;verticalLabelPosition=middle;align=center;html=1;shape=mxgraph.basic.shaded_button;dx=10;fillColor=#E6E6E6;strokeColor=none;whiteSpace=wrap;fontSize=16;" vertex="1" parent="MuxbbdBOaCsSNWAlDvDl-21">
          <mxGeometry x="15" y="240" width="85" height="40" as="geometry" />
        </mxCell>
        <mxCell id="MuxbbdBOaCsSNWAlDvDl-25" value="Start Simulation" style="labelPosition=center;verticalLabelPosition=middle;align=center;html=1;shape=mxgraph.basic.shaded_button;dx=10;fillColor=#E6E6E6;strokeColor=none;whiteSpace=wrap;fontSize=16;" vertex="1" parent="MuxbbdBOaCsSNWAlDvDl-21">
          <mxGeometry x="110" y="240" width="130" height="40" as="geometry" />
        </mxCell>
        <mxCell id="MuxbbdBOaCsSNWAlDvDl-26" value="Reset Simulation" style="labelPosition=center;verticalLabelPosition=middle;align=center;html=1;shape=mxgraph.basic.shaded_button;dx=10;fillColor=#E6E6E6;strokeColor=none;whiteSpace=wrap;fontSize=16;" vertex="1" parent="MuxbbdBOaCsSNWAlDvDl-21">
          <mxGeometry x="250" y="240" width="130" height="40" as="geometry" />
        </mxCell>
        <mxCell id="BeWX14T6F-n2OKHoiYab-0" value="" style="shape=image;html=1;verticalLabelPosition=bottom;verticalAlign=top;imageAspect=0;image=img/clipart/Gear_128x128.png" vertex="1" parent="xMfa5EShXoxrIrZniZ6w-1">
          <mxGeometry x="60" y="660" width="165" height="160" as="geometry" />
        </mxCell>
        <mxCell id="BeWX14T6F-n2OKHoiYab-1" value="Ad 1" style="text;html=1;align=center;verticalAlign=middle;resizable=0;points=[];autosize=1;strokeColor=none;fillColor=none;" vertex="1" parent="xMfa5EShXoxrIrZniZ6w-1">
          <mxGeometry x="230" y="675" width="50" height="30" as="geometry" />
        </mxCell>
        <mxCell id="BeWX14T6F-n2OKHoiYab-6" value="" style="shape=image;html=1;verticalLabelPosition=bottom;verticalAlign=top;imageAspect=0;image=img/clipart/Gear_128x128.png" vertex="1" parent="xMfa5EShXoxrIrZniZ6w-1">
          <mxGeometry x="60" y="1250" width="165" height="160" as="geometry" />
        </mxCell>
        <mxCell id="BeWX14T6F-n2OKHoiYab-7" value="Ad 2" style="text;html=1;align=center;verticalAlign=middle;resizable=0;points=[];autosize=1;strokeColor=none;fillColor=none;" vertex="1" parent="xMfa5EShXoxrIrZniZ6w-1">
          <mxGeometry x="230" y="1265" width="50" height="30" as="geometry" />
        </mxCell>
        <mxCell id="BeWX14T6F-n2OKHoiYab-8" value="" style="shape=image;html=1;verticalLabelPosition=bottom;verticalAlign=top;imageAspect=0;image=img/clipart/Gear_128x128.png" vertex="1" parent="xMfa5EShXoxrIrZniZ6w-1">
          <mxGeometry x="60" y="1830" width="165" height="160" as="geometry" />
        </mxCell>
        <mxCell id="BeWX14T6F-n2OKHoiYab-9" value="Ad 3" style="text;html=1;align=center;verticalAlign=middle;resizable=0;points=[];autosize=1;strokeColor=none;fillColor=none;" vertex="1" parent="xMfa5EShXoxrIrZniZ6w-1">
          <mxGeometry x="250" y="1845" width="50" height="30" as="geometry" />
        </mxCell>
        <mxCell id="isVDg9gXcstl6KmY3s6n-0" value="click here to remove ads" style="text;html=1;align=center;verticalAlign=middle;resizable=0;points=[];autosize=1;strokeColor=none;fillColor=none;" vertex="1" parent="xMfa5EShXoxrIrZniZ6w-1">
          <mxGeometry x="210" y="1930" width="150" height="30" as="geometry" />
        </mxCell>
      </root>
    </mxGraphModel>
  </diagram>
  <diagram name="remove ads" id="XhwTymlCMhykVKC4aP-O">
    <mxGraphModel dx="832" dy="559" grid="1" gridSize="10" guides="1" tooltips="1" connect="1" arrows="1" fold="1" page="1" pageScale="1" pageWidth="1100" pageHeight="850" background="none" math="0" shadow="0">
      <root>
        <mxCell id="0dSKx5TV232whufWYYKa-0" />
        <mxCell id="0dSKx5TV232whufWYYKa-1" parent="0dSKx5TV232whufWYYKa-0" />
        <mxCell id="DBOA-0h_DXsDR1Omo_Wj-0" value="" style="rounded=0;whiteSpace=wrap;html=1;fontSize=16;" vertex="1" parent="0dSKx5TV232whufWYYKa-1">
          <mxGeometry x="30" y="30" width="1050" height="110" as="geometry" />
        </mxCell>
        <mxCell id="0dSKx5TV232whufWYYKa-3" value="LOGO&lt;br&gt;&lt;font style=&quot;font-size: 9px;&quot;&gt;take to home&lt;/font&gt;" style="whiteSpace=wrap;html=1;rounded=0;shadow=0;labelBackgroundColor=none;strokeWidth=1;fontFamily=Verdana;fontSize=28;align=center;comic=1;" parent="0dSKx5TV232whufWYYKa-1" vertex="1">
          <mxGeometry x="40" y="45" width="190" height="80" as="geometry" />
        </mxCell>
        <mxCell id="0dSKx5TV232whufWYYKa-5" value="Music quiz" style="rounded=0;whiteSpace=wrap;html=1;" parent="0dSKx5TV232whufWYYKa-1" vertex="1">
          <mxGeometry x="270" y="55" width="120" height="60" as="geometry" />
        </mxCell>
        <mxCell id="0dSKx5TV232whufWYYKa-6" value="location quiz" style="rounded=0;whiteSpace=wrap;html=1;" parent="0dSKx5TV232whufWYYKa-1" vertex="1">
          <mxGeometry x="430" y="55" width="120" height="60" as="geometry" />
        </mxCell>
        <mxCell id="0dSKx5TV232whufWYYKa-7" value="remove ads&lt;br&gt;(disabled)" style="rounded=0;whiteSpace=wrap;html=1;" parent="0dSKx5TV232whufWYYKa-1" vertex="1">
          <mxGeometry x="940" y="55" width="120" height="60" as="geometry" />
        </mxCell>
        <mxCell id="0dSKx5TV232whufWYYKa-8" value="trolley problem" style="rounded=0;whiteSpace=wrap;html=1;" parent="0dSKx5TV232whufWYYKa-1" vertex="1">
          <mxGeometry x="770" y="55" width="120" height="60" as="geometry" />
        </mxCell>
        <mxCell id="0dSKx5TV232whufWYYKa-10" value="TV show quiz" style="rounded=0;whiteSpace=wrap;html=1;" parent="0dSKx5TV232whufWYYKa-1" vertex="1">
          <mxGeometry x="590" y="52.5" width="120" height="65" as="geometry" />
        </mxCell>
        <mxCell id="sbvOZcFwrYycJXicl04Z-0" value="&lt;b&gt;About this page&lt;/b&gt;" style="rounded=0;whiteSpace=wrap;html=1;" vertex="1" parent="0dSKx5TV232whufWYYKa-1">
          <mxGeometry x="130" y="160" width="625" height="50" as="geometry" />
        </mxCell>
        <mxCell id="sbvOZcFwrYycJXicl04Z-1" value="" style="shape=singleArrow;direction=west;whiteSpace=wrap;html=1;fontSize=16;fillColor=#e32400;strokeColor=#B81200;" vertex="1" parent="0dSKx5TV232whufWYYKa-1">
          <mxGeometry x="490" y="310" width="230" height="60" as="geometry" />
        </mxCell>
        <mxCell id="sbvOZcFwrYycJXicl04Z-3" value="(flashing arrow)" style="text;strokeColor=none;fillColor=none;html=1;align=center;verticalAlign=middle;whiteSpace=wrap;rounded=0;fontSize=16;" vertex="1" parent="0dSKx5TV232whufWYYKa-1">
          <mxGeometry x="560" y="350" width="120" height="20" as="geometry" />
        </mxCell>
        <mxCell id="R8ca8CIKbB4HZpjDbUqP-1" value="Submit" style="labelPosition=center;verticalLabelPosition=middle;align=center;html=1;shape=mxgraph.basic.shaded_button;dx=10;fillColor=#E6E6E6;strokeColor=none;whiteSpace=wrap;fontSize=16;" vertex="1" parent="0dSKx5TV232whufWYYKa-1">
          <mxGeometry x="90" y="590" width="100" height="60" as="geometry" />
        </mxCell>
        <mxCell id="R8ca8CIKbB4HZpjDbUqP-15" value="" style="rounded=0;whiteSpace=wrap;html=1;fontSize=16;" vertex="1" parent="0dSKx5TV232whufWYYKa-1">
          <mxGeometry x="90" y="290" width="200" height="30" as="geometry" />
        </mxCell>
        <mxCell id="R8ca8CIKbB4HZpjDbUqP-16" value="" style="rounded=0;whiteSpace=wrap;html=1;fontSize=16;" vertex="1" parent="0dSKx5TV232whufWYYKa-1">
          <mxGeometry x="90" y="345" width="200" height="30" as="geometry" />
        </mxCell>
        <mxCell id="R8ca8CIKbB4HZpjDbUqP-17" value="" style="rounded=0;whiteSpace=wrap;html=1;fontSize=16;" vertex="1" parent="0dSKx5TV232whufWYYKa-1">
          <mxGeometry x="90" y="400" width="200" height="30" as="geometry" />
        </mxCell>
        <mxCell id="R8ca8CIKbB4HZpjDbUqP-18" value="" style="rounded=0;whiteSpace=wrap;html=1;fontSize=16;" vertex="1" parent="0dSKx5TV232whufWYYKa-1">
          <mxGeometry x="90" y="460" width="200" height="30" as="geometry" />
        </mxCell>
        <mxCell id="R8ca8CIKbB4HZpjDbUqP-19" value="" style="rounded=0;whiteSpace=wrap;html=1;fontSize=16;" vertex="1" parent="0dSKx5TV232whufWYYKa-1">
          <mxGeometry x="90" y="520" width="200" height="30" as="geometry" />
        </mxCell>
        <mxCell id="R8ca8CIKbB4HZpjDbUqP-21" value="Name:" style="text;strokeColor=none;fillColor=none;html=1;align=center;verticalAlign=middle;whiteSpace=wrap;rounded=0;fontSize=16;" vertex="1" parent="0dSKx5TV232whufWYYKa-1">
          <mxGeometry x="90" y="260" width="60" height="30" as="geometry" />
        </mxCell>
        <mxCell id="R8ca8CIKbB4HZpjDbUqP-22" value="Email:" style="text;strokeColor=none;fillColor=none;html=1;align=center;verticalAlign=middle;whiteSpace=wrap;rounded=0;fontSize=16;" vertex="1" parent="0dSKx5TV232whufWYYKa-1">
          <mxGeometry x="90" y="320" width="60" height="30" as="geometry" />
        </mxCell>
        <mxCell id="R8ca8CIKbB4HZpjDbUqP-23" value="Address:" style="text;strokeColor=none;fillColor=none;html=1;align=center;verticalAlign=middle;whiteSpace=wrap;rounded=0;fontSize=16;" vertex="1" parent="0dSKx5TV232whufWYYKa-1">
          <mxGeometry x="100" y="375" width="60" height="30" as="geometry" />
        </mxCell>
        <mxCell id="R8ca8CIKbB4HZpjDbUqP-24" value="National insurance number:" style="text;strokeColor=none;fillColor=none;html=1;align=center;verticalAlign=middle;whiteSpace=wrap;rounded=0;fontSize=16;" vertex="1" parent="0dSKx5TV232whufWYYKa-1">
          <mxGeometry x="90" y="430" width="210" height="40" as="geometry" />
        </mxCell>
        <mxCell id="R8ca8CIKbB4HZpjDbUqP-26" value="Credit card number:" style="text;strokeColor=none;fillColor=none;html=1;align=center;verticalAlign=middle;whiteSpace=wrap;rounded=0;fontSize=16;" vertex="1" parent="0dSKx5TV232whufWYYKa-1">
          <mxGeometry x="80" y="490" width="180" height="40" as="geometry" />
        </mxCell>
      </root>
    </mxGraphModel>
  </diagram>
  <diagram id="6jSyPbPVlVdANHXCEdZJ" name="Hierarchy">
    <mxGraphModel dx="1632" dy="1359" grid="0" gridSize="10" guides="1" tooltips="1" connect="1" arrows="1" fold="1" page="0" pageScale="1" pageWidth="827" pageHeight="1169" math="0" shadow="0">
      <root>
        <mxCell id="0" />
        <mxCell id="1" parent="0" />
        <mxCell id="BszYApES3MXsAIxEDsJ1-2" value="QuizMaster" style="rounded=0;whiteSpace=wrap;html=1;fontSize=16;" vertex="1" parent="1">
          <mxGeometry x="-264" y="-650" width="160" height="80" as="geometry" />
        </mxCell>
        <mxCell id="BszYApES3MXsAIxEDsJ1-4" value="" style="endArrow=none;html=1;rounded=0;fontSize=12;startSize=8;endSize=8;curved=1;" edge="1" parent="1">
          <mxGeometry width="50" height="50" relative="1" as="geometry">
            <mxPoint x="-475" y="-512" as="sourcePoint" />
            <mxPoint x="100" y="-512" as="targetPoint" />
          </mxGeometry>
        </mxCell>
        <mxCell id="BszYApES3MXsAIxEDsJ1-5" value="Music Quiz" style="rounded=0;whiteSpace=wrap;html=1;fontSize=16;" vertex="1" parent="1">
          <mxGeometry x="-535" y="-469" width="120" height="60" as="geometry" />
        </mxCell>
        <mxCell id="BszYApES3MXsAIxEDsJ1-6" value="Location Quiz" style="rounded=0;whiteSpace=wrap;html=1;fontSize=16;" vertex="1" parent="1">
          <mxGeometry x="-387" y="-469" width="120" height="60" as="geometry" />
        </mxCell>
        <mxCell id="BszYApES3MXsAIxEDsJ1-9" value="TV Show Quiz" style="rounded=0;whiteSpace=wrap;html=1;fontSize=16;" vertex="1" parent="1">
          <mxGeometry x="-247" y="-469" width="120" height="60" as="geometry" />
        </mxCell>
        <mxCell id="BszYApES3MXsAIxEDsJ1-10" value="Trolley Problem" style="rounded=0;whiteSpace=wrap;html=1;fontSize=16;" vertex="1" parent="1">
          <mxGeometry x="-104" y="-469" width="120" height="60" as="geometry" />
        </mxCell>
        <mxCell id="BszYApES3MXsAIxEDsJ1-11" value="Remove Ads" style="rounded=0;whiteSpace=wrap;html=1;fontSize=16;" vertex="1" parent="1">
          <mxGeometry x="39" y="-469" width="120" height="60" as="geometry" />
        </mxCell>
        <mxCell id="BszYApES3MXsAIxEDsJ1-12" value="" style="endArrow=none;html=1;rounded=0;fontSize=12;startSize=8;endSize=8;curved=1;exitX=0.5;exitY=1;exitDx=0;exitDy=0;" edge="1" parent="1" source="BszYApES3MXsAIxEDsJ1-2">
          <mxGeometry width="50" height="50" relative="1" as="geometry">
            <mxPoint x="-222" y="-460" as="sourcePoint" />
            <mxPoint x="-184" y="-517" as="targetPoint" />
          </mxGeometry>
        </mxCell>
        <mxCell id="BszYApES3MXsAIxEDsJ1-13" value="" style="endArrow=classic;html=1;rounded=0;fontSize=12;startSize=8;endSize=8;curved=1;" edge="1" parent="1" target="BszYApES3MXsAIxEDsJ1-5">
          <mxGeometry width="50" height="50" relative="1" as="geometry">
            <mxPoint x="-473" y="-512" as="sourcePoint" />
            <mxPoint x="-172" y="-510" as="targetPoint" />
          </mxGeometry>
        </mxCell>
        <mxCell id="BszYApES3MXsAIxEDsJ1-15" value="" style="endArrow=classic;html=1;rounded=0;fontSize=12;startSize=8;endSize=8;curved=1;entryX=0.5;entryY=0;entryDx=0;entryDy=0;" edge="1" parent="1" target="BszYApES3MXsAIxEDsJ1-6">
          <mxGeometry width="50" height="50" relative="1" as="geometry">
            <mxPoint x="-331" y="-513" as="sourcePoint" />
            <mxPoint x="-172" y="-510" as="targetPoint" />
          </mxGeometry>
        </mxCell>
        <mxCell id="BszYApES3MXsAIxEDsJ1-16" value="" style="endArrow=classic;html=1;rounded=0;fontSize=12;startSize=8;endSize=8;curved=1;entryX=0.5;entryY=0;entryDx=0;entryDy=0;" edge="1" parent="1" target="BszYApES3MXsAIxEDsJ1-11">
          <mxGeometry width="50" height="50" relative="1" as="geometry">
            <mxPoint x="99" y="-513" as="sourcePoint" />
            <mxPoint x="-172" y="-510" as="targetPoint" />
          </mxGeometry>
        </mxCell>
        <mxCell id="BszYApES3MXsAIxEDsJ1-17" value="" style="endArrow=classic;html=1;rounded=0;fontSize=12;startSize=8;endSize=8;curved=1;entryX=0.5;entryY=0;entryDx=0;entryDy=0;" edge="1" parent="1" target="BszYApES3MXsAIxEDsJ1-10">
          <mxGeometry width="50" height="50" relative="1" as="geometry">
            <mxPoint x="-46" y="-513" as="sourcePoint" />
            <mxPoint x="-172" y="-510" as="targetPoint" />
          </mxGeometry>
        </mxCell>
        <mxCell id="BszYApES3MXsAIxEDsJ1-18" value="" style="endArrow=classic;html=1;rounded=0;fontSize=12;startSize=8;endSize=8;curved=1;entryX=0.5;entryY=0;entryDx=0;entryDy=0;" edge="1" parent="1" target="BszYApES3MXsAIxEDsJ1-9">
          <mxGeometry width="50" height="50" relative="1" as="geometry">
            <mxPoint x="-185" y="-514" as="sourcePoint" />
            <mxPoint x="-172" y="-510" as="targetPoint" />
          </mxGeometry>
        </mxCell>
      </root>
    </mxGraphModel>
  </diagram>
</mxfile>
